<?xml version="1.0" encoding="utf-8"?>
<!-- Generator: Adobe Illustrator 19.2.0, SVG Export Plug-In . SVG Version: 6.00 Build 0)  -->
<!DOCTYPE svg PUBLIC "-//W3C//DTD SVG 1.1//EN" "http://www.w3.org/Graphics/SVG/1.1/DTD/svg11.dtd">
<svg version="1.1" xmlns="http://www.w3.org/2000/svg" xmlns:xlink="http://www.w3.org/1999/xlink" x="0px" y="0px"
	 viewBox="0 0 414.6 277.1" enable-background="new 0 0 414.6 277.1" xml:space="preserve">
<g id="Layer_8">
	<path fill="#DC7676" d="M365.8,257.8H30.5c-6.1,0-11.1-5-11.1-11.1V30.9c0-6.1,5-11.1,11.1-11.1h335.3c6.1,0,11.1,5,11.1,11.1
		v215.7C376.9,252.8,371.9,257.8,365.8,257.8z"/>
	<g>
		<g>
			<path fill="none" stroke="#FAAE24" stroke-width="7" stroke-linecap="round" stroke-miterlimit="10" d="M85.6,144.1v30.3
				c0,8.1,6.6,14.7,14.7,14.7h217.8"/>
			<g>
				<polygon fill="#FAAE24" points="312.9,206.6 343.2,189.1 312.9,171.7 				"/>
			</g>
		</g>
	</g>
</g>
<g id="Layer_9">
	<path fill="#DC7676" d="M701.3,653H111.8c-6.1,0-11.1-5-11.1-11.1V426.1c0-6.1,5-11.1,11.1-11.1h589.5c6.1,0,11.1,5,11.1,11.1
		v215.7C712.4,648,707.4,653,701.3,653z"/>
	<g>
		<g>
			<path fill="none" stroke="#FAAE24" stroke-width="7" stroke-linecap="round" stroke-miterlimit="10" d="M227.1,559.4v18.3
				c0,8.1,6.6,14.7,14.7,14.7h411.8"/>
			<g>
				<polygon fill="#FAAE24" points="648.4,609.8 678.7,592.3 648.4,574.9 				"/>
			</g>
		</g>
	</g>
	<g>
		<line fill="#FAAE24" x1="675" y1="502.8" x2="611.1" y2="502.8"/>
		<g>
			
				<line fill="none" stroke="#FAAE24" stroke-width="7" stroke-linecap="round" stroke-miterlimit="10" x1="675" y1="502.8" x2="636.2" y2="502.8"/>
			<g>
				<polygon fill="#FAAE24" points="641.3,485.4 611.1,502.8 641.3,520.3 				"/>
			</g>
		</g>
	</g>
	<g>
		<line fill="#FAAE24" x1="524.2" y1="502.5" x2="460.3" y2="502.5"/>
		<g>
			
				<line fill="none" stroke="#FAAE24" stroke-width="7" stroke-linecap="round" stroke-miterlimit="10" x1="524.2" y1="502.5" x2="485.4" y2="502.5"/>
			<g>
				<polygon fill="#FAAE24" points="490.5,485.1 460.3,502.5 490.5,520 				"/>
			</g>
		</g>
	</g>
	<g>
		<path fill="#FAAE24" d="M720.8,633h-25.2c-4.4,0-7.9-3.5-7.9-7.9V443.5c0-4.4,3.5-7.9,7.9-7.9h25.2c4.4,0,7.9,3.5,7.9,7.9v181.6
			C728.7,629.5,725.1,633,720.8,633z"/>
		<g>
			<path fill="#FFFFFF" d="M696.4,583.3c0-4.9,2.5-7.2,2.5-7.2l2.1,1.6c0,0-2,2.2-2,5.5c0,4,3.2,7.3,7.8,7.3c4.7,0,7.9-3.2,7.9-7.3
				c0-3.6-2.5-5.8-2.5-5.8h-2c-0.4,0-0.6,0.2-0.6,0.6v1.2h-2.5v-2.7c0-1.3,0.5-1.8,1.8-1.8h8.2v2.5h-1.3c-0.4,0-0.9,0-0.9,0v0.1
				c0,0,2.5,2.3,2.5,6.3c0,5.4-4.2,9.9-10.6,9.9C700.9,593.5,696.4,589.1,696.4,583.3z"/>
			<path fill="#FFFFFF" d="M705.5,570.7c-0.4,0-0.6,0.2-0.6,0.6v1.2h-2.4v-2.6c0-1.3,0.5-1.9,1.7-1.9h0.9c0.6,0,1,0.1,1,0.1V568
				c-2.1-0.7-3.8-2.4-3.8-4.6c0-0.4,0.1-0.7,0.1-0.7h2.8c0,0-0.1,0.4-0.1,0.8c0,1.8,1.3,3.4,3.4,4.1c0.8,0.3,1.7,0.3,2.6,0.3h5.9
				v2.8H705.5z"/>
			<path fill="#FFFFFF" d="M707.9,553.1v-0.6h-0.1c-2.6,0-3.5,0.9-3.5,3.2c0,0.7,0.2,2.4,1.1,2.4h0.8v2.6h-1.4c-2.4,0-2.7-3.6-2.7-5
				c0-4.7,2.5-6,5.7-6h6.2c0.4,0,0.6-0.2,0.6-0.6v-1.2h2.4v2.6c0,1.3-0.6,1.8-1.7,1.8c-0.5,0-0.9-0.1-0.9-0.1v0.1
				c0,0,2.9,1.1,2.9,4.6c0,2.5-1.5,4.9-4.4,4.9C708.2,561.9,707.9,555.6,707.9,553.1z M715.1,556.3c0-2.4-2.5-3.9-4.6-3.9H710v0.7
				c0,2.1,0.1,5.9,2.8,5.9C713.9,559.1,715.1,558.2,715.1,556.3z"/>
			<path fill="#FFFFFF" d="M705.5,544.9c-0.4,0-0.6,0.2-0.6,0.6v1.2h-2.4v-2.6c0-1.3,0.5-1.8,1.5-1.8c0.4,0,0.8,0,0.8,0v-0.1
				c0,0-2.6-1.2-2.6-4.8c0-3.9,3.1-6.4,7.6-6.4c4.6,0,7.6,2.8,7.6,6.6c0,3.2-2.3,4.4-2.3,4.4v0.1c0,0,0.5-0.1,1.3-0.1h6.5v2.8H705.5
				z M714.9,538.1c0-2.3-1.9-4.2-5.2-4.2c-3.2,0-5.2,1.7-5.2,4.1c0,2.2,1.5,4.2,5.2,4.2C712.3,542.2,714.9,540.8,714.9,538.1z"/>
			<path fill="#FFFFFF" d="M699.7,527.9c-0.4,0-0.6,0.2-0.6,0.6v1.2h-2.4V527c0-1.3,0.5-1.8,1.8-1.8h5.7c0.7,0,1.2,0.1,1.2,0.1v-0.1
				c-1.4-0.6-3.2-2.5-3.2-5.4c0-3.4,1.9-5,5.6-5h6.3c0.4,0,0.6-0.2,0.6-0.6V513h2.4v2.7c0,1.3-0.5,1.8-1.8,1.8h-6.8
				c-2,0-3.6,0.4-3.6,2.8c0,2.2,1.5,4,3.6,4.6c0.6,0.2,1.2,0.3,1.9,0.3h6.8v2.8H699.7z"/>
			<path fill="#FFFFFF" d="M696.4,501c0-5.9,4.5-10.4,10.4-10.4c2.5,0,4.9,0.9,6.7,2.4l2.3-2.3l1.8,1.7l-2.3,2.3
				c1.4,1.8,2.2,4,2.2,6.3c0,5.9-4.7,10.4-10.6,10.4C700.9,511.4,696.4,506.9,696.4,501z M714.6,501c0-2.7-1.4-4.3-1.4-4.3L711,499
				l-1.9-1.7l2.3-2.2c-1.3-0.9-3-1.5-4.7-1.5c-4.4,0-7.7,3.3-7.7,7.5c0,4.1,3.3,7.4,7.7,7.4C711.2,508.4,714.6,505.2,714.6,501z"/>
			<path fill="#FFFFFF" d="M699.8,486.7c-0.4,0-0.6,0.2-0.6,0.6v1.2h-2.5v-2.9c0-1.3,0.5-1.8,1.8-1.8h15.3c0.4,0,0.6-0.2,0.6-0.6
				v-5.6c0-0.4-0.2-0.6-0.6-0.6h-1.3v-2.6h2.6c1.3,0,1.8,0.5,1.8,1.8v8.7c0,1.3-0.5,1.8-1.8,1.8H699.8z"/>
		</g>
	</g>
	<g opacity="0.5">
		<path fill="#F8E2D2" d="M592.8,525.9h-47.7c-4.4,0-7.9-3.5-7.9-7.9v-34.6c0-4.4,3.5-7.9,7.9-7.9h47.7c4.4,0,7.9,3.5,7.9,7.9v34.6
			C600.8,522.3,597.2,525.9,592.8,525.9z"/>
		<g>
			<path fill="#F8E2D2" d="M529,455.4c-0.1-0.4-0.4-0.5-0.7-0.5H528V453h1.2c1.1,0,1.5,0.2,1.8,1.3l3.4,9.6c0.3,0.8,0.6,2.1,0.6,2.1
				h0c0,0,0.3-1.3,0.6-2.1l3.4-9.6c0.4-1,0.7-1.3,1.8-1.3h1.2v1.9h-0.3c-0.4,0-0.6,0.1-0.7,0.5l-4.9,13.1h-2.3L529,455.4z"/>
			<path fill="#F8E2D2" d="M548.9,461.6h0.5v-0.1c0-2-0.7-2.7-2.5-2.7c-0.5,0-1.8,0.1-1.8,0.9v0.6h-2v-1.1c0-1.8,2.8-2.1,3.8-2.1
				c3.6,0,4.6,1.9,4.6,4.4v4.7c0,0.3,0.2,0.5,0.5,0.5h0.9v1.8h-2c-1,0-1.4-0.5-1.4-1.3c0-0.4,0-0.7,0-0.7h0c0,0-0.9,2.2-3.5,2.2
				c-1.9,0-3.8-1.2-3.8-3.4C542.2,461.9,547.1,461.6,548.9,461.6z M546.5,467.1c1.8,0,3-1.9,3-3.5v-0.4h-0.5c-1.6,0-4.5,0.1-4.5,2.1
				C544.4,466.2,545.1,467.1,546.5,467.1z"/>
			<path fill="#F8E2D2" d="M555.2,455.4c0-0.3-0.2-0.5-0.5-0.5h-0.9V453h2.1c1,0,1.4,0.4,1.4,1.4v11.8c0,0.3,0.2,0.5,0.5,0.5h0.9
				v1.8h-2.1c-1,0-1.4-0.4-1.4-1.4V455.4z"/>
			<path fill="#F8E2D2" d="M561.2,459.8c0-0.3-0.2-0.5-0.5-0.5h-0.9v-1.8h2.1c1,0,1.4,0.4,1.4,1.4v7.4c0,0.3,0.2,0.5,0.5,0.5h0.9
				v1.8h-2.1c-1,0-1.4-0.4-1.4-1.4V459.8z M561.3,453h1.9v2.2h-1.9V453z"/>
			<path fill="#F8E2D2" d="M571.2,457.2c2.6,0,3.4,1.7,3.4,1.7h0c0,0,0-0.3,0-0.7v-2.8c0-0.3-0.2-0.5-0.5-0.5h-0.9V453h2.1
				c1,0,1.4,0.4,1.4,1.4v11.8c0,0.3,0.2,0.5,0.5,0.5h0.9v1.8h-2c-1,0-1.4-0.4-1.4-1.2c0-0.3,0-0.6,0-0.6h0c0,0-0.9,2-3.7,2
				c-3,0-4.9-2.4-4.9-5.8C566.1,459.5,568.2,457.2,571.2,457.2z M574.7,463c0-2-1-4-3.2-4c-1.7,0-3.2,1.5-3.2,4c0,2.4,1.3,4,3.1,4
				C573.1,467,574.7,465.8,574.7,463z"/>
			<path fill="#F8E2D2" d="M586.1,461.6h0.5v-0.1c0-2-0.7-2.7-2.5-2.7c-0.5,0-1.8,0.1-1.8,0.9v0.6h-2v-1.1c0-1.8,2.8-2.1,3.8-2.1
				c3.6,0,4.6,1.9,4.6,4.4v4.7c0,0.3,0.2,0.5,0.5,0.5h0.9v1.8h-2c-1,0-1.4-0.5-1.4-1.3c0-0.4,0-0.7,0-0.7h0c0,0-0.9,2.2-3.5,2.2
				c-1.9,0-3.8-1.2-3.8-3.4C579.4,461.9,584.3,461.6,586.1,461.6z M583.7,467.1c1.8,0,3-1.9,3-3.5v-0.4h-0.5c-1.6,0-4.5,0.1-4.5,2.1
				C581.6,466.2,582.3,467.1,583.7,467.1z"/>
			<path fill="#F8E2D2" d="M592.5,459.2h-1.5v-1.7h1.5v-3.1h2.1v3.1h2.7v1.7h-2.7v5.1c0,2.2,1.5,2.5,2.4,2.5c0.3,0,0.5,0,0.5,0v1.9
				c0,0-0.3,0-0.7,0c-1.4,0-4.2-0.4-4.2-4.2V459.2z"/>
			<path fill="#F8E2D2" d="M604.5,457.2c3.1,0,4.8,2.3,4.8,5.2c0,0.3-0.1,0.9-0.1,0.9h-8.1c0.1,2.4,1.8,3.7,3.8,3.7
				c1.9,0,3.3-1.3,3.3-1.3l0.9,1.5c0,0-1.6,1.6-4.3,1.6c-3.5,0-5.9-2.5-5.9-5.8C598.9,459.5,601.3,457.2,604.5,457.2z M607.1,461.7
				c-0.1-1.8-1.2-2.8-2.6-2.8c-1.6,0-2.9,1-3.3,2.8H607.1z"/>
		</g>
	</g>
	<g>
		<line fill="#FAAE24" x1="374.2" y1="502.5" x2="268.3" y2="502.5"/>
		<g>
			
				<line fill="none" stroke="#FAAE24" stroke-width="7" stroke-linecap="round" stroke-miterlimit="10" x1="374.2" y1="502.5" x2="293.4" y2="502.5"/>
			<g>
				<polygon fill="#FAAE24" points="298.5,485.1 268.3,502.5 298.5,520 				"/>
			</g>
		</g>
	</g>
	<g>
		<path fill="#F8E2D2" d="M442.8,525.9h-47.7c-4.4,0-7.9-3.5-7.9-7.9v-34.6c0-4.4,3.5-7.9,7.9-7.9h47.7c4.4,0,7.9,3.5,7.9,7.9v34.6
			C450.8,522.3,447.2,525.9,442.8,525.9z"/>
		<g>
			<path fill="#F8E2D2" d="M378.6,466.7h0.3c0.4,0,0.6-0.1,0.7-0.5l4.9-13.1h2.3l4.9,13.1c0.1,0.4,0.4,0.5,0.7,0.5h0.3v1.9h-1.2
				c-1.1,0-1.5-0.3-1.8-1.3l-1.2-3.2h-5.7l-1.2,3.2c-0.4,1-0.7,1.3-1.8,1.3h-1.2V466.7z M388,462.3l-1.7-4.7
				c-0.3-0.8-0.6-2.2-0.6-2.2h0c0,0-0.3,1.4-0.6,2.2l-1.7,4.7H388z"/>
			<path fill="#F8E2D2" d="M394.9,459.8c0-0.3-0.2-0.5-0.5-0.5h-0.9v-1.8h2c0.9,0,1.4,0.4,1.4,1.2v0.4c0,0.4,0,0.6,0,0.6h0
				c0.4-1,1.8-2.6,4.2-2.6c2.6,0,3.8,1.4,3.8,4.3v4.8c0,0.3,0.2,0.5,0.5,0.5h0.9v1.8h-2.1c-1,0-1.4-0.4-1.4-1.4v-5.2
				c0-1.6-0.3-2.8-2.1-2.8c-1.7,0-3.1,1.1-3.5,2.7c-0.2,0.4-0.2,0.9-0.2,1.5v5.2h-2.1V459.8z"/>
			<path fill="#F8E2D2" d="M414.3,461.6h0.5v-0.1c0-2-0.7-2.7-2.5-2.7c-0.5,0-1.8,0.1-1.8,0.9v0.6h-2v-1.1c0-1.8,2.8-2.1,3.8-2.1
				c3.6,0,4.6,1.9,4.6,4.4v4.7c0,0.3,0.2,0.5,0.5,0.5h0.9v1.8h-2c-1,0-1.4-0.5-1.4-1.3c0-0.4,0-0.7,0-0.7h0c0,0-0.9,2.2-3.5,2.2
				c-1.9,0-3.8-1.2-3.8-3.4C407.6,461.9,412.4,461.6,414.3,461.6z M411.8,467.1c1.8,0,3-1.9,3-3.5v-0.4h-0.5c-1.6,0-4.5,0.1-4.5,2.1
				C409.7,466.2,410.4,467.1,411.8,467.1z"/>
			<path fill="#F8E2D2" d="M420.6,455.4c0-0.3-0.2-0.5-0.5-0.5h-0.9V453h2.1c1,0,1.4,0.4,1.4,1.4v11.8c0,0.3,0.2,0.5,0.5,0.5h0.9
				v1.8H422c-1,0-1.4-0.4-1.4-1.4V455.4z"/>
			<path fill="#F8E2D2" d="M427.2,471.3c0.9,0,1.5-0.6,2-1.6l0.5-1.2l-3.8-8.8c-0.2-0.4-0.4-0.4-0.7-0.4h-0.3v-1.8h1.3
				c0.9,0,1.2,0.2,1.6,1.1l2.5,6.3c0.2,0.6,0.4,1.3,0.4,1.3h0c0,0,0.2-0.8,0.4-1.3l2.3-6.3c0.3-0.9,0.7-1.1,1.6-1.1h1.3v1.8H436
				c-0.4,0-0.5,0.1-0.7,0.4l-4.4,10.9c-0.7,1.7-2,2.6-3.6,2.6c-1.6,0-2.6-1.1-2.6-1.1l0.9-1.5C425.6,470.6,426.3,471.3,427.2,471.3z
				"/>
			<path fill="#F8E2D2" d="M437.4,467.3l5.7-7c0.5-0.6,0.9-1,0.9-1v0c0,0-0.4,0-1.1,0h-3c-0.3,0-0.5,0.2-0.5,0.5v0.7h-2v-1.6
				c0-1,0.4-1.4,1.4-1.4h8v1.2l-5.7,7.1c-0.5,0.5-0.9,1-0.9,1v0c0,0,0.4,0,1.1,0h3.6c0.3,0,0.5-0.2,0.5-0.5v-0.7h1.9v1.6
				c0,1-0.4,1.4-1.4,1.4h-8.4V467.3z"/>
			<path fill="#F8E2D2" d="M453.9,457.2c3.1,0,4.8,2.3,4.8,5.2c0,0.3-0.1,0.9-0.1,0.9h-8.1c0.1,2.4,1.8,3.7,3.8,3.7
				c1.9,0,3.3-1.3,3.3-1.3l0.9,1.5c0,0-1.6,1.6-4.3,1.6c-3.5,0-5.9-2.5-5.9-5.8C448.3,459.5,450.7,457.2,453.9,457.2z M456.5,461.7
				c-0.1-1.8-1.2-2.8-2.6-2.8c-1.6,0-2.9,1-3.3,2.8H456.5z"/>
		</g>
	</g>
	<g>
		<g>
			<path opacity="0.5" fill="#F8E2D2" d="M123.9,454.9h-1.4V453h9.1c1,0,1.4,0.4,1.4,1.4v2h-2v-1c0-0.3-0.2-0.5-0.5-0.5h-4.4v4.9
				h5.4v1.9h-5.4v4.5c0,0.3,0.2,0.5,0.5,0.5h4.5c0.3,0,0.5-0.2,0.5-0.5v-1h2v2c0,1-0.4,1.4-1.4,1.4h-6.9c-1,0-1.4-0.4-1.4-1.4V454.9
				z"/>
			<path opacity="0.5" fill="#F8E2D2" d="M138.2,462.9l-2.1-3.2c-0.2-0.4-0.5-0.4-0.9-0.4h-0.6v-1.8h1.4c1,0,1.3,0.2,1.9,1.1
				l1.4,2.2c0.2,0.3,0.4,0.7,0.4,0.7h0c0,0,0.2-0.4,0.4-0.7l1.3-2.2c0.6-0.9,0.9-1.1,1.9-1.1h1.4v1.8H144c-0.4,0-0.7,0.1-0.9,0.4
				l-2.1,3.2l3.8,5.7h-2.4l-2.4-3.6c-0.2-0.3-0.3-0.6-0.3-0.6h0c0,0-0.2,0.3-0.4,0.6l-2.3,3.6h-2.4L138.2,462.9z"/>
			<path opacity="0.5" fill="#F8E2D2" d="M151.4,457.2c3.1,0,4.8,2.3,4.8,5.2c0,0.3-0.1,0.9-0.1,0.9H148c0.1,2.4,1.8,3.7,3.8,3.7
				c1.9,0,3.3-1.3,3.3-1.3l0.9,1.5c0,0-1.6,1.6-4.3,1.6c-3.5,0-5.9-2.5-5.9-5.8C145.8,459.5,148.2,457.2,151.4,457.2z M154,461.7
				c-0.1-1.8-1.2-2.8-2.6-2.8c-1.6,0-2.9,1-3.3,2.8H154z"/>
			<path opacity="0.5" fill="#F8E2D2" d="M163.9,457.2c1.3,0,4,0.5,4,2.4v1.1H166v-0.6c0-0.8-1.3-1.1-2.1-1.1c-2.2,0-3.8,1.6-3.8,4
				c0,2.5,1.8,4,3.9,4c2.1,0,3.5-1.5,3.5-1.5l0.9,1.5c0,0-1.6,1.9-4.5,1.9c-3.5,0-5.9-2.5-5.9-5.8
				C157.9,459.7,160.3,457.2,163.9,457.2z"/>
			<path opacity="0.5" fill="#F8E2D2" d="M170.7,459.8c0-0.3-0.2-0.5-0.5-0.5h-0.9v-1.8h2.1c1,0,1.4,0.4,1.4,1.4v5.3
				c0,1.5,0.3,2.8,2.1,2.8c2.3,0,3.6-2,3.6-4.2v-5.2h2.1v8.8c0,0.3,0.2,0.5,0.5,0.5h0.9v1.8h-2c-0.9,0-1.4-0.4-1.4-1.2v-0.4
				c0-0.4,0-0.6,0-0.6h0c-0.5,1.1-1.9,2.6-4.1,2.6c-2.5,0-3.8-1.3-3.8-4.3V459.8z"/>
			<path opacity="0.5" fill="#F8E2D2" d="M184.5,459.2H183v-1.7h1.5v-3.1h2.1v3.1h2.7v1.7h-2.7v5.1c0,2.2,1.5,2.5,2.4,2.5
				c0.3,0,0.5,0,0.5,0v1.9c0,0-0.3,0-0.7,0c-1.4,0-4.2-0.4-4.2-4.2V459.2z"/>
			<path opacity="0.5" fill="#F8E2D2" d="M196.4,457.2c3.1,0,4.8,2.3,4.8,5.2c0,0.3-0.1,0.9-0.1,0.9H193c0.1,2.4,1.8,3.7,3.8,3.7
				c1.9,0,3.3-1.3,3.3-1.3l0.9,1.5c0,0-1.6,1.6-4.3,1.6c-3.5,0-5.9-2.5-5.9-5.8C190.8,459.5,193.3,457.2,196.4,457.2z M199,461.7
				c-0.1-1.8-1.2-2.8-2.6-2.8c-1.6,0-2.9,1-3.3,2.8H199z"/>
			<path fill="#F8E2D2" d="M209,461.4h4.9V456h1.8v5.4h4.9v1.7h-4.9v5.4H214v-5.4H209V461.4z"/>
		</g>
		<path fill="none" d="M201.2,524.9"/>
		<path fill="none" d="M182,528.9"/>
		<g>
			<path opacity="0.5" fill="#F8E2D2" d="M224,527.1c8.6-0.8,10.6-6.8,22.8-7c5.1-0.1,8.9,1,12.1,2.3v-39.1c0-4.4-3.5-7.9-7.9-7.9
				h-47.7c-4.4,0-7.9,3.5-7.9,7.9V525c1.2-0.5,2.6-1,4.1-1.4C209.6,520.9,215.4,527.9,224,527.1z"/>
			<path fill="#F8E2D2" d="M203.3,546.8h47.7c4.4,0,7.9-3.5,7.9-7.9v-16.4c-3.2-1.3-7-2.4-12.1-2.3c-12.1,0.3-14.1,6.3-22.8,7
				s-14.4-6.3-24.5-3.5c-1.5,0.4-2.9,0.9-4.1,1.4v13.8C195.4,543.2,198.9,546.8,203.3,546.8z"/>
		</g>
	</g>
	<g>
		<path fill="#F8E2D2" d="M228.4,466.7h1.5v-11.7h-1.5V453h5.1v1.9H232v11.7h1.5v1.9h-5.1V466.7z"/>
		<path fill="#F8E2D2" d="M236.4,459.8c0-0.3-0.2-0.5-0.5-0.5H235v-1.8h2c0.9,0,1.4,0.4,1.4,1.2v0.4c0,0.4,0,0.6,0,0.6h0
			c0.4-1,1.8-2.6,4.2-2.6c2.6,0,3.8,1.4,3.8,4.3v4.8c0,0.3,0.2,0.5,0.5,0.5h0.9v1.8h-2.1c-1,0-1.4-0.4-1.4-1.4v-5.2
			c0-1.6-0.3-2.8-2.1-2.8c-1.7,0-3.1,1.1-3.5,2.7c-0.2,0.4-0.2,0.9-0.2,1.5v5.2h-2.1V459.8z"/>
		<path fill="#F8E2D2" d="M249.9,465.4c0,0,1.3,1.6,3.4,1.6c1,0,1.9-0.5,1.9-1.4c0-2-6.1-1.8-6.1-5.4c0-2.1,1.9-3.1,4.1-3.1
			c1.3,0,3.6,0.5,3.6,2.2v1.1H255v-0.5c0-0.7-1-0.9-1.7-0.9c-1.3,0-2.1,0.4-2.1,1.3c0,2.1,6.1,1.6,6.1,5.4c0,2-1.8,3.3-4.1,3.3
			c-3,0-4.4-2-4.4-2L249.9,465.4z"/>
		<path fill="#F8E2D2" d="M260.2,459.2h-1.5v-1.7h1.5v-3.1h2.1v3.1h2.7v1.7h-2.7v5.1c0,2.2,1.5,2.5,2.4,2.5c0.3,0,0.5,0,0.5,0v1.9
			c0,0-0.3,0-0.7,0c-1.4,0-4.2-0.4-4.2-4.2V459.2z"/>
		<path fill="#F8E2D2" d="M267.8,459.8c0-0.3-0.2-0.5-0.5-0.5h-0.9v-1.8h2c1,0,1.4,0.4,1.4,1.3v0.7c0,0.4,0,0.8,0,0.8h0
			c0.5-1.6,1.8-2.9,3.5-2.9c0.3,0,0.6,0,0.6,0v2.1c0,0-0.3-0.1-0.6-0.1c-1.4,0-2.6,1-3.1,2.6c-0.2,0.6-0.3,1.3-0.3,2v4.6h-2.1V459.8
			z"/>
		<path fill="#F8E2D2" d="M276.5,459.8c0-0.3-0.2-0.5-0.5-0.5h-0.9v-1.8h2.1c1,0,1.4,0.4,1.4,1.4v5.3c0,1.5,0.3,2.8,2.1,2.8
			c2.3,0,3.6-2,3.6-4.2v-5.2h2.1v8.8c0,0.3,0.2,0.5,0.5,0.5h0.9v1.8h-2c-0.9,0-1.4-0.4-1.4-1.2v-0.4c0-0.4,0-0.6,0-0.6h0
			c-0.5,1.1-1.9,2.6-4.1,2.6c-2.5,0-3.8-1.3-3.8-4.3V459.8z"/>
		<path fill="#F8E2D2" d="M290.2,459.8c0-0.3-0.2-0.5-0.5-0.5h-0.9v-1.8h2c1,0,1.4,0.4,1.4,1.2v0.4c0,0.4,0,0.6,0,0.6h0
			c0.5-1.3,2.1-2.6,3.8-2.6c1.9,0,3,0.9,3.3,2.5h0c0.6-1.3,2.2-2.5,4-2.5c2.5,0,3.7,1.4,3.7,4.3v4.8c0,0.3,0.2,0.5,0.5,0.5h0.9v1.8
			h-2.1c-1,0-1.4-0.4-1.4-1.4v-5.3c0-1.6-0.3-2.8-2-2.8c-1.5,0-2.7,1.3-3.1,2.9c-0.1,0.5-0.2,0.9-0.2,1.5v5.1h-2.1v-6.7
			c0-1.5-0.2-2.8-1.9-2.8c-1.6,0-2.8,1.4-3.2,2.9c-0.1,0.4-0.2,0.9-0.2,1.4v5.1h-2.1V459.8z"/>
		<path fill="#F8E2D2" d="M315.3,457.2c3.1,0,4.8,2.3,4.8,5.2c0,0.3-0.1,0.9-0.1,0.9h-8.1c0.1,2.4,1.8,3.7,3.8,3.7
			c1.9,0,3.3-1.3,3.3-1.3l0.9,1.5c0,0-1.6,1.6-4.3,1.6c-3.5,0-5.9-2.5-5.9-5.8C309.7,459.5,312.1,457.2,315.3,457.2z M317.9,461.7
			c-0.1-1.8-1.2-2.8-2.6-2.8c-1.6,0-2.9,1-3.3,2.8H317.9z"/>
		<path fill="#F8E2D2" d="M322.9,459.8c0-0.3-0.2-0.5-0.5-0.5h-0.9v-1.8h2c0.9,0,1.4,0.4,1.4,1.2v0.4c0,0.4,0,0.6,0,0.6h0
			c0.4-1,1.8-2.6,4.2-2.6c2.6,0,3.8,1.4,3.8,4.3v4.8c0,0.3,0.2,0.5,0.5,0.5h0.9v1.8h-2.1c-1,0-1.4-0.4-1.4-1.4v-5.2
			c0-1.6-0.3-2.8-2.1-2.8c-1.7,0-3.1,1.1-3.5,2.7c-0.2,0.4-0.2,0.9-0.2,1.5v5.2h-2.1V459.8z"/>
		<path fill="#F8E2D2" d="M336.8,459.2h-1.5v-1.7h1.5v-3.1h2.1v3.1h2.7v1.7h-2.7v5.1c0,2.2,1.5,2.5,2.4,2.5c0.3,0,0.5,0,0.5,0v1.9
			c0,0-0.3,0-0.7,0c-1.4,0-4.2-0.4-4.2-4.2V459.2z"/>
	</g>
	
		<line opacity="0.35" fill="none" stroke="#FAAE24" stroke-width="7" stroke-linecap="round" stroke-miterlimit="10" x1="233.5" y1="142.8" x2="233.5" y2="185.9"/>
	
		<line opacity="0.35" fill="none" stroke="#FAAE24" stroke-width="7" stroke-linecap="round" stroke-miterlimit="10" x1="569" y1="538.3" x2="569" y2="591.3"/>
	
		<line opacity="0.35" fill="none" stroke="#FAAE24" stroke-width="7" stroke-linecap="round" stroke-miterlimit="10" x1="419" y1="538.3" x2="419" y2="591.3"/>
</g>
<g id="Layer_10">
	
		<radialGradient id="SVGID_1_" cx="663.3557" cy="161.9398" r="208.1497" fx="649.9667" fy="173.1988" gradientTransform="matrix(1 0 0 2.6512 0 -267.3869)" gradientUnits="userSpaceOnUse">
		<stop  offset="0.1904" style="stop-color:#FFFBF6;stop-opacity:0.987"/>
		<stop  offset="0.2139" style="stop-color:#FFFFFF"/>
		<stop  offset="1" style="stop-color:#FAAE24;stop-opacity:0.5"/>
	</radialGradient>
	<path fill="url(#SVGID_1_)" stroke="#FAAE24" stroke-width="6" stroke-linecap="round" stroke-miterlimit="10" d="M645.6,44.9
		c4.2,0,8.3,1.3,11.7,3.8l59.1,42.9c3.4,2.5,5.9,6,7.2,10l22.6,69.5c1.3,4,1.3,8.3,0,12.3l-22.6,69.5c-1.3,4-3.8,7.5-7.2,10
		l-59.1,42.9c-3.4,2.5-7.5,3.8-11.7,3.8"/>
	<g id="XMLID_1_">
		<g id="XMLID_3_">
			<path id="XMLID_60_" fill="#F9E3D2" d="M900.9,113.8c3.3-1.7,5.8-3.9,7.9-3.2c2.4,0.7,2.2,2.5,0.7,4.4c-1.3,1.6-0.9,6.3-0.5,8.5
				c0.5,3,0.8,3.4,3.3,6.1c1.6,1.6,3.3,4.5,4.1,9.9c0.5,3.4-0.5,7.1-3.4,11.3c-1.4,2.1-4.1,3.6-6.4,3.8c-3.5,0.3-7.1,0-10.7,0
				c-3.9,0-6.7-1.3-8.4-5.1c-2.1-4.5-3.3-9.5-1.2-14.6c1.8-4.6,2.4-4.8,4-6.8c1-1.3,2.3-2.9,2.2-4.6c-0.1-3.9-1.9-4.2,0.5-6.5
				C895.1,115,898.3,115.1,900.9,113.8z"/>
			<path id="XMLID_59_" fill="#F9E3D2" d="M892.4,126.9c0.3-1.8-3.7-4.1-5.3-4.6c-2.7-0.8-5.5,0.1-7.8,1.7c-2.1,1.4-3.1,3.8-3,6.2
				c0,2.7,2.3,4.5,4.3,6c2.1,1.6,4.3,2.9,6.5,4.4c0.7-1,0.8-2.4,0.7-3.5c-3.3-0.3-9.4-5-8.6-8.8c0.4-1.9,3-3.3,4.7-3.6
				c2.4-0.3,4.2,1.1,5.9,2.6c0.6,0.6,1.5,1.6,1.9,2L892.4,126.9z"/>
			<path id="XMLID_58_" fill="#DC7676" d="M908.2,126.2c0,0,1.9,4.1,3,5.9c1.3,2.1,2.2,4,2.6,6.4c0.7,4.4-1,10.9-5.2,13.4
				c-2.2,1.3-4.4,0.1-6.9,0c-2.6-0.1-3.6,0.1-6.2,0.5c-2.7,0.4-5-1.3-6.2-3.6c-1.1-2-1.4-3.2-1.7-5.5c-0.5-3.4,0.1-6.5,0.8-8.6
				c0.5-1.4,1.9-3.6,2.6-4.9c1.1-1.8,2.3-3.8,2.3-3.8c1.2-0.7,3.1,0,4.4,0.2c1.7,0.4,3.5,0.9,5.2,1
				C903.6,127.2,905.9,127.6,908.2,126.2z"/>
			<g id="XMLID_47_">
				<path id="XMLID_57_" fill="#F79029" d="M892.6,140.1c0.4-0.3,0.9-0.5,1.3-0.7c0.5-0.2,1-0.3,1.5-0.3c0.5-0.1,1,0,1.5,0.1
					c0.5,0.1,1,0.2,1.4,0.4c0.5,0.2,0.9,0.5,1.3,0.8c0.4,0.3,0.7,0.7,1,1.1c0.3,0.4,0.5,0.8,0.7,1.3c0.2,0.5,0.3,1,0.3,1.5
					c0.1,0.5,0.1,1,0,1.5c-0.1,0.5-0.2,1-0.4,1.4c-0.2,0.5-0.5,0.9-0.8,1.3c-0.3,0.4-0.6,0.7-1.1,1c-0.4,0.3-0.9,0.5-1.3,0.7
					c-0.5,0.2-1,0.3-1.5,0.3c-0.5,0.1-1,0.1-1.5,0c-0.5-0.1-1-0.2-1.4-0.4c-0.5-0.2-0.9-0.4-1.3-0.8c-0.4-0.3-0.7-0.7-1-1.1
					c-0.3-0.4-0.6-0.9-0.7-1.3c-0.2-0.5-0.3-1-0.3-1.5c-0.1-0.5,0-1,0.1-1.5c0.1-0.5,0.2-1,0.4-1.4c0.2-0.5,0.5-0.9,0.8-1.3
					C891.8,140.8,892.2,140.4,892.6,140.1z"/>
				<path id="XMLID_56_" fill="#FFEFD5" d="M892.8,140.5c0.5-0.3,1-0.5,1.5-0.7c0.5-0.2,1.1-0.2,1.6-0.2c0.6,0,1.1,0,1.6,0.2
					c0.5,0.2,1.1,0.4,1.5,0.7c0.4,0.3,0.8,0.8,1.1,1.2c0.3,0.5,0.6,1,0.7,1.5c0.2,0.5,0.2,1.1,0.2,1.6c0,0.6,0.1,1.1-0.1,1.6
					c-0.2,0.5-0.4,1-0.7,1.5c-0.3,0.4-0.8,0.8-1.2,1.1c-0.5,0.3-1,0.5-1.5,0.7c-0.5,0.2-1.1,0.3-1.6,0.3c-0.6,0-1.1,0-1.6-0.2
					c-0.5-0.2-1.1-0.4-1.5-0.7c-0.4-0.3-0.9-0.7-1.2-1.2c-0.3-0.5-0.4-1-0.6-1.5c-0.2-0.5-0.3-1.1-0.3-1.6c0-0.5,0-1.1,0.2-1.6
					c0.2-0.5,0.5-1,0.8-1.4C892.1,141.3,892.4,140.8,892.8,140.5z"/>
				<path id="XMLID_55_" fill="#FBAE25" d="M892.1,147.2c0.4-0.1,3.2-1.9,3.2-2.3c0,0-3.4-0.6-3.8-0.5
					C891.1,144.4,891.7,147.2,892.1,147.2z"/>
				<path id="XMLID_54_" fill="#FBAE25" d="M895.5,144.6c-0.3-0.6-1.8-3.4-2.2-3.5c-0.4-0.1-2.1,2.3-1.8,2.6
					C891.8,143.9,895.7,144.9,895.5,144.6z"/>
				<path id="XMLID_53_" fill="#FBAE25" d="M898.2,148.5c0-0.7-1.8-3.2-2.2-3.1c-0.4,0.1-0.6,3.3-0.3,3.9
					C895.8,149.6,898.2,149.1,898.2,148.5z"/>
				<path id="XMLID_52_" fill="#FBAE25" d="M894.8,148.9c0.3-0.3,0.9-3.4,0.7-3.5c-0.2-0.1-3,1.9-3.1,2.3
					C892.3,148.1,894.3,149.4,894.8,148.9z"/>
				<path id="XMLID_51_" fill="#FBAE25" d="M899.9,142.8c-1.3,0.6-3.5,1.6-3.4,1.9c0,0.2,3.1,0.6,3.8,0.8
					C900.9,145.7,900.4,142.6,899.9,142.8z"/>
				<path id="XMLID_50_" fill="#FBAE25" d="M896.4,145c-0.2,0.3,1.7,2.2,2.4,3.1c0.3,0.3,1.8-1.4,1.5-2
					C899.9,145.6,896.6,144.7,896.4,145z"/>
				<path id="XMLID_49_" fill="#FBAE25" d="M893.9,140.8c0.5,1,1.5,3.6,2,3.7c0.4,0.1,0.9-3.6,0.6-4.1
					C896,139.9,893.6,140.2,893.9,140.8z"/>
				<path id="XMLID_48_" fill="#FBAE25" d="M896.4,144c-0.1,0.3-0.2,0.4,0.1,0.2c0.3-0.2,2-1.1,2.4-1.3c0.4-0.2,1.1-0.6,0.4-1.4
					c-0.7-0.8-1.5-1-2-1.1c-0.5-0.1-0.5,0.5-0.6,0.9C896.8,141.7,896.5,143.6,896.4,144z"/>
			</g>
			<g id="XMLID_36_">
				<path id="XMLID_46_" fill="#F79029" d="M909.9,132.8c0.2,0.4,0.3,0.9,0.4,1.3c0.1,0.5,0,0.9,0,1.4c-0.1,0.4-0.2,0.9-0.4,1.3
					c-0.2,0.4-0.4,0.8-0.7,1.2c-0.3,0.4-0.6,0.6-1,0.9c-0.4,0.3-0.7,0.5-1.2,0.7c-0.4,0.2-0.9,0.3-1.3,0.4c-0.5,0.1-0.9,0-1.3,0
					c-0.4-0.1-0.9-0.2-1.3-0.3c-0.4-0.2-0.8-0.4-1.2-0.7c-0.4-0.3-0.7-0.6-1-0.9c-0.3-0.4-0.5-0.7-0.7-1.2c-0.2-0.4-0.3-0.9-0.3-1.3
					c-0.1-0.5,0-0.9,0-1.3c0.1-0.4,0.2-0.9,0.3-1.3c0.2-0.4,0.4-0.8,0.7-1.2c0.3-0.4,0.6-0.7,0.9-1c0.4-0.3,0.8-0.5,1.2-0.7
					c0.4-0.2,0.9-0.3,1.3-0.4c0.5-0.1,0.9,0,1.4,0c0.4,0.1,0.9,0.2,1.3,0.4c0.4,0.2,0.8,0.4,1.2,0.6c0.4,0.3,0.7,0.6,0.9,1
					C909.4,132,909.7,132.4,909.9,132.8z"/>
				<path id="XMLID_45_" fill="#FFEFD5" d="M909.5,133c0.2,0.5,0.3,1,0.3,1.4c0,0.5,0,1-0.1,1.5c-0.1,0.5-0.2,1-0.5,1.4
					c-0.3,0.4-0.6,0.8-0.9,1.2c-0.4,0.3-0.8,0.5-1.3,0.7c-0.5,0.2-1,0.3-1.4,0.3c-0.5,0-1-0.1-1.5-0.2c-0.5-0.1-1-0.2-1.4-0.4
					c-0.4-0.3-0.8-0.6-1.1-1c-0.3-0.4-0.5-0.8-0.7-1.3c-0.2-0.5-0.2-1-0.3-1.4c0-0.5,0-1,0.1-1.5c0.1-0.5,0.3-1,0.5-1.4
					c0.3-0.4,0.5-0.8,0.9-1.2c0.4-0.3,0.8-0.6,1.3-0.8c0.5-0.2,1-0.2,1.5-0.2c0.5,0,1,0,1.5,0.1c0.5,0.1,1,0.3,1.4,0.5
					c0.4,0.3,0.7,0.6,1.1,1C908.9,132.1,909.3,132.5,909.5,133z"/>
				<path id="XMLID_44_" fill="#FBAE25" d="M903.8,131c0,0.4,1,3.2,1.3,3.3c0,0,1.3-2.9,1.3-3.2C906.4,130.7,903.8,130.6,903.8,131z
					"/>
				<path id="XMLID_43_" fill="#FBAE25" d="M905.3,134.5c0.6-0.1,3.3-0.9,3.5-1.2c0.2-0.3-1.6-2.4-1.9-2.2
					C906.6,131.4,904.9,134.5,905.3,134.5z"/>
				<path id="XMLID_42_" fill="#FBAE25" d="M901.3,136c0.6,0.1,3.2-0.9,3.2-1.3c0-0.4-2.8-1.2-3.3-1.1
					C900.8,133.7,900.7,135.9,901.3,136z"/>
				<path id="XMLID_41_" fill="#FBAE25" d="M901.6,133c0.2,0.3,2.8,1.5,3,1.4c0.2-0.2-1-3-1.3-3.2
					C902.9,130.9,901.3,132.4,901.6,133z"/>
				<path id="XMLID_40_" fill="#FBAE25" d="M905.9,138.7c-0.2-1.3-0.7-3.4-0.9-3.4c-0.1,0-1.2,2.6-1.5,3.1
					C903.2,139,906,139.2,905.9,138.7z"/>
				<path id="XMLID_39_" fill="#FBAE25" d="M904.7,135.1c-0.2-0.2-2.3,1-3.2,1.5c-0.3,0.2,0.9,1.9,1.4,1.7
					C903.5,138.1,905,135.4,904.7,135.1z"/>
				<path id="XMLID_38_" fill="#FBAE25" d="M909,133.8c-1,0.2-3.5,0.6-3.7,0.9c-0.2,0.4,3,1.6,3.5,1.4
					C909.3,135.9,909.6,133.7,909,133.8z"/>
				<path id="XMLID_37_" fill="#FBAE25" d="M905.6,135.4c-0.2-0.1-0.3-0.2-0.2,0.1c0.1,0.3,0.5,2,0.6,2.4c0.1,0.4,0.3,1.1,1.2,0.7
					c0.9-0.4,1.2-1.1,1.4-1.5c0.2-0.4-0.3-0.6-0.7-0.7C907.5,136.2,906,135.6,905.6,135.4z"/>
			</g>
			<g id="XMLID_11_">
				<path id="XMLID_35_" fill="#EEBC7F" d="M894,130.7c-0.6,0.5-1,1.3-1.1,2.1c-0.2,1.1,0.3,2.6,0.9,3.5c0.3,0.4,0.4,0.5,0.8,0.5
					c0.6,0,1.1-0.2,1.7-0.3c0.3,0,1-0.1,1.2-0.3c0.2-0.2,0.2-1,0.3-1.3c0.2-0.6,0.3-1.1,0.7-1.6c0.4-0.5,0.9-0.7,0.5-1.4
					c-0.5-0.8-1.1-1.6-1.9-2.1c-0.5-0.4-1.1-0.3-1.6-0.1C894.8,130.1,894.5,130.3,894,130.7z"/>
				<path id="XMLID_34_" fill="#E0845F" d="M894.7,135.7c0-1.1,0.2-2.4,0.7-3.5c0.3-0.6,0.7-1.1,1-1.7c0.1-0.2,0.3-0.5,0.5-0.8
					c-0.5-0.3-1-0.2-1.5,0c-0.6,0.3-0.9,0.5-1.4,0.9c-0.6,0.5-1,1.3-1.1,2.1c-0.2,1.1,0.3,2.6,0.9,3.5c0.3,0.4,0.4,0.5,0.8,0.5
					c0,0,0.1,0,0.1,0C894.7,136.4,894.7,136.1,894.7,135.7z"/>
			</g>
			<g id="XMLID_4_">
				<path id="XMLID_9_" fill="#EEBC7F" d="M905.9,146.9c0.7,0.2,1.4,0,1.9-0.4c0.7-0.5,1.3-1.6,1.4-2.6c0.1-0.4,0.1-0.6-0.2-0.9
					c-0.3-0.4-0.8-0.7-1.2-1.1c-0.2-0.2-0.6-0.6-0.8-0.7c-0.2,0-0.7,0.4-0.9,0.5c-0.5,0.2-0.8,0.4-1.4,0.4c-0.5,0-0.9-0.2-1.1,0.5
					c-0.2,0.8-0.2,1.7-0.1,2.5c0.1,0.6,0.5,1,1,1.2C905,146.7,905.4,146.8,905.9,146.9z"/>
				<path id="XMLID_8_" fill="#E0845F" d="M908.3,143.5c-0.7,0.6-1.5,1.3-2.4,1.5c-0.5,0.1-1,0.2-1.6,0.2c-0.2,0-0.5,0-0.7,0.1
					c0.1,0.5,0.5,0.9,0.9,1.1c0.5,0.3,0.8,0.4,1.3,0.5c0.7,0.2,1.4,0,1.9-0.4c0.7-0.5,1.3-1.6,1.4-2.6c0.1-0.4,0.1-0.6-0.2-0.9
					c0,0,0,0-0.1-0.1C908.7,143.1,908.5,143.4,908.3,143.5z"/>
			</g>
		</g>
		<g id="XMLID_2_">
			<path id="XMLID_7635_" fill="#DC7676" d="M979.4,124.1c-0.6-0.5-0.6-1-0.3-1.6c0.4-0.6,1-1.1,1.4-1.7c0.4-0.5,1-1.2,0.4-1.8
				c-0.6-0.6-1.4-0.3-2.1,0c-0.4,0.2-0.8,0.6-1,1c-0.3,0.4-0.5,0.8-0.7,1.2c-0.5,1.1-1.5,1.5-2.6,1.4c-1.2-0.1-2.3,0.2-3.3,1
				c-0.9,0.8-1.8,1.6-2.4,2.6c-0.7,1.1-1.4,2.2-1.5,3.5c-0.2,2.1,1.4,4.6,3.4,5.5c0.4,0.2,0.7,0.3,0.5,0.8c-0.5,1.3-0.6,2.7-0.2,4.1
				c0.1,0.5,0,0.7-0.5,0.9c-0.6,0.2-1.2,0.5-1.5,1c-0.9,1.4-1.5,2.9-1.6,4.5c-0.1,2.5,1.3,4.2,2.8,5.9c1,1.1,2.3,1.7,3.8,1.6
				c0.4,0,0.8,0,1.1-0.1c3-0.7,6-3.4,5.1-8c-0.3-1.7-0.9-3.1-2.5-3.9c-1.4-0.7-2.8-1.5-4.4-1.6c-0.4,0-0.6-0.2-0.7-0.6
				c-0.6-1.4-0.2-2.7,0.2-4c0.1-0.3,0.4-0.3,0.7-0.3c0.6,0,1.2,0,1.9,0c1.3-0.1,2.6-0.3,3.3-1.5c0.7-1.1,1.2-2.3,1.8-3.4
				C982,128.6,981.1,125.5,979.4,124.1z M973.8,142.5c1.4,0.3,2.6,0.9,3.6,1.8c1,0.9,0.9,2.1,1,3.5c0.1,0.9-0.3,1.8-1,2.7
				c-1.6,2.1-4.1,1.7-5.7,0.2c-1.8-1.7-2.1-3.9-1.5-6.2C970.5,143.4,972.6,142.2,973.8,142.5z M977.1,133.2
				c-0.1,0.1-0.2,0.1-0.3,0.2c-2,1.1-5.6,0.2-6.6-1.9c-0.6-1.1-0.6-2.3,0-3.3c1.1-1.6,2.2-3.1,4.4-3.4c1.3-0.2,2.6,0.2,3.6,0.9
				c1,0.7,0.9,2,1,3C979.1,130.6,978.4,132,977.1,133.2z"/>
			<path id="XMLID_7632_" fill="#DC7676" d="M949.9,139.8c0.1-2.5,0-5-0.1-7.4c-0.1-2.2-0.3-4.5-0.7-6.7c-0.4-2.2-1.6-3.4-3.7-3.7
				c-2.5-0.3-4.7,0.5-6.5,2.4c-0.5,0.6-0.4,1.4,0.2,1.8c0.6,0.5,1.2,0.3,1.7-0.4c1-1.4,2.4-1.8,4-1.7c1.2,0.1,1.9,0.9,2.1,2
				c0.3,1.3,0.6,2.7,0.6,4c0,0.3,0,0.7,0,1c0,0.9-0.2,0.9-1,0.6c-0.5-0.2-1.1-0.5-1.7-0.6c-2.6-0.5-4.1-0.1-5.5,2.4
				c-0.7,1.1-1,2.3-1.2,3.6c-0.1,0.6,0,1.2,0.2,1.7c0.7,1.8,3.4,3.5,5.3,3.2c0.9-0.1,1.8-0.5,2.6-0.9c1.6-0.9,1.6-0.9,1.6,0.9
				c0,0.6,0.1,1.3,0.8,1.4c0.8,0.1,1-0.5,1.2-1.2C950.1,141.3,949.8,140.6,949.9,139.8z M947,137.9c-1.2,1.1-2.4,2.3-4.3,1.6
				c-2.4-0.9-2.6-1.4-1.9-4c0.4-1.5,1.5-2.2,3-2.4c1.5-0.3,2.6,0.5,3.5,1.6c0.3,0.4,0.2,1,0.2,1.5
				C947.4,136.7,947.6,137.3,947,137.9z"/>
			<path id="XMLID_7628_" fill="#DC7676" d="M929.7,121.6c1.4-0.4,2.6-0.1,3.6,1c0.5,0.6,0.6,1.4,0.8,2.1c0.1,0.4,0.3,0.7,0.6,0.8
				c0.4,0.2,0.8,0.1,1.2-0.2c0.5-0.3,0.7-1.4,0.2-2.3c-1.3-2.2-3.2-3.4-5.4-3.6c-2.2,0-3.8,0.7-5.1,2c-1.2,1.2-2,2.7-2.6,4.3
				c-0.4,1-0.4,2.1,0.1,3.1c0.8,1.6,1.6,3,3.9,3c0.9,0,1.8,0.1,2.7,0c1.2-0.1,2.1,0.3,2.7,1.3c0.3,0.4,0.6,0.8,0.8,1.3
				c0.8,1.5,0.3,2.9-0.5,4.2c-0.7,1.2-1.8,1.8-3.3,1.6c-1-0.1-1.9-0.3-2.7-1c-0.6-0.6-0.4-1.4-0.3-2.1c0-0.7-0.5-1.1-1.1-1.1
				c-0.8,0-1.6,1.1-1.4,1.9c0.4,2.1,1.8,3.3,3.7,4c1.4,0.5,2.9,1,4.4,0.2c1.9-1,3.2-2.6,3.6-4.7c0.3-1.8,0.1-2-0.5-3.7
				c-0.3-1.1-0.7-1.6-1.3-2.3c-0.6-0.7-1.2-0.9-2.1-1.1c-1.3-0.3-2.5-0.1-3.8-0.2c-2-0.1-2.9-1.1-2.9-3
				C925.2,124.8,927.2,122.3,929.7,121.6z"/>
			<path id="XMLID_7624_" fill="#DC7676" d="M964.2,132c0-1.3-0.3-2.7-0.1-4c0.1-1.1-0.9-1.5-1.8-1c-0.5,0.3-0.5,0.8-0.5,1.3
				c0,2.4,0.9,4.8,0.4,7.3c-0.1,0.4,0.1,1-0.4,1.2c-0.5,0.2-0.7-0.4-1-0.8c-1.1-1.6-2.4-3.1-3.6-4.6c-0.6-0.7-1.2-1.3-1.8-2
				c-0.8-0.8-1.9-1.1-2.4-0.4c-0.5,0.6-1,1.5-0.8,2.3c0.2,1,0.2,2,0.4,3c0.4,2.4,1,4.8,0.9,7.5c0,0.2,0,0.6-0.1,1
				c-0.1,0.6,0.3,0.9,0.8,1.1c0.5,0.2,0.9-0.1,1.1-0.4c0.4-0.6,0.4-1.3,0.3-2c-0.5-3-0.5-6-1.3-8.9c-0.1-0.2-0.1-0.5,0.2-0.6
				c0.2-0.1,0.4,0.1,0.5,0.2c0.6,0.5,1.1,1.1,1.6,1.7c1.6,2,3.5,3.8,4.3,6.4c0.3,1,0.7,1.1,1.7,0.9c1.3-0.3,1.8-0.8,1.7-1.8
				C964.1,136.9,964.3,134.4,964.2,132z"/>
			<path id="XMLID_7623_" fill="#DC7676" d="M988.7,132.5c0.3-0.6,0.8-1,1.4-1.3c0.6-0.3,1.3-0.4,2-0.5c2.7-0.5,2.7-0.5,3.8,2
				c0.1,0.2,0.2,0.5,0.5,0.5c0.4,0,1.4-0.8,1.4-1.3c0-1.8-1.6-3.9-3.4-3.6c-1,0.1-1.9,0.4-2.9,0.6c-0.2,0-0.4,0.2-0.6,0
				c-0.2-0.2-0.1-0.4,0-0.7c0.2-0.5,0.6-0.7,0.9-1.1c0.4-0.5,0.7-1.1,0.3-1.7c-0.4-0.6-1-0.6-1.7-0.4c-0.4,0.1-0.6,0.4-0.8,0.8
				c-0.1,0.2-0.7,1.3-0.8,1.6c-0.3,0.4-1,1.8-1.7,3.2c-1.5,2.8-2.6,5.8-4.2,8.6c-0.2,0.5-0.6,1.1,0,1.6c0.6,0.5,1.4,0.4,2-0.3
				c0.4-0.5,0.8-1,1.1-1.6C986.7,136.6,987.5,134.5,988.7,132.5z"/>
			<path id="XMLID_6803_" fill="#DC7676" d="M996.1,121.1c1.6-0.1,2.9-0.9,3.5-1.4c0.7-0.6,1.2-1.4,1.2-1.5c0.7-1.3,0.8-2.3,0.2-3.9
				c-0.4-1-1.2-1.7-2-2.2c-1.5-1-3.3-1.4-5-0.8c-2,0.7-3.5,4.6-2.8,6.5C992,119.8,993.8,121.2,996.1,121.1z M995.6,113.1
				c2.2,0,3.8,1.5,3.8,3.4c0,1.4-1.6,2.8-3,2.8c-1.8,0-3.4-1.6-3.3-3.2C993.1,114.5,994.4,113,995.6,113.1z"/>
			<path id="XMLID_6802_" fill="#DC7676" d="M1008.4,133.8c-0.9-1.5-1.8-3.1-2.8-4.7c-0.8-1.3-1.6-2.6-2.2-4
				c-0.3-0.6-0.9-0.9-1.6-0.7c-0.7,0.2-1.1,0.9-1,1.4c0.1,0.3,0.3,0.6,0.5,0.9c1.1,1.9,2.7,3.7,3.5,5.8c0.7,1.9,2.2,3.5,2.8,5.4
				c0.1,0.4,0.5,0.8,1,0.7c0.6,0,1-0.4,1.3-0.8c0.3-0.4,0.1-0.8-0.2-1.1C1009.2,135.9,1008.8,134.9,1008.4,133.8z"/>
			<path id="XMLID_7641_" fill="#DC7676" d="M1021.9,138.2c0.2-4.8,0.3-10.1-1.4-16.1c-0.5-1.6-1.7-2.7-2.7-3.1
				c-1.3-0.5-2.7-0.3-4,0.1c-0.1,0-0.1,0-0.1,0.1c-0.9,0.3-1.6,0.6-2.3,1.2c-0.2,0.2-0.4,0.3-0.6,0.5c0,0-0.1,0.1-0.1,0.1
				c-1.4,1.4-1.9,3.4-1.3,5.4c0.7,2.3,3,4.4,6.3,3.2c0.7-0.2,1.1-0.4,1.7-0.7c0.7-0.4,0.7-1,0.6-1.5c-0.1-0.4-0.5-0.7-0.9-0.8
				c-0.9,0-0.8,0.4-1.7,1c-0.5,0.3-1.7,0.4-2.1,0.3c-2.1-0.7-2.1-1.7-2-3.3c0.1-2.1,1.8-3.1,3.6-3.5c0.6-0.2,1.2-0.2,1.7-0.1
				c1,0.2,1.3,0.8,1.8,1.8c1.1,1.9,2.7,12.3,1.5,16.7c-0.2,0.6-0.3,0.9-0.9,0.5c-1-0.5-2-0.9-3.1-0.8c-1.8-0.1-3,0.7-3.9,2.1
				c-1.1,1.7-1.8,3.5-1.3,5.4c0.7,2.3,3.7,4.7,6.8,3.2c0.7-0.3,1.3-0.7,2-1c0.5-0.3,0.7-0.1,0.7,0.4c0,0.4,0,0.8,0,1.2
				c0,0.6,0.3,1,0.9,1.1c0.6,0.1,0.8-0.4,1-0.8c0.1-0.3,0.1-0.7,0.1-1C1022.2,145.8,1021.7,143.5,1021.9,138.2z M1019.9,144.8
				c-0.2,1.2-3.2,3.6-4.9,3c-1.7-0.7-2.3-1.3-2.2-3c0.2-2,1.5-3.4,3.3-3.6c1.5-0.2,2.5,0.5,3.4,1.6
				C1019.9,143.3,1020.1,144.1,1019.9,144.8z"/>
		</g>
	</g>
	<g id="document_1_">
		<g>
			<g>
				<path fill="#DC7676" d="M667.5,98.7l-16-15.6c0.4,0-0.5-1.7-0.7-1.7h-0.5H628c-1.4,0-2.4,1.1-2.4,2.4v51.9
					c0,1.3,1.1,2.4,2.4,2.4h37.4c1.4,0,2.4-1.1,2.4-2.4c0,0,0-35.7,0-36.1C667.8,99.3,667.7,99,667.5,98.7z"/>
			</g>
			<g>
				<path fill="#F8E2D2" d="M650.8,81.3V94c0,2.9,3.1,5,6,5h10.9L650.8,81.3z"/>
			</g>
			<g>
				<path fill="#F8E2D2" d="M658.7,128.5h-25c-0.3,0-0.5,0.2-0.5,0.5v1.8c0,0.3,0.2,0.5,0.5,0.5h25c0.3,0,0.5-0.2,0.5-0.5V129
					C659.2,128.7,658.9,128.5,658.7,128.5z M633.7,101.5h10.5c0.3,0,0.5-0.2,0.5-0.5v-1.8c0-0.3-0.2-0.5-0.5-0.5h-10.5
					c-0.3,0-0.5,0.2-0.5,0.5v1.8C633.2,101.3,633.4,101.5,633.7,101.5z M633.7,91.9h10.5c0.3,0,0.5-0.2,0.5-0.5v-1.8
					c0-0.3-0.2-0.5-0.5-0.5h-10.5c-0.3,0-0.5,0.2-0.5,0.5v1.8C633.2,91.7,633.4,91.9,633.7,91.9z M658.7,117.9h-25
					c-0.3,0-0.5,0.2-0.5,0.5v1.8c0,0.3,0.2,0.5,0.5,0.5h25c0.3,0,0.5-0.2,0.5-0.5v-1.8C659.2,118.2,658.9,117.9,658.7,117.9z
					 M658.7,108.3h-25c-0.3,0-0.5,0.2-0.5,0.5v1.8c0,0.3,0.2,0.5,0.5,0.5h25c0.3,0,0.5-0.2,0.5-0.5v-1.8
					C659.2,108.5,658.9,108.3,658.7,108.3z"/>
			</g>
		</g>
	</g>
	<g>
		<path fill="#DC7676" d="M631.2,149.8h1.2v0.3c0,1.2,0.7,1.5,1.3,1.5c0.7,0,1.3-0.4,1.3-1.5v-4.7c0-0.2-0.1-0.3-0.3-0.3h-2.1v-1
			h2.8c0.5,0,0.8,0.2,0.8,0.8v5.3c0,1.8-1.3,2.6-2.5,2.6c-1.2,0-2.5-0.8-2.5-2.6V149.8z"/>
		<path fill="#DC7676" d="M638.4,150.7c0,0,0.9,1,2.1,1c0.8,0,1.5-0.5,1.5-1.3c0-1.8-4.1-1.5-4.1-4.1c0-1.3,1.1-2.3,2.7-2.3
			c0.9,0,2.4,0.4,2.4,1.6v0.7h-1.1v-0.4c0-0.4-0.6-0.8-1.3-0.8c-0.9,0-1.5,0.5-1.5,1.1c0,1.7,4.1,1.3,4.1,4.1c0,1.3-1,2.4-2.7,2.4
			c-1.8,0-2.8-1.3-2.8-1.3L638.4,150.7z"/>
		<path fill="#DC7676" d="M648.4,144c2.4,0,4.4,1.9,4.4,4.3c0,2.5-1.9,4.4-4.4,4.4c-2.4,0-4.3-1.9-4.3-4.4
			C644,145.9,645.9,144,648.4,144z M648.4,151.7c1.7,0,3.1-1.4,3.1-3.3c0-1.8-1.4-3.2-3.1-3.2c-1.7,0-3.1,1.4-3.1,3.2
			C645.3,150.2,646.7,151.7,648.4,151.7z"/>
		<path fill="#DC7676" d="M653.6,151.6h0.5c0.2,0,0.3-0.1,0.3-0.3v-7.2h1.1l3.8,5.4c0.3,0.5,0.7,1.2,0.7,1.2h0c0,0-0.1-0.7-0.1-1.2
			v-4.6c0-0.5,0.2-0.8,0.8-0.8h1.2v1h-0.5c-0.2,0-0.3,0.1-0.3,0.3v7.2H660l-3.8-5.4c-0.3-0.5-0.7-1.2-0.7-1.2h0c0,0,0.1,0.7,0.1,1.2
			v4.6c0,0.5-0.2,0.8-0.8,0.8h-1.2V151.6z"/>
		<path fill="#DC7676" d="M618.8,158.3h0.8c-0.9,1.5-1.3,3-1.3,4.7c0,1.8,0.5,3.6,1.4,5.2h-0.8c-0.9-1.4-1.4-3.3-1.4-5.1
			C617.5,161.3,618,159.7,618.8,158.3z"/>
		<path fill="#DC7676" d="M621.3,161.7h-0.8V161h0.8v-1.7h0.8v1.7h1.5v0.7h-1.5v3.1c0,1.4,0.9,1.6,1.4,1.6c0.2,0,0.3,0,0.3,0v0.7
			c0,0-0.1,0-0.3,0c-0.7,0-2.1-0.2-2.1-2.2V161.7z"/>
		<path fill="#DC7676" d="M627.6,160.9c1.7,0,2.5,1.3,2.5,2.8c0,0.1,0,0.4,0,0.4h-4.6c0,1.5,1.1,2.4,2.3,2.4c1.1,0,1.8-0.7,1.8-0.7
			l0.4,0.6c0,0-0.9,0.9-2.2,0.9c-1.8,0-3.2-1.3-3.2-3.2C624.6,162.1,626,160.9,627.6,160.9z M629.3,163.4c0-1.2-0.8-1.9-1.7-1.9
			c-1,0-1.9,0.6-2.1,1.9H629.3z"/>
		<path fill="#DC7676" d="M631.5,165.6c0,0,0.7,0.9,1.9,0.9c0.7,0,1.3-0.3,1.3-1c0-1.3-3.4-1.1-3.4-3c0-1.1,0.9-1.6,2.1-1.6
			c0.6,0,1.8,0.2,1.8,1.1v0.5h-0.8v-0.3c0-0.4-0.6-0.6-1-0.6c-0.8,0-1.3,0.3-1.3,0.9c0,1.4,3.4,1,3.4,3c0,1-0.9,1.7-2.1,1.7
			c-1.6,0-2.3-1.1-2.3-1.1L631.5,165.6z"/>
		<path fill="#DC7676" d="M637.1,161.7h-0.8V161h0.8v-1.7h0.8v1.7h1.5v0.7h-1.5v3.1c0,1.4,0.9,1.6,1.4,1.6c0.2,0,0.3,0,0.3,0v0.7
			c0,0-0.1,0-0.3,0c-0.7,0-2.1-0.2-2.1-2.2V161.7z"/>
		<path fill="#DC7676" d="M646.9,160.9c0.7,0,2.1,0.3,2.1,1.3v0.5h-0.8v-0.3c0-0.5-0.9-0.7-1.4-0.7c-1.3,0-2.3,1-2.3,2.4
			c0,1.5,1.1,2.4,2.4,2.4c1.2,0,1.9-0.9,1.9-0.9l0.4,0.6c0,0-0.8,1-2.4,1c-1.8,0-3.2-1.3-3.2-3.2
			C643.7,162.2,645.1,160.9,646.9,160.9z"/>
		<path fill="#DC7676" d="M653.8,163.3h0.3v-0.1c0-1.3-0.5-1.7-1.6-1.7c-0.3,0-1.2,0.1-1.2,0.5v0.4h-0.8v-0.6c0-0.8,1.4-1,2-1
			c1.9,0,2.4,1,2.4,2.3v2.9c0,0.2,0.1,0.3,0.3,0.3h0.5v0.7h-0.8c-0.5,0-0.7-0.2-0.7-0.7c0-0.3,0-0.4,0-0.4h0c0,0-0.5,1.3-2,1.3
			c-1,0-2.1-0.6-2.1-1.8C650.1,163.4,652.7,163.3,653.8,163.3z M652.3,166.5c1.2,0,1.8-1.2,1.8-2.2V164h-0.3c-0.9,0-2.8,0-2.8,1.4
			C650.9,165.9,651.4,166.5,652.3,166.5z"/>
		<path fill="#DC7676" d="M656.8,165.6c0,0,0.7,0.9,1.9,0.9c0.7,0,1.3-0.3,1.3-1c0-1.3-3.4-1.1-3.4-3c0-1.1,0.9-1.6,2.1-1.6
			c0.6,0,1.8,0.2,1.8,1.1v0.5h-0.8v-0.3c0-0.4-0.6-0.6-1-0.6c-0.8,0-1.3,0.3-1.3,0.9c0,1.4,3.4,1,3.4,3c0,1-0.9,1.7-2.1,1.7
			c-1.6,0-2.3-1.1-2.3-1.1L656.8,165.6z"/>
		<path fill="#DC7676" d="M664.7,160.9c1.7,0,2.5,1.3,2.5,2.8c0,0.1,0,0.4,0,0.4h-4.6c0,1.5,1.1,2.4,2.3,2.4c1.1,0,1.8-0.7,1.8-0.7
			l0.4,0.6c0,0-0.9,0.9-2.2,0.9c-1.8,0-3.2-1.3-3.2-3.2C661.7,162.1,663.1,160.9,664.7,160.9z M666.4,163.4c0-1.2-0.8-1.9-1.7-1.9
			c-1,0-1.9,0.6-2.1,1.9H666.4z"/>
		<path fill="#DC7676" d="M668.6,165.6c0,0,0.7,0.9,1.9,0.9c0.7,0,1.3-0.3,1.3-1c0-1.3-3.4-1.1-3.4-3c0-1.1,0.9-1.6,2.1-1.6
			c0.6,0,1.8,0.2,1.8,1.1v0.5h-0.8v-0.3c0-0.4-0.6-0.6-1-0.6c-0.8,0-1.3,0.3-1.3,0.9c0,1.4,3.4,1,3.4,3c0,1-0.9,1.7-2.1,1.7
			c-1.6,0-2.3-1.1-2.3-1.1L668.6,165.6z"/>
		<path fill="#DC7676" d="M675,163c0-1.7-0.4-3.2-1.3-4.7h0.8c0.9,1.4,1.3,3,1.3,4.8c0,1.9-0.5,3.7-1.4,5.1h-0.8
			C674.5,166.6,675,164.8,675,163z"/>
	</g>
	<g id="document_2_">
		<g>
			<g>
				<path fill="#DC7676" d="M667.5,204.7l-16-15.6c0.4,0-0.5-1.7-0.7-1.7h-0.5H628c-1.4,0-2.4,1.1-2.4,2.4v51.9
					c0,1.3,1.1,2.4,2.4,2.4h37.4c1.4,0,2.4-1.1,2.4-2.4c0,0,0-35.7,0-36.1C667.8,205.3,667.7,205,667.5,204.7z"/>
			</g>
			<g>
				<path fill="#F8E2D2" d="M650.8,187.3V200c0,2.9,3.1,5,6,5h10.9L650.8,187.3z"/>
			</g>
			<g>
				<path fill="#F8E2D2" d="M658.7,234.5h-25c-0.3,0-0.5,0.2-0.5,0.5v1.8c0,0.3,0.2,0.5,0.5,0.5h25c0.3,0,0.5-0.2,0.5-0.5V235
					C659.2,234.7,658.9,234.5,658.7,234.5z M633.7,207.5h10.5c0.3,0,0.5-0.2,0.5-0.5v-1.8c0-0.3-0.2-0.5-0.5-0.5h-10.5
					c-0.3,0-0.5,0.2-0.5,0.5v1.8C633.2,207.3,633.4,207.5,633.7,207.5z M633.7,197.9h10.5c0.3,0,0.5-0.2,0.5-0.5v-1.8
					c0-0.3-0.2-0.5-0.5-0.5h-10.5c-0.3,0-0.5,0.2-0.5,0.5v1.8C633.2,197.7,633.4,197.9,633.7,197.9z M658.7,223.9h-25
					c-0.3,0-0.5,0.2-0.5,0.5v1.8c0,0.3,0.2,0.5,0.5,0.5h25c0.3,0,0.5-0.2,0.5-0.5v-1.8C659.2,224.2,658.9,223.9,658.7,223.9z
					 M658.7,214.3h-25c-0.3,0-0.5,0.2-0.5,0.5v1.8c0,0.3,0.2,0.5,0.5,0.5h25c0.3,0,0.5-0.2,0.5-0.5v-1.8
					C659.2,214.5,658.9,214.3,658.7,214.3z"/>
			</g>
		</g>
	</g>
	<g>
		<path fill="#DC7676" d="M637.7,257.6h0.8v-6.4h-0.8v-1h2.8v1h-0.8v6.4h0.8v1h-2.8V257.6z"/>
		<path fill="#DC7676" d="M642.2,251.2h-0.8v-1h3.4c2.6,0,4.3,1.5,4.3,4.2c0,2.7-1.7,4.2-4.3,4.2H643c-0.5,0-0.8-0.2-0.8-0.8V251.2z
			 M643.7,257.6h1.1c1.9,0,3.1-1.1,3.1-3.2c0-2.1-1.2-3.2-3.1-3.2h-1.4v6.1C643.4,257.5,643.5,257.6,643.7,257.6z"/>
		<path fill="#DC7676" d="M650.8,251.5c0-0.2-0.1-0.3-0.3-0.3H650v-1h1.2c0.5,0,0.8,0.2,0.8,0.8v6.4c0,0.2,0.1,0.3,0.3,0.3h2.3
			c0.2,0,0.3-0.1,0.3-0.3v-0.5h1.1v1.1c0,0.5-0.2,0.8-0.8,0.8h-3.6c-0.5,0-0.8-0.2-0.8-0.8V251.5z"/>
		<path fill="#DC7676" d="M623.8,264.3h0.8c-0.9,1.5-1.3,3-1.3,4.7c0,1.8,0.5,3.6,1.4,5.2h-0.8c-0.9-1.4-1.4-3.3-1.4-5.1
			C622.5,267.3,622.9,265.7,623.8,264.3z"/>
		<path fill="#DC7676" d="M626,271.6c0,0,0.7,0.9,1.9,0.9c0.7,0,1.3-0.3,1.3-1c0-1.3-3.4-1.1-3.4-3c0-1.1,0.9-1.6,2.1-1.6
			c0.6,0,1.8,0.2,1.8,1.1v0.5H629v-0.3c0-0.4-0.6-0.6-1-0.6c-0.8,0-1.3,0.3-1.3,0.9c0,1.4,3.4,1,3.4,3c0,1-0.9,1.7-2.1,1.7
			c-1.6,0-2.3-1.1-2.3-1.1L626,271.6z"/>
		<path fill="#DC7676" d="M634.1,266.9c0.7,0,2.1,0.3,2.1,1.3v0.5h-0.8v-0.3c0-0.5-0.9-0.7-1.4-0.7c-1.3,0-2.3,1-2.3,2.4
			c0,1.5,1.1,2.4,2.4,2.4c1.2,0,1.9-0.9,1.9-0.9l0.4,0.6c0,0-0.8,1-2.4,1c-1.8,0-3.2-1.3-3.2-3.2
			C630.9,268.2,632.3,266.9,634.1,266.9z"/>
		<path fill="#DC7676" d="M637.8,265.6c0-0.2-0.1-0.3-0.3-0.3H637v-0.7h0.9c0.5,0,0.7,0.2,0.7,0.7v2.6c0,0.3,0,0.5,0,0.5h0
			c0.2-0.6,1-1.5,2.4-1.5c1.5,0,2,0.9,2,2.3v2.9c0,0.2,0.1,0.3,0.3,0.3h0.5v0.7h-0.9c-0.5,0-0.7-0.2-0.7-0.7v-2.9
			c0-0.9-0.1-1.8-1.3-1.8c-1,0-1.9,0.7-2.2,1.7c-0.1,0.2-0.1,0.5-0.1,0.8v2.9h-0.8V265.6z"/>
		<path fill="#DC7676" d="M647.5,266.9c1.7,0,2.5,1.3,2.5,2.8c0,0.1,0,0.4,0,0.4h-4.6c0,1.5,1.1,2.4,2.3,2.4c1.1,0,1.8-0.7,1.8-0.7
			l0.4,0.6c0,0-0.9,0.9-2.2,0.9c-1.8,0-3.2-1.3-3.2-3.2C644.5,268.1,645.9,266.9,647.5,266.9z M649.2,269.4c0-1.2-0.8-1.9-1.7-1.9
			c-1,0-1.9,0.6-2.1,1.9H649.2z"/>
		<path fill="#DC7676" d="M651.6,268c0-0.2-0.1-0.3-0.3-0.3h-0.5V267h0.8c0.5,0,0.7,0.2,0.7,0.7v0.3c0,0.2,0,0.4,0,0.4h0
			c0.3-0.8,1.2-1.5,2.2-1.5c1.1,0,1.7,0.5,1.9,1.5h0c0.3-0.8,1.2-1.5,2.2-1.5c1.5,0,2,0.9,2,2.3v2.9c0,0.2,0.1,0.3,0.3,0.3h0.5v0.7
			h-0.9c-0.5,0-0.7-0.2-0.7-0.7v-2.9c0-1-0.2-1.8-1.3-1.8c-0.9,0-1.7,0.8-1.9,1.7c-0.1,0.3-0.1,0.6-0.1,0.9v2.9h-0.8v-3.6
			c0-0.9-0.1-1.8-1.3-1.8c-1,0-1.7,0.9-2,1.8c-0.1,0.3-0.1,0.5-0.1,0.8v2.9h-0.8V268z"/>
		<path fill="#DC7676" d="M666,269.3h0.3v-0.1c0-1.3-0.5-1.7-1.6-1.7c-0.3,0-1.2,0.1-1.2,0.5v0.4h-0.8v-0.6c0-0.8,1.4-1,2-1
			c1.9,0,2.4,1,2.4,2.3v2.9c0,0.2,0.1,0.3,0.3,0.3h0.5v0.7H667c-0.5,0-0.7-0.2-0.7-0.7c0-0.3,0-0.4,0-0.4h0c0,0-0.5,1.3-2,1.3
			c-1,0-2.1-0.6-2.1-1.8C662.3,269.4,664.9,269.3,666,269.3z M664.4,272.5c1.2,0,1.8-1.2,1.8-2.2V270h-0.3c-0.9,0-2.8,0-2.8,1.4
			C663.1,271.9,663.5,272.5,664.4,272.5z"/>
		<path fill="#DC7676" d="M670.1,269c0-1.7-0.4-3.2-1.3-4.7h0.8c0.9,1.4,1.3,3,1.3,4.8c0,1.9-0.5,3.7-1.4,5.1h-0.8
			C669.6,272.6,670.1,270.8,670.1,269z"/>
	</g>
	<g>
		
			<linearGradient id="polygon3282_1_" gradientUnits="userSpaceOnUse" x1="912.5705" y1="-861.8584" x2="903.8587" y2="-846.4774" gradientTransform="matrix(1 0 0 -1 0 -621.793)">
			<stop  offset="0" style="stop-color:#F37657"/>
			<stop  offset="0" style="stop-color:#F37657"/>
			<stop  offset="0.41" style="stop-color:#E32F26"/>
			<stop  offset="0.99" style="stop-color:#991B1E"/>
			<stop  offset="1" style="stop-color:#991B1E"/>
		</linearGradient>
		<polygon id="polygon3282" fill="url(#polygon3282_1_)" points="908.3,222.3 884.7,236.3 915.2,234.2 917.6,203.5 		"/>
		
			<linearGradient id="polygon3293_1_" gradientUnits="userSpaceOnUse" x1="916.9104" y1="-848.9376" x2="905.6829" y2="-841.4033" gradientTransform="matrix(1 0 0 -1 0 -621.793)">
			<stop  offset="0" style="stop-color:#861719"/>
			<stop  offset="0" style="stop-color:#861719"/>
			<stop  offset="0.99" style="stop-color:#911A1D"/>
			<stop  offset="1" style="stop-color:#911A1D"/>
		</linearGradient>
		<polygon id="polygon3293" fill="url(#polygon3293_1_)" points="915.3,234.2 912.7,216.1 905.5,225.6 		"/>
		
			<linearGradient id="polygon3304_1_" gradientUnits="userSpaceOnUse" x1="907.9272" y1="-862.3245" x2="896.7001" y2="-854.7904" gradientTransform="matrix(1 0 0 -1 0 -621.793)">
			<stop  offset="0" style="stop-color:#861719"/>
			<stop  offset="0" style="stop-color:#861719"/>
			<stop  offset="0.99" style="stop-color:#911A1D"/>
			<stop  offset="1" style="stop-color:#911A1D"/>
		</linearGradient>
		<polygon id="polygon3304" fill="url(#polygon3304_1_)" points="915.3,234.2 896.1,232.7 884.8,236.3 		"/>
		
			<linearGradient id="polygon3319_1_" gradientUnits="userSpaceOnUse" x1="884.3541" y1="-843.4837" x2="886.0946" y2="-854.7952" gradientTransform="matrix(1 0 0 -1 0 -621.793)">
			<stop  offset="0" style="stop-color:#FFFFFF"/>
			<stop  offset="0" style="stop-color:#FFFFFF"/>
			<stop  offset="0.23" style="stop-color:#E57353"/>
			<stop  offset="0.46" style="stop-color:#DE3E26"/>
			<stop  offset="0.99" style="stop-color:#A51E22"/>
			<stop  offset="1" style="stop-color:#A51E22"/>
		</linearGradient>
		<polygon id="polygon3319" fill="url(#polygon3319_1_)" points="884.8,236.3 889.6,220.6 879.1,222.8 		"/>
		
			<linearGradient id="polygon3334_1_" gradientUnits="userSpaceOnUse" x1="896.3256" y1="-832.9215" x2="896.9669" y2="-844.4657" gradientTransform="matrix(1 0 0 -1 0 -621.793)">
			<stop  offset="0" style="stop-color:#FFFFFF"/>
			<stop  offset="0" style="stop-color:#FFFFFF"/>
			<stop  offset="0.23" style="stop-color:#E3714E"/>
			<stop  offset="0.56" style="stop-color:#BD2026"/>
			<stop  offset="0.99" style="stop-color:#A71E22"/>
			<stop  offset="1" style="stop-color:#A71E22"/>
		</linearGradient>
		<polygon id="polygon3334" fill="url(#polygon3334_1_)" points="905.5,225.6 901.1,208.3 888.4,220.2 		"/>
		
			<linearGradient id="polygon3349_1_" gradientUnits="userSpaceOnUse" x1="906.9493" y1="-822.2512" x2="908.8691" y2="-830.5247" gradientTransform="matrix(1 0 0 -1 0 -621.793)">
			<stop  offset="0" style="stop-color:#FFFFFF"/>
			<stop  offset="0" style="stop-color:#FFFFFF"/>
			<stop  offset="0.18" style="stop-color:#E46342"/>
			<stop  offset="0.4" style="stop-color:#C72A27"/>
			<stop  offset="0.99" style="stop-color:#A71E22"/>
			<stop  offset="1" style="stop-color:#A71E22"/>
		</linearGradient>
		<polygon id="polygon3349" fill="url(#polygon3349_1_)" points="916.6,208.5 904.6,198.8 901.3,209.5 		"/>
		
			<linearGradient id="polygon3362_1_" gradientUnits="userSpaceOnUse" x1="901.0868" y1="-819.3375" x2="909.3598" y2="-815.201" gradientTransform="matrix(1 0 0 -1 0 -621.793)">
			<stop  offset="0" style="stop-color:#FFFFFF"/>
			<stop  offset="0" style="stop-color:#FFFFFF"/>
			<stop  offset="0.54" style="stop-color:#C82527"/>
			<stop  offset="0.99" style="stop-color:#BE2026"/>
			<stop  offset="1" style="stop-color:#BE2026"/>
		</linearGradient>
		<polygon id="polygon3362" fill="url(#polygon3362_1_)" points="911,195.3 904,199.2 899.5,195.2 		"/>
		
			<linearGradient id="polygon3375_1_" gradientUnits="userSpaceOnUse" x1="877.1024" y1="-840.5999" x2="877.7833" y2="-847.4172" gradientTransform="matrix(1 0 0 -1 0 -621.793)">
			<stop  offset="0" style="stop-color:#FFFFFF"/>
			<stop  offset="0" style="stop-color:#FFFFFF"/>
			<stop  offset="0.31" style="stop-color:#DD4326"/>
			<stop  offset="0.99" style="stop-color:#BE2026"/>
			<stop  offset="1" style="stop-color:#BE2026"/>
		</linearGradient>
		<polygon id="polygon3375" fill="url(#polygon3375_1_)" points="876.3,228.1 879.2,222.7 876.9,216.3 		"/>
		<path id="path3377"  fill="#FFFFFF" d="M876.7,216.1l2.4,6.8l10.4-2.3l11.9-11.1l3.4-10.7
			l-5.3-3.7l-9,3.4c-2.8,2.6-8.3,7.8-8.5,7.9C881.8,206.5,878.3,213,876.7,216.1z"/>
		
			<linearGradient id="path3400_1_" gradientUnits="userSpaceOnUse" x1="872.4211" y1="-849.2599" x2="904.4296" y2="-816.3462" gradientTransform="matrix(1 0 0 -1 0 -621.793)">
			<stop  offset="0" style="stop-color:#BD2025"/>
			<stop  offset="0" style="stop-color:#BD2025"/>
			<stop  offset="7.000000e-002" style="stop-color:#FFFFFF"/>
			<stop  offset="0.17" style="stop-color:#FFFFFF"/>
			<stop  offset="0.27" style="stop-color:#C83227"/>
			<stop  offset="0.33" style="stop-color:#811517"/>
			<stop  offset="0.46" style="stop-color:#A21D21"/>
			<stop  offset="0.72" style="stop-color:#B21F24"/>
			<stop  offset="0.99" style="stop-color:#E62C25"/>
			<stop  offset="1" style="stop-color:#E62C25"/>
		</linearGradient>
		<path id="path3400"  fill="url(#path3400_1_)" d="M885.1,203.9c6.1-6.1,14-9.7,17.1-6.6
			c3,3.1-0.2,10.5-6.3,16.6c-6.1,6.1-13.9,9.9-17,6.8C875.9,217.6,879,210,885.1,203.9z"/>
		
			<linearGradient id="path3413_1_" gradientUnits="userSpaceOnUse" x1="896.9388" y1="-852.5798" x2="887.2975" y2="-850.2003" gradientTransform="matrix(1 0 0 -1 0 -621.793)">
			<stop  offset="0" style="stop-color:#8B181B"/>
			<stop  offset="0" style="stop-color:#8B181B"/>
			<stop  offset="0.54" style="stop-color:#991B1F"/>
			<stop  offset="0.99" style="stop-color:#A71E22"/>
			<stop  offset="1" style="stop-color:#A71E22"/>
		</linearGradient>
		<path id="path3413"  fill="url(#path3413_1_)" d="M884.8,236.3l4.8-15.8l15.8,5.1
			C899.7,230.9,893.3,235.5,884.8,236.3z"/>
		
			<linearGradient id="path3424_1_" gradientUnits="userSpaceOnUse" x1="913.4986" y1="-841.0084" x2="904.9336" y2="-833.3318" gradientTransform="matrix(1 0 0 -1 0 -621.793)">
			<stop  offset="0" style="stop-color:#7E1416"/>
			<stop  offset="0" style="stop-color:#7E1416"/>
			<stop  offset="0.99" style="stop-color:#9E1C20"/>
			<stop  offset="1" style="stop-color:#9E1C20"/>
		</linearGradient>
		<path id="path3424"  fill="url(#path3424_1_)" d="M901.4,209.5l4.1,16.1
			c4.8-5,9.1-10.4,11.2-17.1C916.6,208.5,901.4,209.5,901.4,209.5z"/>
		
			<linearGradient id="path3435_1_" gradientUnits="userSpaceOnUse" x1="916.6453" y1="-826.9234" x2="912.3789" y2="-822.3623" gradientTransform="matrix(1 0 0 -1 0 -621.793)">
			<stop  offset="0" style="stop-color:#791715"/>
			<stop  offset="0" style="stop-color:#791715"/>
			<stop  offset="0.99" style="stop-color:#9E1D20"/>
			<stop  offset="1" style="stop-color:#9E1D20"/>
		</linearGradient>
		<path id="path3435"  fill="url(#path3435_1_)" d="M916.6,208.6c1.6-4.9,2-11.9-5.7-13.3l-6.3,3.5
			L916.6,208.6z"/>
		<path id="path3437"  fill="#9E1D20" d="M876.3,228c0.2,8.1,6.1,8.2,8.6,8.3l-5.7-13.4L876.3,228z
			"/>
		
			<radialGradient id="path3448_1_" cx="906.2673" cy="-833.4786" r="10.496" gradientTransform="matrix(1 0 0 -1 0 -621.793)" gradientUnits="userSpaceOnUse">
			<stop  offset="0" style="stop-color:#A71E22"/>
			<stop  offset="0" style="stop-color:#A71E22"/>
			<stop  offset="0.99" style="stop-color:#7E1416"/>
			<stop  offset="1" style="stop-color:#7E1416"/>
		</radialGradient>
		<path id="path3448"  fill="url(#path3448_1_)" d="M901.4,209.5c3.7,2.3,11.1,6.8,11.2,6.9
			c0.2,0.1,3.2-5,3.9-7.9C916.5,208.5,901.4,209.5,901.4,209.5z"/>
		
			<radialGradient id="path3459_1_" cx="891.7317" cy="-847.3105" r="13.953" gradientTransform="matrix(1 0 0 -1 0 -621.793)" gradientUnits="userSpaceOnUse">
			<stop  offset="0" style="stop-color:#A21D21"/>
			<stop  offset="0" style="stop-color:#A21D21"/>
			<stop  offset="0.99" style="stop-color:#811517"/>
			<stop  offset="1" style="stop-color:#811517"/>
		</radialGradient>
		<path id="path3459"  fill="url(#path3459_1_)" d="M889.6,220.5l6.4,12.3c3.8-2,6.7-4.5,9.4-7.2
			L889.6,220.5z"/>
		
			<linearGradient id="path3472_1_" gradientUnits="userSpaceOnUse" x1="881.8475" y1="-858.0623" x2="878.3707" y2="-846.2665" gradientTransform="matrix(1 0 0 -1 0 -621.793)">
			<stop  offset="0" style="stop-color:#8C231C"/>
			<stop  offset="0" style="stop-color:#8C231C"/>
			<stop  offset="0.43" style="stop-color:#9E1D20"/>
			<stop  offset="0.99" style="stop-color:#B22024"/>
			<stop  offset="1" style="stop-color:#B22024"/>
		</linearGradient>
		<path id="path3472"  fill="url(#path3472_1_)" d="M879.1,222.9l-0.9,10.7c1.7,2.3,4,2.5,6.5,2.3
			C882.9,231.6,879.3,222.7,879.1,222.9z"/>
		
			<linearGradient id="path3485_1_" gradientUnits="userSpaceOnUse" x1="908.5203" y1="-818.974" x2="916.3151" y2="-822.4147" gradientTransform="matrix(1 0 0 -1 0 -621.793)">
			<stop  offset="0" style="stop-color:#B21F24"/>
			<stop  offset="0" style="stop-color:#B21F24"/>
			<stop  offset="0.44" style="stop-color:#911A1D"/>
			<stop  offset="0.99" style="stop-color:#791E15"/>
			<stop  offset="1" style="stop-color:#791E15"/>
		</linearGradient>
		<path id="path3485"  fill="url(#path3485_1_)" d="M904.6,198.8l12.7,1.8
			c-0.7-2.9-2.7-4.7-6.3-5.3L904.6,198.8z"/>
	</g>
	<g>
		<rect x="876.3" y="45.2" fill="#F6DF1B" width="45.3" height="45.3"/>
		<path fill="#010101" d="M906.7,80.6c0.9,1.5,2.1,2.6,4.2,2.6c1.8,0,2.9-0.9,2.9-2.1c0-1.5-1.2-2-3.1-2.8l-1.1-0.5
			c-3.1-1.3-5.1-2.9-5.1-6.4c0-3.2,2.4-5.6,6.2-5.6c2.7,0,4.7,0.9,6.1,3.4l-3.3,2.1c-0.7-1.3-1.5-1.8-2.7-1.8c-1.2,0-2,0.8-2,1.8
			c0,1.3,0.8,1.8,2.6,2.6l1.1,0.5c3.6,1.6,5.7,3.1,5.7,6.7c0,3.8-3,5.9-7.1,5.9c-4,0-6.5-1.9-7.8-4.4L906.7,80.6z M891.7,80.9
			c0.7,1.2,1.3,2.2,2.7,2.2c1.4,0,2.3-0.5,2.3-2.7V66h4.3v14.5c0,4.4-2.6,6.4-6.4,6.4c-3.4,0-5.4-1.8-6.4-3.9L891.7,80.9z"/>
	</g>
	<g>
		<path id="path46" fill="#656565" d="M921.6,286.6c0-3.7-1-5.6-3.1-5.7c-0.8,0-1.7,0.1-2.4,0.4c-0.6,0.2-1.1,0.5-1.3,0.7v8.8
			c1.3,0.8,2.5,1.2,3.6,1.2C920.5,291.8,921.6,290,921.6,286.6z M924.1,286.8c0,1.9-0.4,3.4-1.3,4.7c-1,1.4-2.3,2.1-4.1,2.2
			c-1.3,0-2.7-0.4-4.1-1.2v8l-2.3-0.8v-17.7c0.4-0.5,0.8-0.8,1.4-1.2c1.3-0.8,3-1.2,4.9-1.2l0,0c1.8,0,3.1,0.7,4.1,2.2
			C923.7,283,924.1,284.7,924.1,286.8z"/>
		<path id="path48" fill="#656565" d="M937.9,292c0,2.5-0.3,4.2-0.8,5.2c-0.5,1-1.5,1.7-2.9,2.3c-1.2,0.5-2.4,0.7-3.7,0.7l-0.4-1.4
			c1.4-0.2,2.3-0.4,2.9-0.6c1.1-0.4,1.8-0.9,2.3-1.7c0.3-0.6,0.5-1.8,0.5-3.5v-0.6c-1.5,0.7-3.2,1-4.8,1c-1.1,0-2.1-0.3-2.9-1
			c-0.9-0.8-1.4-1.7-1.4-2.9v-9.4l2.3-0.8v9.4c0,1,0.3,1.8,1,2.3c0.7,0.5,1.5,0.8,2.5,0.8c1,0,2.1-0.4,3.3-1.2v-11h2.3V292z"/>
		<path id="path50" fill="#656565" d="M946.7,293.5c-0.3,0-0.5,0-0.7,0c-1.3,0-2.3-0.3-3-0.9c-0.7-0.6-1.1-1.4-1.1-2.5v-8.9h-1.5
			v-1.4h1.5V276l2.3-0.8v4.6h2.5v1.4h-2.5v8.8c0,0.8,0.2,1.4,0.7,1.8c0.4,0.3,1,0.5,1.9,0.5V293.5z"/>
		<path id="path52" fill="#656565" d="M960.3,293.3h-2.3v-8.7c0-0.9-0.2-1.6-0.6-2.3c-0.5-0.7-1.1-1.1-2-1.1c-1,0-2.3,0.5-3.9,1.6
			v10.4h-2.3v-20.8l2.3-0.7v9.5c1.4-1,3-1.6,4.7-1.6c1.2,0,2.2,0.4,2.9,1.2c0.7,0.8,1.1,1.8,1.1,3V293.3L960.3,293.3z"/>
		<path id="path54" fill="#656565" d="M972.3,286.3c0-1.4-0.3-2.6-0.8-3.5c-0.6-1.1-1.6-1.7-3-1.8c-2.5,0.1-3.7,1.9-3.7,5.3
			c0,1.6,0.3,2.9,0.8,3.9c0.7,1.3,1.7,2,3,2C971.1,292.1,972.3,290.2,972.3,286.3z M974.8,286.3c0,2-0.5,3.7-1.5,5
			c-1.1,1.5-2.7,2.3-4.7,2.3c-2,0-3.5-0.8-4.6-2.3c-1-1.3-1.5-3-1.5-5c0-1.9,0.5-3.5,1.6-4.8c1.2-1.4,2.7-2.1,4.5-2.1
			s3.4,0.7,4.6,2.1C974.2,282.8,974.8,284.4,974.8,286.3z"/>
		<path id="path56" fill="#656565" d="M987.7,293.3h-2.3v-9.2c0-1-0.3-1.8-0.9-2.4c-0.6-0.6-1.4-0.8-2.4-0.8c-1.1,0-2.1,0.4-3.1,1
			v11.3h-2.3v-11.6c1.3-0.9,2.5-1.6,3.6-1.8c1-0.3,1.9-0.4,2.7-0.4c0.5,0,1,0.1,1.5,0.2c0.9,0.2,1.6,0.6,2.2,1.1
			c0.6,0.6,0.9,1.4,0.9,2.2V293.3z"/>
		
			<linearGradient id="path1948_1_" gradientUnits="userSpaceOnUse" x1="2293.3191" y1="-1650.1659" x2="2320.8823" y2="-1673.8805" gradientTransform="matrix(0.5625 0 0 -0.568 -414.4868 -663.8654)">
			<stop  offset="0" style="stop-color:#5C9FD3"/>
			<stop  offset="1" style="stop-color:#316A99"/>
		</linearGradient>
		<path id="path1948" fill="url(#path1948_1_)" d="M890.2,272.6c-1.2,0-2.3,0.1-3.2,0.3c-2.9,0.5-3.4,1.6-3.4,3.5v2.6h6.8v0.9h-6.8
			H881c-2,0-3.7,1.2-4.2,3.4c-0.6,2.6-0.7,4.2,0,6.9c0.5,2,1.6,3.4,3.6,3.4h2.3v-3.1c0-2.2,1.9-4.2,4.2-4.2h6.8
			c1.9,0,3.4-1.6,3.4-3.4v-6.5c0-1.8-1.5-3.2-3.4-3.5C892.5,272.7,891.3,272.6,890.2,272.6z M886.5,274.7c0.7,0,1.3,0.6,1.3,1.3
			c0,0.7-0.6,1.3-1.3,1.3c-0.7,0-1.3-0.6-1.3-1.3C885.2,275.2,885.8,274.7,886.5,274.7z"/>
		
			<linearGradient id="path1950_1_" gradientUnits="userSpaceOnUse" x1="2331.5386" y1="-1688.2335" x2="2321.6958" y2="-1674.3076" gradientTransform="matrix(0.5625 0 0 -0.568 -414.4868 -663.8654)">
			<stop  offset="0" style="stop-color:#FFD43D"/>
			<stop  offset="1" style="stop-color:#FEE875"/>
		</linearGradient>
		<path id="path1950" fill="url(#path1950_1_)" d="M897.9,279.8v3c0,2.3-2,4.3-4.2,4.3h-6.8c-1.9,0-3.4,1.6-3.4,3.4v6.5
			c0,1.8,1.6,2.9,3.4,3.4c2.1,0.6,4.2,0.7,6.8,0c1.7-0.5,3.4-1.5,3.4-3.4v-2.6h-6.8v-0.9h6.8h3.4c2,0,2.7-1.4,3.4-3.4
			c0.7-2.1,0.7-4.2,0-6.9c-0.5-2-1.4-3.4-3.4-3.4H897.9z M894.1,296.2c0.7,0,1.3,0.6,1.3,1.3c0,0.7-0.6,1.3-1.3,1.3
			c-0.7,0-1.3-0.6-1.3-1.3C892.9,296.7,893.4,296.2,894.1,296.2z"/>
		<path id="text3004" fill="#656565" d="M992.1,277.8h0.4v-2.5h0.9V275h-2.3v0.3h0.9
			V277.8 M993.8,277.8h0.3v-2.3l0.7,2.3h0.4l0.8-2.3v2.3h0.4V275h-0.5l-0.8,2.4l-0.7-2.4h-0.5V277.8"/>
		
			<radialGradient id="path1894_1_" cx="-4522.2021" cy="-1711.2065" r="7.3416" gradientTransform="matrix(1.749057e-008 -0.2399 -1.0547 -3.791546e-007 -914.3535 -780.2283)" gradientUnits="userSpaceOnUse">
			<stop  offset="0" style="stop-color:#B9B9B9;stop-opacity:0.498"/>
			<stop  offset="1" style="stop-color:#808080;stop-opacity:0"/>
		</radialGradient>
		
			<path id="path1894" opacity="0.4438" fill="url(#path1894_1_)" enable-background="new    " d="
			M899.5,304.9c0,1-4.1,1.8-9.1,1.8s-9.1-0.8-9.1-1.8s4.1-1.8,9.1-1.8S899.5,303.9,899.5,304.9z"/>
	</g>
	<g>
		<g>
			
				<line fill="none" stroke="#FAAE24" stroke-width="4" stroke-linecap="round" stroke-miterlimit="10" x1="680.1" y1="289.2" x2="845.6" y2="289.2"/>
			<g>
				<polygon fill="#FAAE24" points="842.7,299.2 860,289.2 842.7,279.2 				"/>
			</g>
		</g>
	</g>
	<g>
		<g>
			
				<line fill="none" stroke="#FAAE24" stroke-width="4" stroke-linecap="round" stroke-miterlimit="10" x1="735.7" y1="215.7" x2="845.6" y2="215.7"/>
			<g>
				<polygon fill="#FAAE24" points="842.7,225.7 860,215.7 842.7,205.8 				"/>
			</g>
		</g>
	</g>
	<g>
		<g>
			
				<line fill="none" stroke="#FAAE24" stroke-width="4" stroke-linecap="round" stroke-miterlimit="10" x1="733.7" y1="132.6" x2="845.6" y2="132.6"/>
			<g>
				<polygon fill="#FAAE24" points="842.7,142.5 860,132.6 842.7,122.6 				"/>
			</g>
		</g>
	</g>
	<g>
		<g>
			
				<line fill="none" stroke="#FAAE24" stroke-width="4" stroke-linecap="round" stroke-miterlimit="10" x1="685.5" y1="67.8" x2="845.6" y2="67.8"/>
			<g>
				<polygon fill="#FAAE24" points="842.7,77.8 860,67.8 842.7,57.9 				"/>
			</g>
		</g>
	</g>
</g>
<g id="Layer_4">
	<g>
		<line fill="#FAAE24" x1="339.5" y1="107.6" x2="275.6" y2="107.6"/>
		<g>
			
				<line fill="none" stroke="#FAAE24" stroke-width="7" stroke-linecap="round" stroke-miterlimit="10" x1="339.5" y1="107.6" x2="300.7" y2="107.6"/>
			<g>
				<polygon fill="#FAAE24" points="305.8,90.1 275.6,107.6 305.8,125 				"/>
			</g>
		</g>
	</g>
	<g>
		<line fill="#FAAE24" x1="188.7" y1="107.3" x2="124.8" y2="107.3"/>
		<g>
			
				<line fill="none" stroke="#FAAE24" stroke-width="7" stroke-linecap="round" stroke-miterlimit="10" x1="188.7" y1="107.3" x2="149.9" y2="107.3"/>
			<g>
				<polygon fill="#FAAE24" points="155,89.8 124.8,107.3 155,124.8 				"/>
			</g>
		</g>
	</g>
</g>
<g id="Layer_5">
	<g>
		<path fill="#FAAE24" d="M385.3,237.8h-25.2c-4.4,0-7.9-3.5-7.9-7.9V48.3c0-4.4,3.5-7.9,7.9-7.9h25.2c4.4,0,7.9,3.5,7.9,7.9v181.6
			C393.2,234.2,389.6,237.8,385.3,237.8z"/>
		<g>
			<path fill="#FFFFFF" d="M360.9,188.1c0-4.9,2.5-7.2,2.5-7.2l2.1,1.6c0,0-2,2.2-2,5.5c0,4,3.2,7.3,7.8,7.3c4.7,0,7.9-3.2,7.9-7.3
				c0-3.6-2.5-5.8-2.5-5.8h-2c-0.4,0-0.6,0.2-0.6,0.6v1.2h-2.5v-2.7c0-1.3,0.5-1.8,1.8-1.8h8.2v2.5h-1.3c-0.4,0-0.9,0-0.9,0v0.1
				c0,0,2.5,2.3,2.5,6.3c0,5.4-4.2,9.9-10.6,9.9C365.4,198.3,360.9,193.9,360.9,188.1z"/>
			<path fill="#FFFFFF" d="M370,175.5c-0.4,0-0.6,0.2-0.6,0.6v1.2h-2.4v-2.6c0-1.3,0.5-1.9,1.7-1.9h0.9c0.6,0,1,0.1,1,0.1v-0.1
				c-2.1-0.7-3.8-2.4-3.8-4.6c0-0.4,0.1-0.7,0.1-0.7h2.8c0,0-0.1,0.4-0.1,0.8c0,1.8,1.3,3.4,3.4,4.1c0.8,0.3,1.7,0.3,2.6,0.3h5.9
				v2.8H370z"/>
			<path fill="#FFFFFF" d="M372.4,157.9v-0.6h-0.1c-2.6,0-3.5,0.9-3.5,3.2c0,0.7,0.2,2.4,1.1,2.4h0.8v2.6h-1.4c-2.4,0-2.7-3.6-2.7-5
				c0-4.7,2.5-6,5.7-6h6.2c0.4,0,0.6-0.2,0.6-0.6v-1.2h2.4v2.6c0,1.3-0.6,1.8-1.7,1.8c-0.5,0-0.9-0.1-0.9-0.1v0.1
				c0,0,2.9,1.1,2.9,4.6c0,2.5-1.5,4.9-4.4,4.9C372.7,166.6,372.4,160.3,372.4,157.9z M379.6,161.1c0-2.4-2.5-3.9-4.6-3.9h-0.5v0.7
				c0,2.1,0.1,5.9,2.8,5.9C378.4,163.8,379.6,162.9,379.6,161.1z"/>
			<path fill="#FFFFFF" d="M370,149.6c-0.4,0-0.6,0.2-0.6,0.6v1.2h-2.4v-2.6c0-1.3,0.5-1.8,1.5-1.8c0.4,0,0.8,0,0.8,0V147
				c0,0-2.6-1.2-2.6-4.8c0-3.9,3.1-6.4,7.6-6.4c4.6,0,7.6,2.8,7.6,6.6c0,3.2-2.3,4.4-2.3,4.4v0.1c0,0,0.5-0.1,1.3-0.1h6.5v2.8H370z
				 M379.4,142.8c0-2.3-1.9-4.2-5.2-4.2c-3.2,0-5.2,1.7-5.2,4.1c0,2.2,1.5,4.2,5.2,4.2C376.8,146.9,379.4,145.5,379.4,142.8z"/>
			<path fill="#FFFFFF" d="M364.2,132.7c-0.4,0-0.6,0.2-0.6,0.6v1.2h-2.4v-2.8c0-1.3,0.5-1.8,1.8-1.8h5.7c0.7,0,1.2,0.1,1.2,0.1
				v-0.1c-1.4-0.6-3.2-2.5-3.2-5.4c0-3.4,1.9-5,5.6-5h6.3c0.4,0,0.6-0.2,0.6-0.6v-1.2h2.4v2.7c0,1.3-0.5,1.8-1.8,1.8h-6.8
				c-2,0-3.6,0.4-3.6,2.8c0,2.2,1.5,4,3.6,4.6c0.6,0.2,1.2,0.3,1.9,0.3h6.8v2.8H364.2z"/>
			<path fill="#FFFFFF" d="M360.9,105.8c0-5.9,4.5-10.4,10.4-10.4c2.5,0,4.9,0.9,6.7,2.4l2.3-2.3l1.8,1.7l-2.3,2.3
				c1.4,1.8,2.2,4,2.2,6.3c0,5.9-4.7,10.4-10.6,10.4C365.4,116.2,360.9,111.7,360.9,105.8z M379.1,105.8c0-2.7-1.4-4.3-1.4-4.3
				l-2.2,2.2l-1.9-1.7l2.3-2.2c-1.3-0.9-3-1.5-4.7-1.5c-4.4,0-7.7,3.3-7.7,7.5c0,4.1,3.3,7.4,7.7,7.4
				C375.7,113.2,379.1,109.9,379.1,105.8z"/>
			<path fill="#FFFFFF" d="M364.3,91.4c-0.4,0-0.6,0.2-0.6,0.6v1.2h-2.5v-2.9c0-1.3,0.5-1.8,1.8-1.8h15.3c0.4,0,0.6-0.2,0.6-0.6
				v-5.6c0-0.4-0.2-0.6-0.6-0.6h-1.3v-2.6h2.6c1.3,0,1.8,0.5,1.8,1.8v8.7c0,1.3-0.5,1.8-1.8,1.8H364.3z"/>
		</g>
	</g>
	<g>
		<path fill="#F8E2D2" d="M257.3,130.6h-47.7c-4.4,0-7.9-3.5-7.9-7.9V88.1c0-4.4,3.5-7.9,7.9-7.9h47.7c4.4,0,7.9,3.5,7.9,7.9v34.6
			C265.3,127.1,261.7,130.6,257.3,130.6z"/>
		<g>
			<path fill="#F8E2D2" d="M193.5,60.2c-0.1-0.4-0.4-0.5-0.7-0.5h-0.3v-1.9h1.2c1.1,0,1.5,0.2,1.8,1.3l3.4,9.6
				c0.3,0.8,0.6,2.1,0.6,2.1h0c0,0,0.3-1.3,0.6-2.1l3.4-9.6c0.4-1,0.7-1.3,1.8-1.3h1.2v1.9h-0.3c-0.4,0-0.6,0.1-0.7,0.5l-4.9,13.1
				h-2.3L193.5,60.2z"/>
			<path fill="#F8E2D2" d="M213.4,66.4h0.5v-0.1c0-2-0.7-2.7-2.5-2.7c-0.5,0-1.8,0.1-1.8,0.9v0.6h-2V64c0-1.8,2.8-2.1,3.8-2.1
				c3.6,0,4.6,1.9,4.6,4.4V71c0,0.3,0.2,0.5,0.5,0.5h0.9v1.8h-2c-1,0-1.4-0.5-1.4-1.3c0-0.4,0-0.7,0-0.7h0c0,0-0.9,2.2-3.5,2.2
				c-1.9,0-3.8-1.2-3.8-3.4C206.7,66.6,211.6,66.4,213.4,66.4z M211,71.9c1.8,0,3-1.9,3-3.5V68h-0.5c-1.6,0-4.5,0.1-4.5,2.1
				C208.9,71,209.6,71.9,211,71.9z"/>
			<path fill="#F8E2D2" d="M219.7,60.1c0-0.3-0.2-0.5-0.5-0.5h-0.9v-1.8h2.1c1,0,1.4,0.4,1.4,1.4V71c0,0.3,0.2,0.5,0.5,0.5h0.9v1.8
				h-2.1c-1,0-1.4-0.4-1.4-1.4V60.1z"/>
			<path fill="#F8E2D2" d="M225.7,64.5c0-0.3-0.2-0.5-0.5-0.5h-0.9v-1.8h2.1c1,0,1.4,0.4,1.4,1.4V71c0,0.3,0.2,0.5,0.5,0.5h0.9v1.8
				h-2.1c-1,0-1.4-0.4-1.4-1.4V64.5z M225.8,57.8h1.9V60h-1.9V57.8z"/>
			<path fill="#F8E2D2" d="M235.7,61.9c2.6,0,3.4,1.7,3.4,1.7h0c0,0,0-0.3,0-0.7v-2.8c0-0.3-0.2-0.5-0.5-0.5h-0.9v-1.8h2.1
				c1,0,1.4,0.4,1.4,1.4V71c0,0.3,0.2,0.5,0.5,0.5h0.9v1.8h-2c-1,0-1.4-0.4-1.4-1.2c0-0.3,0-0.6,0-0.6h0c0,0-0.9,2-3.7,2
				c-3,0-4.9-2.4-4.9-5.8C230.6,64.2,232.7,61.9,235.7,61.9z M239.2,67.7c0-2-1-4-3.2-4c-1.7,0-3.2,1.5-3.2,4c0,2.4,1.3,4,3.1,4
				C237.6,71.8,239.2,70.6,239.2,67.7z"/>
			<path fill="#F8E2D2" d="M250.6,66.4h0.5v-0.1c0-2-0.7-2.7-2.5-2.7c-0.5,0-1.8,0.1-1.8,0.9v0.6h-2V64c0-1.8,2.8-2.1,3.8-2.1
				c3.6,0,4.6,1.9,4.6,4.4V71c0,0.3,0.2,0.5,0.5,0.5h0.9v1.8h-2c-1,0-1.4-0.5-1.4-1.3c0-0.4,0-0.7,0-0.7h0c0,0-0.9,2.2-3.5,2.2
				c-1.9,0-3.8-1.2-3.8-3.4C243.9,66.6,248.8,66.4,250.6,66.4z M248.2,71.9c1.8,0,3-1.9,3-3.5V68h-0.5c-1.6,0-4.5,0.1-4.5,2.1
				C246.1,71,246.8,71.9,248.2,71.9z"/>
			<path fill="#F8E2D2" d="M257,63.9h-1.5v-1.7h1.5v-3.1h2.1v3.1h2.7v1.7h-2.7V69c0,2.2,1.5,2.5,2.4,2.5c0.3,0,0.5,0,0.5,0v1.9
				c0,0-0.3,0-0.7,0c-1.4,0-4.2-0.4-4.2-4.2V63.9z"/>
			<path fill="#F8E2D2" d="M269,61.9c3.1,0,4.8,2.3,4.8,5.2c0,0.3-0.1,0.9-0.1,0.9h-8.1c0.1,2.4,1.8,3.7,3.8,3.7
				c1.9,0,3.3-1.3,3.3-1.3l0.9,1.5c0,0-1.6,1.6-4.3,1.6c-3.5,0-5.9-2.5-5.9-5.8C263.4,64.2,265.8,61.9,269,61.9z M271.6,66.5
				c-0.1-1.8-1.2-2.8-2.6-2.8c-1.6,0-2.9,1-3.3,2.8H271.6z"/>
		</g>
	</g>
	<g>
		<path fill="#F8E2D2" d="M109.4,130.6H61.8c-4.4,0-7.9-3.5-7.9-7.9V88.1c0-4.4,3.5-7.9,7.9-7.9h47.7c4.4,0,7.9,3.5,7.9,7.9v34.6
			C117.4,127.1,113.8,130.6,109.4,130.6z"/>
		<g>
			<path fill="#F8E2D2" d="M47.6,59.7h-1.4v-1.9h9.1c1,0,1.4,0.4,1.4,1.4v2h-2v-1c0-0.3-0.2-0.5-0.5-0.5h-4.4v4.9h5.4v1.9h-5.4V71
				c0,0.3,0.2,0.5,0.5,0.5h4.5c0.3,0,0.5-0.2,0.5-0.5v-1h2v2c0,1-0.4,1.4-1.4,1.4H49c-1,0-1.4-0.4-1.4-1.4V59.7z"/>
			<path fill="#F8E2D2" d="M61.9,67.6l-2.1-3.2c-0.2-0.4-0.5-0.4-0.9-0.4h-0.6v-1.8h1.4c1,0,1.3,0.2,1.9,1.1l1.4,2.2
				c0.2,0.3,0.4,0.7,0.4,0.7h0c0,0,0.2-0.4,0.4-0.7l1.3-2.2c0.6-0.9,0.9-1.1,1.9-1.1h1.4V64h-0.6c-0.4,0-0.7,0.1-0.9,0.4l-2.1,3.2
				l3.8,5.7h-2.4l-2.4-3.6c-0.2-0.3-0.3-0.6-0.3-0.6h0c0,0-0.2,0.3-0.4,0.6l-2.3,3.6h-2.4L61.9,67.6z"/>
			<path fill="#F8E2D2" d="M75.1,61.9c3.1,0,4.8,2.3,4.8,5.2c0,0.3-0.1,0.9-0.1,0.9h-8.1c0.1,2.4,1.8,3.7,3.8,3.7
				c1.9,0,3.3-1.3,3.3-1.3l0.9,1.5c0,0-1.6,1.6-4.3,1.6c-3.5,0-5.9-2.5-5.9-5.8C69.5,64.2,71.9,61.9,75.1,61.9z M77.6,66.5
				c-0.1-1.8-1.2-2.8-2.6-2.8c-1.6,0-2.9,1-3.3,2.8H77.6z"/>
			<path fill="#F8E2D2" d="M87.6,61.9c1.3,0,4,0.5,4,2.4v1.1h-1.9v-0.6c0-0.8-1.3-1.1-2.1-1.1c-2.2,0-3.8,1.6-3.8,4
				c0,2.5,1.8,4,3.9,4c2.1,0,3.5-1.5,3.5-1.5l0.9,1.5c0,0-1.6,1.9-4.5,1.9c-3.5,0-5.9-2.5-5.9-5.8C81.6,64.5,84,61.9,87.6,61.9z"/>
			<path fill="#F8E2D2" d="M94.4,64.5c0-0.3-0.2-0.5-0.5-0.5H93v-1.8h2.1c1,0,1.4,0.4,1.4,1.4v5.3c0,1.5,0.3,2.8,2.1,2.8
				c2.3,0,3.6-2,3.6-4.2v-5.2h2.1V71c0,0.3,0.2,0.5,0.5,0.5h0.9v1.8h-2c-0.9,0-1.4-0.4-1.4-1.2v-0.4c0-0.4,0-0.6,0-0.6h0
				c-0.5,1.1-1.9,2.6-4.1,2.6c-2.5,0-3.8-1.3-3.8-4.3V64.5z"/>
			<path fill="#F8E2D2" d="M108.2,63.9h-1.5v-1.7h1.5v-3.1h2.1v3.1h2.7v1.7h-2.7V69c0,2.2,1.5,2.5,2.4,2.5c0.3,0,0.5,0,0.5,0v1.9
				c0,0-0.3,0-0.7,0c-1.4,0-4.2-0.4-4.2-4.2V63.9z"/>
			<path fill="#F8E2D2" d="M120.1,61.9c3.1,0,4.8,2.3,4.8,5.2c0,0.3-0.1,0.9-0.1,0.9h-8.1c0.1,2.4,1.8,3.7,3.8,3.7
				c1.9,0,3.3-1.3,3.3-1.3l0.9,1.5c0,0-1.6,1.6-4.3,1.6c-3.5,0-5.9-2.5-5.9-5.8C114.5,64.2,117,61.9,120.1,61.9z M122.7,66.5
				c-0.1-1.8-1.2-2.8-2.6-2.8c-1.6,0-2.9,1-3.3,2.8H122.7z"/>
		</g>
	</g>
</g>
<g id="Layer_6">
</g>
<g id="Layer_7">
</g>
</svg>
