<?xml version="1.0" encoding="utf-8"?>
<!-- Generator: Adobe Illustrator 19.2.0, SVG Export Plug-In . SVG Version: 6.00 Build 0)  -->
<!DOCTYPE svg PUBLIC "-//W3C//DTD SVG 1.1//EN" "http://www.w3.org/Graphics/SVG/1.1/DTD/svg11.dtd">
<svg version="1.1" xmlns="http://www.w3.org/2000/svg" xmlns:xlink="http://www.w3.org/1999/xlink" x="0px" y="0px"
	 viewBox="0 0 654.4 272" enable-background="new 0 0 654.4 272" xml:space="preserve">
<g id="Layer_8">
	<path fill="#DC7676" d="M280.2-138.7H-55.1c-6.1,0-11.1-5-11.1-11.1v-215.7c0-6.1,5-11.1,11.1-11.1h335.3c6.1,0,11.1,5,11.1,11.1
		v215.7C291.3-143.7,286.3-138.7,280.2-138.7z"/>
	<g>
		<g>
			<path fill="none" stroke="#FAAE24" stroke-width="7" stroke-linecap="round" stroke-miterlimit="10" d="M0-252.3v30.3
				c0,8.1,6.6,14.7,14.7,14.7h217.8"/>
			<g>
				<polygon fill="#FAAE24" points="227.3,-189.9 257.6,-207.3 227.3,-224.8 				"/>
			</g>
		</g>
	</g>
</g>
<g id="Layer_9">
	<path fill="#DC7676" d="M615.7,256.6H26.2c-6.1,0-11.1-5-11.1-11.1V29.7c0-6.1,5-11.1,11.1-11.1h589.5c6.1,0,11.1,5,11.1,11.1
		v215.7C626.8,251.6,621.8,256.6,615.7,256.6z"/>
	<g>
		<g>
			<path fill="none" stroke="#FAAE24" stroke-width="7" stroke-linecap="round" stroke-miterlimit="10" d="M141.5,162.9v18.3
				c0,8.1,6.6,14.7,14.7,14.7H568"/>
			<g>
				<polygon fill="#FAAE24" points="562.8,213.4 593.1,195.9 562.8,178.5 				"/>
			</g>
		</g>
	</g>
	<g>
		<line fill="#FAAE24" x1="589.4" y1="106.4" x2="525.5" y2="106.4"/>
		<g>
			
				<line fill="none" stroke="#FAAE24" stroke-width="7" stroke-linecap="round" stroke-miterlimit="10" x1="589.4" y1="106.4" x2="550.6" y2="106.4"/>
			<g>
				<polygon fill="#FAAE24" points="555.7,88.9 525.5,106.4 555.7,123.8 				"/>
			</g>
		</g>
	</g>
	<g>
		<line fill="#FAAE24" x1="438.6" y1="106.1" x2="374.7" y2="106.1"/>
		<g>
			
				<line fill="none" stroke="#FAAE24" stroke-width="7" stroke-linecap="round" stroke-miterlimit="10" x1="438.6" y1="106.1" x2="399.8" y2="106.1"/>
			<g>
				<polygon fill="#FAAE24" points="404.9,88.6 374.7,106.1 404.9,123.6 				"/>
			</g>
		</g>
	</g>
	<g>
		<path fill="#FAAE24" d="M635.2,236.6H610c-4.4,0-7.9-3.5-7.9-7.9V47.1c0-4.4,3.5-7.9,7.9-7.9h25.2c4.4,0,7.9,3.5,7.9,7.9v181.6
			C643.1,233,639.5,236.6,635.2,236.6z"/>
		<g>
			<path fill="#FFFFFF" d="M610.8,186.9c0-4.9,2.5-7.2,2.5-7.2l2.1,1.6c0,0-2,2.2-2,5.5c0,4,3.2,7.3,7.8,7.3c4.7,0,7.9-3.2,7.9-7.3
				c0-3.6-2.5-5.8-2.5-5.8h-2c-0.4,0-0.6,0.2-0.6,0.6v1.2h-2.5v-2.7c0-1.3,0.5-1.8,1.8-1.8h8.2v2.5h-1.3c-0.4,0-0.9,0-0.9,0v0.1
				c0,0,2.5,2.3,2.5,6.3c0,5.4-4.2,9.9-10.6,9.9C615.3,197.1,610.8,192.7,610.8,186.9z"/>
			<path fill="#FFFFFF" d="M619.9,174.3c-0.4,0-0.6,0.2-0.6,0.6v1.2h-2.4v-2.6c0-1.3,0.5-1.9,1.7-1.9h0.9c0.6,0,1,0.1,1,0.1v-0.1
				c-2.1-0.7-3.8-2.4-3.8-4.6c0-0.4,0.1-0.7,0.1-0.7h2.8c0,0-0.1,0.4-0.1,0.8c0,1.8,1.3,3.4,3.4,4.1c0.8,0.3,1.7,0.3,2.6,0.3h5.9
				v2.8H619.9z"/>
			<path fill="#FFFFFF" d="M622.3,156.7V156h-0.1c-2.6,0-3.5,0.9-3.5,3.2c0,0.7,0.2,2.4,1.1,2.4h0.8v2.6h-1.4c-2.4,0-2.7-3.6-2.7-5
				c0-4.7,2.5-6,5.7-6h6.2c0.4,0,0.6-0.2,0.6-0.6v-1.2h2.4v2.6c0,1.3-0.6,1.8-1.7,1.8c-0.5,0-0.9-0.1-0.9-0.1v0.1
				c0,0,2.9,1.1,2.9,4.6c0,2.5-1.5,4.9-4.4,4.9C622.6,165.4,622.3,159.1,622.3,156.7z M629.5,159.9c0-2.4-2.5-3.9-4.6-3.9h-0.5v0.7
				c0,2.1,0.1,5.9,2.8,5.9C628.3,162.6,629.5,161.7,629.5,159.9z"/>
			<path fill="#FFFFFF" d="M619.9,148.4c-0.4,0-0.6,0.2-0.6,0.6v1.2h-2.4v-2.6c0-1.3,0.5-1.8,1.5-1.8c0.4,0,0.8,0,0.8,0v-0.1
				c0,0-2.6-1.2-2.6-4.8c0-3.9,3.1-6.4,7.6-6.4c4.6,0,7.6,2.8,7.6,6.6c0,3.2-2.3,4.4-2.3,4.4v0.1c0,0,0.5-0.1,1.3-0.1h6.5v2.8H619.9
				z M629.3,141.6c0-2.3-1.9-4.2-5.2-4.2c-3.2,0-5.2,1.7-5.2,4.1c0,2.2,1.5,4.2,5.2,4.2C626.7,145.7,629.3,144.3,629.3,141.6z"/>
			<path fill="#FFFFFF" d="M614.1,131.5c-0.4,0-0.6,0.2-0.6,0.6v1.2h-2.4v-2.8c0-1.3,0.5-1.8,1.8-1.8h5.7c0.7,0,1.2,0.1,1.2,0.1
				v-0.1c-1.4-0.6-3.2-2.5-3.2-5.4c0-3.4,1.9-5,5.6-5h6.3c0.4,0,0.6-0.2,0.6-0.6v-1.2h2.4v2.7c0,1.3-0.5,1.8-1.8,1.8h-6.8
				c-2,0-3.6,0.4-3.6,2.8c0,2.2,1.5,4,3.6,4.6c0.6,0.2,1.2,0.3,1.9,0.3h6.8v2.8H614.1z"/>
			<path fill="#FFFFFF" d="M610.8,104.6c0-5.9,4.5-10.4,10.4-10.4c2.5,0,4.9,0.9,6.7,2.4l2.3-2.3l1.8,1.7l-2.3,2.3
				c1.4,1.8,2.2,4,2.2,6.3c0,5.9-4.7,10.4-10.6,10.4C615.3,115,610.8,110.5,610.8,104.6z M629,104.6c0-2.7-1.4-4.3-1.4-4.3l-2.2,2.2
				l-1.9-1.7l2.3-2.2c-1.3-0.9-3-1.5-4.7-1.5c-4.4,0-7.7,3.3-7.7,7.5c0,4.1,3.3,7.4,7.7,7.4C625.6,112,629,108.7,629,104.6z"/>
			<path fill="#FFFFFF" d="M614.2,90.2c-0.4,0-0.6,0.2-0.6,0.6v1.2h-2.5v-2.9c0-1.3,0.5-1.8,1.8-1.8h15.3c0.4,0,0.6-0.2,0.6-0.6
				v-5.6c0-0.4-0.2-0.6-0.6-0.6H627v-2.6h2.6c1.3,0,1.8,0.5,1.8,1.8v8.7c0,1.3-0.5,1.8-1.8,1.8H614.2z"/>
		</g>
	</g>
	<g opacity="0.5">
		<path fill="#F8E2D2" d="M507.2,129.4h-47.7c-4.4,0-7.9-3.5-7.9-7.9V86.9c0-4.4,3.5-7.9,7.9-7.9h47.7c4.4,0,7.9,3.5,7.9,7.9v34.6
			C515.2,125.9,511.6,129.4,507.2,129.4z"/>
		<g>
			<path fill="#F8E2D2" d="M443.4,59c-0.1-0.4-0.4-0.5-0.7-0.5h-0.3v-1.9h1.2c1.1,0,1.5,0.2,1.8,1.3l3.4,9.6
				c0.3,0.8,0.6,2.1,0.6,2.1h0c0,0,0.3-1.3,0.6-2.1l3.4-9.6c0.4-1,0.7-1.3,1.8-1.3h1.2v1.9h-0.3c-0.4,0-0.6,0.1-0.7,0.5l-4.9,13.1
				h-2.3L443.4,59z"/>
			<path fill="#F8E2D2" d="M463.3,65.2h0.5v-0.1c0-2-0.7-2.7-2.5-2.7c-0.5,0-1.8,0.1-1.8,0.9v0.6h-2v-1.1c0-1.8,2.8-2.1,3.8-2.1
				c3.6,0,4.6,1.9,4.6,4.4v4.7c0,0.3,0.2,0.5,0.5,0.5h0.9v1.8h-2c-1,0-1.4-0.5-1.4-1.3c0-0.4,0-0.7,0-0.7h0c0,0-0.9,2.2-3.5,2.2
				c-1.9,0-3.8-1.2-3.8-3.4C456.6,65.4,461.5,65.2,463.3,65.2z M460.9,70.7c1.8,0,3-1.9,3-3.5v-0.4h-0.5c-1.6,0-4.5,0.1-4.5,2.1
				C458.8,69.8,459.5,70.7,460.9,70.7z"/>
			<path fill="#F8E2D2" d="M469.6,58.9c0-0.3-0.2-0.5-0.5-0.5h-0.9v-1.8h2.1c1,0,1.4,0.4,1.4,1.4v11.8c0,0.3,0.2,0.5,0.5,0.5h0.9
				v1.8H471c-1,0-1.4-0.4-1.4-1.4V58.9z"/>
			<path fill="#F8E2D2" d="M475.6,63.3c0-0.3-0.2-0.5-0.5-0.5h-0.9V61h2.1c1,0,1.4,0.4,1.4,1.4v7.4c0,0.3,0.2,0.5,0.5,0.5h0.9v1.8
				h-2.1c-1,0-1.4-0.4-1.4-1.4V63.3z M475.7,56.6h1.9v2.2h-1.9V56.6z"/>
			<path fill="#F8E2D2" d="M485.6,60.7c2.6,0,3.4,1.7,3.4,1.7h0c0,0,0-0.3,0-0.7v-2.8c0-0.3-0.2-0.5-0.5-0.5h-0.9v-1.8h2.1
				c1,0,1.4,0.4,1.4,1.4v11.8c0,0.3,0.2,0.5,0.5,0.5h0.9v1.8h-2c-1,0-1.4-0.4-1.4-1.2c0-0.3,0-0.6,0-0.6h0c0,0-0.9,2-3.7,2
				c-3,0-4.9-2.4-4.9-5.8C480.5,63,482.6,60.7,485.6,60.7z M489.1,66.5c0-2-1-4-3.2-4c-1.7,0-3.2,1.5-3.2,4c0,2.4,1.3,4,3.1,4
				C487.5,70.6,489.1,69.4,489.1,66.5z"/>
			<path fill="#F8E2D2" d="M500.5,65.2h0.5v-0.1c0-2-0.7-2.7-2.5-2.7c-0.5,0-1.8,0.1-1.8,0.9v0.6h-2v-1.1c0-1.8,2.8-2.1,3.8-2.1
				c3.6,0,4.6,1.9,4.6,4.4v4.7c0,0.3,0.2,0.5,0.5,0.5h0.9v1.8h-2c-1,0-1.4-0.5-1.4-1.3c0-0.4,0-0.7,0-0.7h0c0,0-0.9,2.2-3.5,2.2
				c-1.9,0-3.8-1.2-3.8-3.4C493.8,65.4,498.7,65.2,500.5,65.2z M498.1,70.7c1.8,0,3-1.9,3-3.5v-0.4h-0.5c-1.6,0-4.5,0.1-4.5,2.1
				C496,69.8,496.7,70.7,498.1,70.7z"/>
			<path fill="#F8E2D2" d="M506.9,62.7h-1.5V61h1.5V58h2.1V61h2.7v1.7h-2.7v5.1c0,2.2,1.5,2.5,2.4,2.5c0.3,0,0.5,0,0.5,0v1.9
				c0,0-0.3,0-0.7,0c-1.4,0-4.2-0.4-4.2-4.2V62.7z"/>
			<path fill="#F8E2D2" d="M518.9,60.7c3.1,0,4.8,2.3,4.8,5.2c0,0.3-0.1,0.9-0.1,0.9h-8.1c0.1,2.4,1.8,3.7,3.8,3.7
				c1.9,0,3.3-1.3,3.3-1.3l0.9,1.5c0,0-1.6,1.6-4.3,1.6c-3.5,0-5.9-2.5-5.9-5.8C513.3,63,515.7,60.7,518.9,60.7z M521.5,65.3
				c-0.1-1.8-1.2-2.8-2.6-2.8c-1.6,0-2.9,1-3.3,2.8H521.5z"/>
		</g>
	</g>
	<g>
		<line fill="#FAAE24" x1="288.6" y1="106.1" x2="182.7" y2="106.1"/>
		<g>
			
				<line fill="none" stroke="#FAAE24" stroke-width="7" stroke-linecap="round" stroke-miterlimit="10" x1="288.6" y1="106.1" x2="207.8" y2="106.1"/>
			<g>
				<polygon fill="#FAAE24" points="212.9,88.6 182.7,106.1 212.9,123.6 				"/>
			</g>
		</g>
	</g>
	<g>
		<path fill="#F8E2D2" d="M357.2,129.4h-47.7c-4.4,0-7.9-3.5-7.9-7.9V86.9c0-4.4,3.5-7.9,7.9-7.9h47.7c4.4,0,7.9,3.5,7.9,7.9v34.6
			C365.2,125.9,361.6,129.4,357.2,129.4z"/>
		<g>
			<path fill="#F8E2D2" d="M293,70.2h0.3c0.4,0,0.6-0.1,0.7-0.5l4.9-13.1h2.3l4.9,13.1c0.1,0.4,0.4,0.5,0.7,0.5h0.3v1.9h-1.2
				c-1.1,0-1.5-0.3-1.8-1.3l-1.2-3.2h-5.7l-1.2,3.2c-0.4,1-0.7,1.3-1.8,1.3H293V70.2z M302.4,65.8l-1.7-4.7
				c-0.3-0.8-0.6-2.2-0.6-2.2h0c0,0-0.3,1.4-0.6,2.2l-1.7,4.7H302.4z"/>
			<path fill="#F8E2D2" d="M309.3,63.3c0-0.3-0.2-0.5-0.5-0.5h-0.9V61h2c0.9,0,1.4,0.4,1.4,1.2v0.4c0,0.4,0,0.6,0,0.6h0
				c0.4-1,1.8-2.6,4.2-2.6c2.6,0,3.8,1.4,3.8,4.3v4.8c0,0.3,0.2,0.5,0.5,0.5h0.9v1.8h-2.1c-1,0-1.4-0.4-1.4-1.4v-5.2
				c0-1.6-0.3-2.8-2.1-2.8c-1.7,0-3.1,1.1-3.5,2.7c-0.2,0.4-0.2,0.9-0.2,1.5v5.2h-2.1V63.3z"/>
			<path fill="#F8E2D2" d="M328.7,65.2h0.5v-0.1c0-2-0.7-2.7-2.5-2.7c-0.5,0-1.8,0.1-1.8,0.9v0.6h-2v-1.1c0-1.8,2.8-2.1,3.8-2.1
				c3.6,0,4.6,1.9,4.6,4.4v4.7c0,0.3,0.2,0.5,0.5,0.5h0.9v1.8h-2c-1,0-1.4-0.5-1.4-1.3c0-0.4,0-0.7,0-0.7h0c0,0-0.9,2.2-3.5,2.2
				c-1.9,0-3.8-1.2-3.8-3.4C322,65.4,326.8,65.2,328.7,65.2z M326.2,70.7c1.8,0,3-1.9,3-3.5v-0.4h-0.5c-1.6,0-4.5,0.1-4.5,2.1
				C324.1,69.8,324.8,70.7,326.2,70.7z"/>
			<path fill="#F8E2D2" d="M335,58.9c0-0.3-0.2-0.5-0.5-0.5h-0.9v-1.8h2.1c1,0,1.4,0.4,1.4,1.4v11.8c0,0.3,0.2,0.5,0.5,0.5h0.9v1.8
				h-2.1c-1,0-1.4-0.4-1.4-1.4V58.9z"/>
			<path fill="#F8E2D2" d="M341.6,74.9c0.9,0,1.5-0.6,2-1.6l0.5-1.2l-3.8-8.8c-0.2-0.4-0.4-0.4-0.7-0.4h-0.3V61h1.3
				c0.9,0,1.2,0.2,1.6,1.1l2.5,6.3c0.2,0.6,0.4,1.3,0.4,1.3h0c0,0,0.2-0.8,0.4-1.3l2.3-6.3c0.3-0.9,0.7-1.1,1.6-1.1h1.3v1.8h-0.3
				c-0.4,0-0.5,0.1-0.7,0.4l-4.4,10.9c-0.7,1.7-2,2.6-3.6,2.6c-1.6,0-2.6-1.1-2.6-1.1l0.9-1.5C340,74.1,340.7,74.9,341.6,74.9z"/>
			<path fill="#F8E2D2" d="M351.8,70.9l5.7-7c0.5-0.6,0.9-1,0.9-1v0c0,0-0.4,0-1.1,0h-3c-0.3,0-0.5,0.2-0.5,0.5v0.7h-2v-1.6
				c0-1,0.4-1.4,1.4-1.4h8v1.2l-5.7,7.1c-0.5,0.5-0.9,1-0.9,1v0c0,0,0.4,0,1.1,0h3.6c0.3,0,0.5-0.2,0.5-0.5v-0.7h1.9v1.6
				c0,1-0.4,1.4-1.4,1.4h-8.4V70.9z"/>
			<path fill="#F8E2D2" d="M368.3,60.7c3.1,0,4.8,2.3,4.8,5.2c0,0.3-0.1,0.9-0.1,0.9h-8.1c0.1,2.4,1.8,3.7,3.8,3.7
				c1.9,0,3.3-1.3,3.3-1.3l0.9,1.5c0,0-1.6,1.6-4.3,1.6c-3.5,0-5.9-2.5-5.9-5.8C362.7,63,365.1,60.7,368.3,60.7z M370.9,65.3
				c-0.1-1.8-1.2-2.8-2.6-2.8c-1.6,0-2.9,1-3.3,2.8H370.9z"/>
		</g>
	</g>
	<g>
		<g>
			<path opacity="0.5" fill="#F8E2D2" d="M38.3,58.5h-1.4v-1.9H46c1,0,1.4,0.4,1.4,1.4v2h-2v-1c0-0.3-0.2-0.5-0.5-0.5h-4.4v4.9h5.4
				v1.9h-5.4v4.5c0,0.3,0.2,0.5,0.5,0.5h4.5c0.3,0,0.5-0.2,0.5-0.5v-1h2v2c0,1-0.4,1.4-1.4,1.4h-6.9c-1,0-1.4-0.4-1.4-1.4V58.5z"/>
			<path opacity="0.5" fill="#F8E2D2" d="M52.6,66.4l-2.1-3.2c-0.2-0.4-0.5-0.4-0.9-0.4h-0.6V61h1.4c1,0,1.3,0.2,1.9,1.1l1.4,2.2
				c0.2,0.3,0.4,0.7,0.4,0.7h0c0,0,0.2-0.4,0.4-0.7l1.3-2.2c0.6-0.9,0.9-1.1,1.9-1.1H59v1.8h-0.6c-0.4,0-0.7,0.1-0.9,0.4l-2.1,3.2
				l3.8,5.7h-2.4l-2.4-3.6c-0.2-0.3-0.3-0.6-0.3-0.6h0c0,0-0.2,0.3-0.4,0.6l-2.3,3.6h-2.4L52.6,66.4z"/>
			<path opacity="0.5" fill="#F8E2D2" d="M65.8,60.7c3.1,0,4.8,2.3,4.8,5.2c0,0.3-0.1,0.9-0.1,0.9h-8.1c0.1,2.4,1.8,3.7,3.8,3.7
				c1.9,0,3.3-1.3,3.3-1.3l0.9,1.5c0,0-1.6,1.6-4.3,1.6c-3.5,0-5.9-2.5-5.9-5.8C60.2,63,62.6,60.7,65.8,60.7z M68.4,65.3
				c-0.1-1.8-1.2-2.8-2.6-2.8c-1.6,0-2.9,1-3.3,2.8H68.4z"/>
			<path opacity="0.5" fill="#F8E2D2" d="M78.3,60.7c1.3,0,4,0.5,4,2.4v1.1h-1.9v-0.6c0-0.8-1.3-1.1-2.1-1.1c-2.2,0-3.8,1.6-3.8,4
				c0,2.5,1.8,4,3.9,4c2.1,0,3.5-1.5,3.5-1.5l0.9,1.5c0,0-1.6,1.9-4.5,1.9c-3.5,0-5.9-2.5-5.9-5.8C72.3,63.3,74.7,60.7,78.3,60.7z"
				/>
			<path opacity="0.5" fill="#F8E2D2" d="M85.1,63.3c0-0.3-0.2-0.5-0.5-0.5h-0.9V61h2.1c1,0,1.4,0.4,1.4,1.4v5.3
				c0,1.5,0.3,2.8,2.1,2.8c2.3,0,3.6-2,3.6-4.2V61H95v8.8c0,0.3,0.2,0.5,0.5,0.5h0.9v1.8h-2c-0.9,0-1.4-0.4-1.4-1.2v-0.4
				c0-0.4,0-0.6,0-0.6h0c-0.5,1.1-1.9,2.6-4.1,2.6c-2.5,0-3.8-1.3-3.8-4.3V63.3z"/>
			<path opacity="0.5" fill="#F8E2D2" d="M98.9,62.7h-1.5V61h1.5V58h2.1V61h2.7v1.7H101v5.1c0,2.2,1.5,2.5,2.4,2.5
				c0.3,0,0.5,0,0.5,0v1.9c0,0-0.3,0-0.7,0c-1.4,0-4.2-0.4-4.2-4.2V62.7z"/>
			<path opacity="0.5" fill="#F8E2D2" d="M110.8,60.7c3.1,0,4.8,2.3,4.8,5.2c0,0.3-0.1,0.9-0.1,0.9h-8.1c0.1,2.4,1.8,3.7,3.8,3.7
				c1.9,0,3.3-1.3,3.3-1.3l0.9,1.5c0,0-1.6,1.6-4.3,1.6c-3.5,0-5.9-2.5-5.9-5.8C105.2,63,107.7,60.7,110.8,60.7z M113.4,65.3
				c-0.1-1.8-1.2-2.8-2.6-2.8c-1.6,0-2.9,1-3.3,2.8H113.4z"/>
			<path fill="#F8E2D2" d="M123.4,65h4.9v-5.4h1.8V65h4.9v1.7h-4.9v5.4h-1.8v-5.4h-4.9V65z"/>
		</g>
		<path fill="none" d="M115.6,128.4"/>
		<path fill="none" d="M96.4,132.4"/>
		<g>
			<path opacity="0.5" fill="#F8E2D2" d="M138.4,130.7c8.6-0.8,10.6-6.8,22.8-7c5.1-0.1,8.9,1,12.1,2.3V86.9c0-4.4-3.5-7.9-7.9-7.9
				h-47.7c-4.4,0-7.9,3.5-7.9,7.9v41.7c1.2-0.5,2.6-1,4.1-1.4C124,124.4,129.8,131.4,138.4,130.7z"/>
			<path fill="#F8E2D2" d="M117.7,150.3h47.7c4.4,0,7.9-3.5,7.9-7.9V126c-3.2-1.3-7-2.4-12.1-2.3c-12.1,0.3-14.1,6.3-22.8,7
				s-14.4-6.3-24.5-3.5c-1.5,0.4-2.9,0.9-4.1,1.4v13.8C109.8,146.8,113.3,150.3,117.7,150.3z"/>
		</g>
	</g>
	<g>
		<path fill="#F8E2D2" d="M142.8,70.2h1.5V58.5h-1.5v-1.9h5.1v1.9h-1.5v11.7h1.5v1.9h-5.1V70.2z"/>
		<path fill="#F8E2D2" d="M150.8,63.3c0-0.3-0.2-0.5-0.5-0.5h-0.9V61h2c0.9,0,1.4,0.4,1.4,1.2v0.4c0,0.4,0,0.6,0,0.6h0
			c0.4-1,1.8-2.6,4.2-2.6c2.6,0,3.8,1.4,3.8,4.3v4.8c0,0.3,0.2,0.5,0.5,0.5h0.9v1.8h-2.1c-1,0-1.4-0.4-1.4-1.4v-5.2
			c0-1.6-0.3-2.8-2.1-2.8c-1.7,0-3.1,1.1-3.5,2.7c-0.2,0.4-0.2,0.9-0.2,1.5v5.2h-2.1V63.3z"/>
		<path fill="#F8E2D2" d="M164.3,69c0,0,1.3,1.6,3.4,1.6c1,0,1.9-0.5,1.9-1.4c0-2-6.1-1.8-6.1-5.4c0-2.1,1.9-3.1,4.1-3.1
			c1.3,0,3.6,0.5,3.6,2.2V64h-1.9v-0.5c0-0.7-1-0.9-1.7-0.9c-1.3,0-2.1,0.4-2.1,1.3c0,2.1,6.1,1.6,6.1,5.4c0,2-1.8,3.3-4.1,3.3
			c-3,0-4.4-2-4.4-2L164.3,69z"/>
		<path fill="#F8E2D2" d="M174.6,62.7h-1.5V61h1.5V58h2.1V61h2.7v1.7h-2.7v5.1c0,2.2,1.5,2.5,2.4,2.5c0.3,0,0.5,0,0.5,0v1.9
			c0,0-0.3,0-0.7,0c-1.4,0-4.2-0.4-4.2-4.2V62.7z"/>
		<path fill="#F8E2D2" d="M182.2,63.3c0-0.3-0.2-0.5-0.5-0.5h-0.9V61h2c1,0,1.4,0.4,1.4,1.3V63c0,0.4,0,0.8,0,0.8h0
			c0.5-1.6,1.8-2.9,3.5-2.9c0.3,0,0.6,0,0.6,0V63c0,0-0.3-0.1-0.6-0.1c-1.4,0-2.6,1-3.1,2.6c-0.2,0.6-0.3,1.3-0.3,2v4.6h-2.1V63.3z"
			/>
		<path fill="#F8E2D2" d="M190.9,63.3c0-0.3-0.2-0.5-0.5-0.5h-0.9V61h2.1c1,0,1.4,0.4,1.4,1.4v5.3c0,1.5,0.3,2.8,2.1,2.8
			c2.3,0,3.6-2,3.6-4.2V61h2.1v8.8c0,0.3,0.2,0.5,0.5,0.5h0.9v1.8h-2c-0.9,0-1.4-0.4-1.4-1.2v-0.4c0-0.4,0-0.6,0-0.6h0
			c-0.5,1.1-1.9,2.6-4.1,2.6c-2.5,0-3.8-1.3-3.8-4.3V63.3z"/>
		<path fill="#F8E2D2" d="M204.6,63.3c0-0.3-0.2-0.5-0.5-0.5h-0.9V61h2c1,0,1.4,0.4,1.4,1.2v0.4c0,0.4,0,0.6,0,0.6h0
			c0.5-1.3,2.1-2.6,3.8-2.6c1.9,0,3,0.9,3.3,2.5h0c0.6-1.3,2.2-2.5,4-2.5c2.5,0,3.7,1.4,3.7,4.3v4.8c0,0.3,0.2,0.5,0.5,0.5h0.9v1.8
			h-2.1c-1,0-1.4-0.4-1.4-1.4v-5.3c0-1.6-0.3-2.8-2-2.8c-1.5,0-2.7,1.3-3.1,2.9c-0.1,0.5-0.2,0.9-0.2,1.5v5.1H212v-6.7
			c0-1.5-0.2-2.8-1.9-2.8c-1.6,0-2.8,1.4-3.2,2.9c-0.1,0.4-0.2,0.9-0.2,1.4v5.1h-2.1V63.3z"/>
		<path fill="#F8E2D2" d="M229.7,60.7c3.1,0,4.8,2.3,4.8,5.2c0,0.3-0.1,0.9-0.1,0.9h-8.1c0.1,2.4,1.8,3.7,3.8,3.7
			c1.9,0,3.3-1.3,3.3-1.3l0.9,1.5c0,0-1.6,1.6-4.3,1.6c-3.5,0-5.9-2.5-5.9-5.8C224.1,63,226.5,60.7,229.7,60.7z M232.3,65.3
			c-0.1-1.8-1.2-2.8-2.6-2.8c-1.6,0-2.9,1-3.3,2.8H232.3z"/>
		<path fill="#F8E2D2" d="M237.3,63.3c0-0.3-0.2-0.5-0.5-0.5h-0.9V61h2c0.9,0,1.4,0.4,1.4,1.2v0.4c0,0.4,0,0.6,0,0.6h0
			c0.4-1,1.8-2.6,4.2-2.6c2.6,0,3.8,1.4,3.8,4.3v4.8c0,0.3,0.2,0.5,0.5,0.5h0.9v1.8h-2.1c-1,0-1.4-0.4-1.4-1.4v-5.2
			c0-1.6-0.3-2.8-2.1-2.8c-1.7,0-3.1,1.1-3.5,2.7c-0.2,0.4-0.2,0.9-0.2,1.5v5.2h-2.1V63.3z"/>
		<path fill="#F8E2D2" d="M251.2,62.7h-1.5V61h1.5V58h2.1V61h2.7v1.7h-2.7v5.1c0,2.2,1.5,2.5,2.4,2.5c0.3,0,0.5,0,0.5,0v1.9
			c0,0-0.3,0-0.7,0c-1.4,0-4.2-0.4-4.2-4.2V62.7z"/>
	</g>
	
		<line opacity="0.35" fill="none" stroke="#FAAE24" stroke-width="7" stroke-linecap="round" stroke-miterlimit="10" x1="147.9" y1="-253.6" x2="147.9" y2="-210.6"/>
	
		<line opacity="0.35" fill="none" stroke="#FAAE24" stroke-width="7" stroke-linecap="round" stroke-miterlimit="10" x1="483.4" y1="141.8" x2="483.4" y2="194.9"/>
	
		<line opacity="0.35" fill="none" stroke="#FAAE24" stroke-width="7" stroke-linecap="round" stroke-miterlimit="10" x1="333.4" y1="141.8" x2="333.4" y2="194.9"/>
</g>
<g id="Layer_10">
	
		<radialGradient id="SVGID_1_" cx="577.7546" cy="-234.4971" r="208.1497" fx="564.3657" fy="-223.2381" gradientTransform="matrix(1 0 0 2.6512 0 387.1899)" gradientUnits="userSpaceOnUse">
		<stop  offset="0.1904" style="stop-color:#FFFBF6;stop-opacity:0.987"/>
		<stop  offset="0.2139" style="stop-color:#FFFFFF"/>
		<stop  offset="1" style="stop-color:#FAAE24;stop-opacity:0.5"/>
	</radialGradient>
	<path fill="url(#SVGID_1_)" stroke="#FAAE24" stroke-width="6" stroke-linecap="round" stroke-miterlimit="10" d="M560-351.5
		c4.2,0,8.3,1.3,11.7,3.8l59.1,42.9c3.4,2.5,5.9,6,7.2,10l22.6,69.5c1.3,4,1.3,8.3,0,12.3L638-143.5c-1.3,4-3.8,7.5-7.2,10
		l-59.1,42.9c-3.4,2.5-7.5,3.8-11.7,3.8"/>
	<g id="XMLID_1_">
		<g id="XMLID_3_">
			<path id="XMLID_60_" fill="#F9E3D2" d="M815.3-282.6c3.3-1.7,5.8-3.9,7.9-3.2c2.4,0.7,2.2,2.5,0.7,4.4c-1.3,1.6-0.9,6.3-0.5,8.5
				c0.5,3,0.8,3.4,3.3,6.1c1.6,1.6,3.3,4.5,4.1,9.9c0.5,3.4-0.5,7.1-3.4,11.3c-1.4,2.1-4.1,3.6-6.4,3.8c-3.5,0.3-7.1,0-10.7,0
				c-3.9,0-6.7-1.3-8.4-5.1c-2.1-4.5-3.3-9.5-1.2-14.6c1.8-4.6,2.4-4.8,4-6.8c1-1.3,2.3-2.9,2.2-4.6c-0.1-3.9-1.9-4.2,0.5-6.5
				C809.5-281.5,812.7-281.3,815.3-282.6z"/>
			<path id="XMLID_59_" fill="#F9E3D2" d="M806.8-269.5c0.3-1.8-3.7-4.1-5.3-4.6c-2.7-0.8-5.5,0.1-7.8,1.7c-2.1,1.4-3.1,3.8-3,6.2
				c0,2.7,2.3,4.5,4.3,6c2.1,1.6,4.3,2.9,6.5,4.4c0.7-1,0.8-2.4,0.7-3.5c-3.3-0.3-9.4-5-8.6-8.8c0.4-1.9,3-3.3,4.7-3.6
				c2.4-0.3,4.2,1.1,5.9,2.6c0.6,0.6,1.5,1.6,1.9,2L806.8-269.5z"/>
			<path id="XMLID_58_" fill="#DC7676" d="M822.6-270.3c0,0,1.9,4.1,3,5.9c1.3,2.1,2.2,4,2.6,6.4c0.7,4.4-1,10.9-5.2,13.4
				c-2.2,1.3-4.4,0.1-6.9,0c-2.6-0.1-3.6,0.1-6.2,0.5c-2.7,0.4-5-1.3-6.2-3.6c-1.1-2-1.4-3.2-1.7-5.5c-0.5-3.4,0.1-6.5,0.8-8.6
				c0.5-1.4,1.9-3.6,2.6-4.9c1.1-1.8,2.3-3.8,2.3-3.8c1.2-0.7,3.1,0,4.4,0.2c1.7,0.4,3.5,0.9,5.2,1
				C818-269.3,820.3-268.9,822.6-270.3z"/>
			<g id="XMLID_47_">
				<path id="XMLID_57_" fill="#F79029" d="M807-256.4c0.4-0.3,0.9-0.5,1.3-0.7c0.5-0.2,1-0.3,1.5-0.3c0.5-0.1,1,0,1.5,0.1
					c0.5,0.1,1,0.2,1.4,0.4c0.5,0.2,0.9,0.5,1.3,0.8c0.4,0.3,0.7,0.7,1,1.1c0.3,0.4,0.5,0.8,0.7,1.3c0.2,0.5,0.3,1,0.3,1.5
					c0.1,0.5,0.1,1,0,1.5c-0.1,0.5-0.2,1-0.4,1.4c-0.2,0.5-0.5,0.9-0.8,1.3c-0.3,0.4-0.6,0.7-1.1,1c-0.4,0.3-0.9,0.5-1.3,0.7
					c-0.5,0.2-1,0.3-1.5,0.3c-0.5,0.1-1,0.1-1.5,0c-0.5-0.1-1-0.2-1.4-0.4c-0.5-0.2-0.9-0.4-1.3-0.8c-0.4-0.3-0.7-0.7-1-1.1
					c-0.3-0.4-0.6-0.9-0.7-1.3c-0.2-0.5-0.3-1-0.3-1.5c-0.1-0.5,0-1,0.1-1.5c0.1-0.5,0.2-1,0.4-1.4c0.2-0.5,0.5-0.9,0.8-1.3
					C806.2-255.7,806.6-256.1,807-256.4z"/>
				<path id="XMLID_56_" fill="#FFEFD5" d="M807.2-256c0.5-0.3,1-0.5,1.5-0.7c0.5-0.2,1.1-0.2,1.6-0.2c0.6,0,1.1,0,1.6,0.2
					c0.5,0.2,1.1,0.4,1.5,0.7c0.4,0.3,0.8,0.8,1.1,1.2c0.3,0.5,0.6,1,0.7,1.5c0.2,0.5,0.2,1.1,0.2,1.6c0,0.6,0.1,1.1-0.1,1.6
					c-0.2,0.5-0.4,1-0.7,1.5c-0.3,0.4-0.8,0.8-1.2,1.1c-0.5,0.3-1,0.5-1.5,0.7c-0.5,0.2-1.1,0.3-1.6,0.3c-0.6,0-1.1,0-1.6-0.2
					c-0.5-0.2-1.1-0.4-1.5-0.7c-0.4-0.3-0.9-0.7-1.2-1.2c-0.3-0.5-0.4-1-0.6-1.5c-0.2-0.5-0.3-1.1-0.3-1.6c0-0.5,0-1.1,0.2-1.6
					c0.2-0.5,0.5-1,0.8-1.4C806.5-255.2,806.8-255.6,807.2-256z"/>
				<path id="XMLID_55_" fill="#FBAE25" d="M806.5-249.3c0.4-0.1,3.2-1.9,3.2-2.3c0,0-3.4-0.6-3.8-0.5
					C805.5-252,806.1-249.2,806.5-249.3z"/>
				<path id="XMLID_54_" fill="#FBAE25" d="M809.9-251.8c-0.3-0.6-1.8-3.4-2.2-3.5c-0.4-0.1-2.1,2.3-1.8,2.6
					C806.2-252.5,810.1-251.5,809.9-251.8z"/>
				<path id="XMLID_53_" fill="#FBAE25" d="M812.6-248c0-0.7-1.8-3.2-2.2-3.1c-0.4,0.1-0.6,3.3-0.3,3.9
					C810.2-246.8,812.6-247.3,812.6-248z"/>
				<path id="XMLID_52_" fill="#FBAE25" d="M809.2-247.5c0.3-0.3,0.9-3.4,0.7-3.5c-0.2-0.1-3,1.9-3.1,2.3
					C806.7-248.4,808.7-247.1,809.2-247.5z"/>
				<path id="XMLID_51_" fill="#FBAE25" d="M814.3-253.6c-1.3,0.6-3.5,1.6-3.4,1.9c0,0.2,3.1,0.6,3.8,0.8
					C815.3-250.7,814.8-253.8,814.3-253.6z"/>
				<path id="XMLID_50_" fill="#FBAE25" d="M810.8-251.4c-0.2,0.3,1.7,2.2,2.4,3.1c0.3,0.3,1.8-1.4,1.5-2
					C814.3-250.9,811-251.7,810.8-251.4z"/>
				<path id="XMLID_49_" fill="#FBAE25" d="M808.3-255.6c0.5,1,1.5,3.6,2,3.7c0.4,0.1,0.9-3.6,0.6-4.1
					C810.4-256.6,808-256.3,808.3-255.6z"/>
				<path id="XMLID_48_" fill="#FBAE25" d="M810.8-252.4c-0.1,0.3-0.2,0.4,0.1,0.2c0.3-0.2,2-1.1,2.4-1.3c0.4-0.2,1.1-0.6,0.4-1.4
					c-0.7-0.8-1.5-1-2-1.1c-0.5-0.1-0.5,0.5-0.6,0.9C811.2-254.7,810.9-252.9,810.8-252.4z"/>
			</g>
			<g id="XMLID_36_">
				<path id="XMLID_46_" fill="#F79029" d="M824.3-263.6c0.2,0.4,0.3,0.9,0.4,1.3c0.1,0.5,0,0.9,0,1.4c-0.1,0.4-0.2,0.9-0.4,1.3
					c-0.2,0.4-0.4,0.8-0.7,1.2c-0.3,0.4-0.6,0.6-1,0.9c-0.4,0.3-0.7,0.5-1.2,0.7c-0.4,0.2-0.9,0.3-1.3,0.4c-0.5,0.1-0.9,0-1.3,0
					c-0.4-0.1-0.9-0.2-1.3-0.3c-0.4-0.2-0.8-0.4-1.2-0.7c-0.4-0.3-0.7-0.6-1-0.9c-0.3-0.4-0.5-0.7-0.7-1.2c-0.2-0.4-0.3-0.9-0.3-1.3
					c-0.1-0.5,0-0.9,0-1.3c0.1-0.4,0.2-0.9,0.3-1.3c0.2-0.4,0.4-0.8,0.7-1.2c0.3-0.4,0.6-0.7,0.9-1c0.4-0.3,0.8-0.5,1.2-0.7
					c0.4-0.2,0.9-0.3,1.3-0.4c0.5-0.1,0.9,0,1.4,0c0.4,0.1,0.9,0.2,1.3,0.4c0.4,0.2,0.8,0.4,1.2,0.6c0.4,0.3,0.7,0.6,0.9,1
					C823.8-264.4,824.1-264,824.3-263.6z"/>
				<path id="XMLID_45_" fill="#FFEFD5" d="M823.9-263.4c0.2,0.5,0.3,1,0.3,1.4c0,0.5,0,1-0.1,1.5c-0.1,0.5-0.2,1-0.5,1.4
					c-0.3,0.4-0.6,0.8-0.9,1.2c-0.4,0.3-0.8,0.5-1.3,0.7c-0.5,0.2-1,0.3-1.4,0.3c-0.5,0-1-0.1-1.5-0.2c-0.5-0.1-1-0.2-1.4-0.4
					c-0.4-0.3-0.8-0.6-1.1-1c-0.3-0.4-0.5-0.8-0.7-1.3c-0.2-0.5-0.2-1-0.3-1.4c0-0.5,0-1,0.1-1.5c0.1-0.5,0.3-1,0.5-1.4
					c0.3-0.4,0.5-0.8,0.9-1.2c0.4-0.3,0.8-0.6,1.3-0.8c0.5-0.2,1-0.2,1.5-0.2c0.5,0,1,0,1.5,0.1c0.5,0.1,1,0.3,1.4,0.5
					c0.4,0.3,0.7,0.6,1.1,1C823.3-264.3,823.7-263.9,823.9-263.4z"/>
				<path id="XMLID_44_" fill="#FBAE25" d="M818.1-265.5c0,0.4,1,3.2,1.3,3.3c0,0,1.3-2.9,1.3-3.2
					C820.8-265.8,818.2-265.8,818.1-265.5z"/>
				<path id="XMLID_43_" fill="#FBAE25" d="M819.7-262c0.6-0.1,3.3-0.9,3.5-1.2c0.2-0.3-1.6-2.4-1.9-2.2
					C821-265.1,819.3-261.9,819.7-262z"/>
				<path id="XMLID_42_" fill="#FBAE25" d="M815.7-260.5c0.6,0.1,3.2-0.9,3.2-1.3c0-0.4-2.8-1.2-3.3-1.1
					C815.2-262.8,815.1-260.6,815.7-260.5z"/>
				<path id="XMLID_41_" fill="#FBAE25" d="M816-263.5c0.2,0.3,2.8,1.5,3,1.4c0.2-0.2-1-3-1.3-3.2C817.3-265.5,815.7-264,816-263.5z
					"/>
				<path id="XMLID_40_" fill="#FBAE25" d="M820.3-257.8c-0.2-1.3-0.7-3.4-0.9-3.4c-0.1,0-1.2,2.6-1.5,3.1
					C817.6-257.5,820.4-257.3,820.3-257.8z"/>
				<path id="XMLID_39_" fill="#FBAE25" d="M819.1-261.3c-0.2-0.2-2.3,1-3.2,1.5c-0.3,0.2,0.9,1.9,1.4,1.7
					C817.9-258.3,819.4-261.1,819.1-261.3z"/>
				<path id="XMLID_38_" fill="#FBAE25" d="M823.4-262.6c-1,0.2-3.5,0.6-3.7,0.9c-0.2,0.4,3,1.6,3.5,1.4
					C823.7-260.5,824-262.7,823.4-262.6z"/>
				<path id="XMLID_37_" fill="#FBAE25" d="M820-261.1c-0.2-0.1-0.3-0.2-0.2,0.1c0.1,0.3,0.5,2,0.6,2.4c0.1,0.4,0.3,1.1,1.2,0.7
					c0.9-0.4,1.2-1.1,1.4-1.5c0.2-0.4-0.3-0.6-0.7-0.7C821.9-260.2,820.4-260.9,820-261.1z"/>
			</g>
			<g id="XMLID_11_">
				<path id="XMLID_35_" fill="#EEBC7F" d="M808.4-265.8c-0.6,0.5-1,1.3-1.1,2.1c-0.2,1.1,0.3,2.6,0.9,3.5c0.3,0.4,0.4,0.5,0.8,0.5
					c0.6,0,1.1-0.2,1.7-0.3c0.3,0,1-0.1,1.2-0.3c0.2-0.2,0.2-1,0.3-1.3c0.2-0.6,0.3-1.1,0.7-1.6c0.4-0.5,0.9-0.7,0.5-1.4
					c-0.5-0.8-1.1-1.6-1.9-2.1c-0.5-0.4-1.1-0.3-1.6-0.1C809.2-266.4,808.9-266.2,808.4-265.8z"/>
				<path id="XMLID_34_" fill="#E0845F" d="M809.1-260.7c0-1.1,0.2-2.4,0.7-3.5c0.3-0.6,0.7-1.1,1-1.7c0.1-0.2,0.3-0.5,0.5-0.8
					c-0.5-0.3-1-0.2-1.5,0c-0.6,0.3-0.9,0.5-1.4,0.9c-0.6,0.5-1,1.3-1.1,2.1c-0.2,1.1,0.3,2.6,0.9,3.5c0.3,0.4,0.4,0.5,0.8,0.5
					c0,0,0.1,0,0.1,0C809.1-260,809.1-260.4,809.1-260.7z"/>
			</g>
			<g id="XMLID_4_">
				<path id="XMLID_9_" fill="#EEBC7F" d="M820.3-249.5c0.7,0.2,1.4,0,1.9-0.4c0.7-0.5,1.3-1.6,1.4-2.6c0.1-0.4,0.1-0.6-0.2-0.9
					c-0.3-0.4-0.8-0.7-1.2-1.1c-0.2-0.2-0.6-0.6-0.8-0.7c-0.2,0-0.7,0.4-0.9,0.5c-0.5,0.2-0.8,0.4-1.4,0.4c-0.5,0-0.9-0.2-1.1,0.5
					c-0.2,0.8-0.2,1.7-0.1,2.5c0.1,0.6,0.5,1,1,1.2C819.4-249.7,819.7-249.6,820.3-249.5z"/>
				<path id="XMLID_8_" fill="#E0845F" d="M822.7-252.9c-0.7,0.6-1.5,1.3-2.4,1.5c-0.5,0.1-1,0.2-1.6,0.2c-0.2,0-0.5,0-0.7,0.1
					c0.1,0.5,0.5,0.9,0.9,1.1c0.5,0.3,0.8,0.4,1.3,0.5c0.7,0.2,1.4,0,1.9-0.4c0.7-0.5,1.3-1.6,1.4-2.6c0.1-0.4,0.1-0.6-0.2-0.9
					c0,0,0,0-0.1-0.1C823.1-253.3,822.9-253.1,822.7-252.9z"/>
			</g>
		</g>
		<g id="XMLID_2_">
			<path id="XMLID_7635_" fill="#DC7676" d="M893.8-272.3c-0.6-0.5-0.6-1-0.3-1.6c0.4-0.6,1-1.1,1.4-1.7c0.4-0.5,1-1.2,0.4-1.8
				c-0.6-0.6-1.4-0.3-2.1,0c-0.4,0.2-0.8,0.6-1,1c-0.3,0.4-0.5,0.8-0.7,1.2c-0.5,1.1-1.5,1.5-2.6,1.4c-1.2-0.1-2.3,0.2-3.3,1
				c-0.9,0.8-1.8,1.6-2.4,2.6c-0.7,1.1-1.4,2.2-1.5,3.5c-0.2,2.1,1.4,4.6,3.4,5.5c0.4,0.2,0.7,0.3,0.5,0.8c-0.5,1.3-0.6,2.7-0.2,4.1
				c0.1,0.5,0,0.7-0.5,0.9c-0.6,0.2-1.2,0.5-1.5,1c-0.9,1.4-1.5,2.9-1.6,4.5c-0.1,2.5,1.3,4.2,2.8,5.9c1,1.1,2.3,1.7,3.8,1.6
				c0.4,0,0.8,0,1.1-0.1c3-0.7,6-3.4,5.1-8c-0.3-1.7-0.9-3.1-2.5-3.9c-1.4-0.7-2.8-1.5-4.4-1.6c-0.4,0-0.6-0.2-0.7-0.6
				c-0.6-1.4-0.2-2.7,0.2-4c0.1-0.3,0.4-0.3,0.7-0.3c0.6,0,1.2,0,1.9,0c1.3-0.1,2.6-0.3,3.3-1.5c0.7-1.1,1.2-2.3,1.8-3.4
				C896.4-267.9,895.5-271,893.8-272.3z M888.2-254c1.4,0.3,2.6,0.9,3.6,1.8c1,0.9,0.9,2.1,1,3.5c0.1,0.9-0.3,1.8-1,2.7
				c-1.6,2.1-4.1,1.7-5.7,0.2c-1.8-1.7-2.1-3.9-1.5-6.2C884.9-253.1,887-254.2,888.2-254z M891.5-263.3c-0.1,0.1-0.2,0.1-0.3,0.2
				c-2,1.1-5.6,0.2-6.6-1.9c-0.6-1.1-0.6-2.3,0-3.3c1.1-1.6,2.2-3.1,4.4-3.4c1.3-0.2,2.6,0.2,3.6,0.9c1,0.7,0.9,2,1,3
				C893.5-265.9,892.8-264.4,891.5-263.3z"/>
			<path id="XMLID_7632_" fill="#DC7676" d="M864.3-256.6c0.1-2.5,0-5-0.1-7.4c-0.1-2.2-0.3-4.5-0.7-6.7c-0.4-2.2-1.6-3.4-3.7-3.7
				c-2.5-0.3-4.7,0.5-6.5,2.4c-0.5,0.6-0.4,1.4,0.2,1.8c0.6,0.5,1.2,0.3,1.7-0.4c1-1.4,2.4-1.8,4-1.7c1.2,0.1,1.9,0.9,2.1,2
				c0.3,1.3,0.6,2.7,0.6,4c0,0.3,0,0.7,0,1c0,0.9-0.2,0.9-1,0.6c-0.5-0.2-1.1-0.5-1.7-0.6c-2.6-0.5-4.1-0.1-5.5,2.4
				c-0.7,1.1-1,2.3-1.2,3.6c-0.1,0.6,0,1.2,0.2,1.7c0.7,1.8,3.4,3.5,5.3,3.2c0.9-0.1,1.8-0.5,2.6-0.9c1.6-0.9,1.6-0.9,1.6,0.9
				c0,0.6,0.1,1.3,0.8,1.4c0.8,0.1,1-0.5,1.2-1.2C864.5-255.2,864.2-255.9,864.3-256.6z M861.4-258.5c-1.2,1.1-2.4,2.3-4.3,1.6
				c-2.4-0.9-2.6-1.4-1.9-4c0.4-1.5,1.5-2.2,3-2.4c1.5-0.3,2.6,0.5,3.5,1.6c0.3,0.4,0.2,1,0.2,1.5
				C861.8-259.7,862-259.1,861.4-258.5z"/>
			<path id="XMLID_7628_" fill="#DC7676" d="M844.1-274.8c1.4-0.4,2.6-0.1,3.6,1c0.5,0.6,0.6,1.4,0.8,2.1c0.1,0.4,0.3,0.7,0.6,0.8
				c0.4,0.2,0.8,0.1,1.2-0.2c0.5-0.3,0.7-1.4,0.2-2.3c-1.3-2.2-3.2-3.4-5.4-3.6c-2.2,0-3.8,0.7-5.1,2c-1.2,1.2-2,2.7-2.6,4.3
				c-0.4,1-0.4,2.1,0.1,3.1c0.8,1.6,1.6,3,3.9,3c0.9,0,1.8,0.1,2.7,0c1.2-0.1,2.1,0.3,2.7,1.3c0.3,0.4,0.6,0.8,0.8,1.3
				c0.8,1.5,0.3,2.9-0.5,4.2c-0.7,1.2-1.8,1.8-3.3,1.6c-1-0.1-1.9-0.3-2.7-1c-0.6-0.6-0.4-1.4-0.3-2.1c0-0.7-0.5-1.1-1.1-1.1
				c-0.8,0-1.6,1.1-1.4,1.9c0.4,2.1,1.8,3.3,3.7,4c1.4,0.5,2.9,1,4.4,0.2c1.9-1,3.2-2.6,3.6-4.7c0.3-1.8,0.1-2-0.5-3.7
				c-0.3-1.1-0.7-1.6-1.3-2.3c-0.6-0.7-1.2-0.9-2.1-1.1c-1.3-0.3-2.5-0.1-3.8-0.2c-2-0.1-2.9-1.1-2.9-3
				C839.6-271.6,841.6-274.1,844.1-274.8z"/>
			<path id="XMLID_7624_" fill="#DC7676" d="M878.6-264.4c0-1.3-0.3-2.7-0.1-4c0.1-1.1-0.9-1.5-1.8-1c-0.5,0.3-0.5,0.8-0.5,1.3
				c0,2.4,0.9,4.8,0.4,7.3c-0.1,0.4,0.1,1-0.4,1.2c-0.5,0.2-0.7-0.4-1-0.8c-1.1-1.6-2.4-3.1-3.6-4.6c-0.6-0.7-1.2-1.3-1.8-2
				c-0.8-0.8-1.9-1.1-2.4-0.4c-0.5,0.6-1,1.5-0.8,2.3c0.2,1,0.2,2,0.4,3c0.4,2.4,1,4.8,0.9,7.5c0,0.2,0,0.6-0.1,1
				c-0.1,0.6,0.3,0.9,0.8,1.1c0.5,0.2,0.9-0.1,1.1-0.4c0.4-0.6,0.4-1.3,0.3-2c-0.5-3-0.5-6-1.3-8.9c-0.1-0.2-0.1-0.5,0.2-0.6
				c0.2-0.1,0.4,0.1,0.5,0.2c0.6,0.5,1.1,1.1,1.6,1.7c1.6,2,3.5,3.8,4.3,6.4c0.3,1,0.7,1.1,1.7,0.9c1.3-0.3,1.8-0.8,1.7-1.8
				C878.5-259.5,878.7-262,878.6-264.4z"/>
			<path id="XMLID_7623_" fill="#DC7676" d="M903.1-263.9c0.3-0.6,0.8-1,1.4-1.3c0.6-0.3,1.3-0.4,2-0.5c2.7-0.5,2.7-0.5,3.8,2
				c0.1,0.2,0.2,0.5,0.5,0.5c0.4,0,1.4-0.8,1.4-1.3c0-1.8-1.6-3.9-3.4-3.6c-1,0.1-1.9,0.4-2.9,0.6c-0.2,0-0.4,0.2-0.6,0
				c-0.2-0.2-0.1-0.4,0-0.7c0.2-0.5,0.6-0.7,0.9-1.1c0.4-0.5,0.7-1.1,0.3-1.7c-0.4-0.6-1-0.6-1.7-0.4c-0.4,0.1-0.6,0.4-0.8,0.8
				c-0.1,0.2-0.7,1.3-0.8,1.6c-0.3,0.4-1,1.8-1.7,3.2c-1.5,2.8-2.6,5.8-4.2,8.6c-0.2,0.5-0.6,1.1,0,1.6c0.6,0.5,1.4,0.4,2-0.3
				c0.4-0.5,0.8-1,1.1-1.6C901.1-259.8,901.9-262,903.1-263.9z"/>
			<path id="XMLID_6803_" fill="#DC7676" d="M910.5-275.3c1.6-0.1,2.9-0.9,3.5-1.4c0.7-0.6,1.2-1.4,1.2-1.5c0.7-1.3,0.8-2.3,0.2-3.9
				c-0.4-1-1.2-1.7-2-2.2c-1.5-1-3.3-1.4-5-0.8c-2,0.7-3.5,4.6-2.8,6.5C906.4-276.6,908.2-275.2,910.5-275.3z M910-283.4
				c2.2,0,3.8,1.5,3.8,3.4c0,1.4-1.6,2.8-3,2.8c-1.8,0-3.4-1.6-3.3-3.2C907.5-281.9,908.8-283.4,910-283.4z"/>
			<path id="XMLID_6802_" fill="#DC7676" d="M922.8-262.6c-0.9-1.5-1.8-3.1-2.8-4.7c-0.8-1.3-1.6-2.6-2.2-4
				c-0.3-0.6-0.9-0.9-1.6-0.7c-0.7,0.2-1.1,0.9-1,1.4c0.1,0.3,0.3,0.6,0.5,0.9c1.1,1.9,2.7,3.7,3.5,5.8c0.7,1.9,2.2,3.5,2.8,5.4
				c0.1,0.4,0.5,0.8,1,0.7c0.6,0,1-0.4,1.3-0.8c0.3-0.4,0.1-0.8-0.2-1.1C923.6-260.5,923.2-261.5,922.8-262.6z"/>
			<path id="XMLID_7641_" fill="#DC7676" d="M936.3-258.3c0.2-4.8,0.3-10.1-1.4-16.1c-0.5-1.6-1.7-2.7-2.7-3.1
				c-1.3-0.5-2.7-0.3-4,0.1c-0.1,0-0.1,0-0.1,0.1c-0.9,0.3-1.6,0.6-2.3,1.2c-0.2,0.2-0.4,0.3-0.6,0.5c0,0-0.1,0.1-0.1,0.1
				c-1.4,1.4-1.9,3.4-1.3,5.4c0.7,2.3,3,4.4,6.3,3.2c0.7-0.2,1.1-0.4,1.7-0.7c0.7-0.4,0.7-1,0.6-1.5c-0.1-0.4-0.5-0.7-0.9-0.8
				c-0.9,0-0.8,0.4-1.7,1c-0.5,0.3-1.7,0.4-2.1,0.3c-2.1-0.7-2.1-1.7-2-3.3c0.1-2.1,1.8-3.1,3.6-3.5c0.6-0.2,1.2-0.2,1.7-0.1
				c1,0.2,1.3,0.8,1.8,1.8c1.1,1.9,2.7,12.3,1.5,16.7c-0.2,0.6-0.3,0.9-0.9,0.5c-1-0.5-2-0.9-3.1-0.8c-1.8-0.1-3,0.7-3.9,2.1
				c-1.1,1.7-1.8,3.5-1.3,5.4c0.7,2.3,3.7,4.7,6.8,3.2c0.7-0.3,1.3-0.7,2-1c0.5-0.3,0.7-0.1,0.7,0.4c0,0.4,0,0.8,0,1.2
				c0,0.6,0.3,1,0.9,1.1c0.6,0.1,0.8-0.4,1-0.8c0.1-0.3,0.1-0.7,0.1-1C936.6-250.7,936.1-253,936.3-258.3z M934.3-251.6
				c-0.2,1.2-3.2,3.6-4.9,3c-1.7-0.7-2.3-1.3-2.2-3c0.2-2,1.5-3.4,3.3-3.6c1.5-0.2,2.5,0.5,3.4,1.6
				C934.3-253.2,934.5-252.3,934.3-251.6z"/>
		</g>
	</g>
	<g id="document_1_">
		<g>
			<g>
				<path fill="#DC7676" d="M581.8-297.7l-16-15.6c0.4,0-0.5-1.7-0.7-1.7h-0.5h-22.3c-1.4,0-2.4,1.1-2.4,2.4v51.9
					c0,1.3,1.1,2.4,2.4,2.4h37.4c1.4,0,2.4-1.1,2.4-2.4c0,0,0-35.7,0-36.1C582.2-297.1,582.1-297.4,581.8-297.7z"/>
			</g>
			<g>
				<path fill="#F8E2D2" d="M565.2-315.1v12.7c0,2.9,3.1,5,6,5h10.9L565.2-315.1z"/>
			</g>
			<g>
				<path fill="#F8E2D2" d="M573.1-268h-25c-0.3,0-0.5,0.2-0.5,0.5v1.8c0,0.3,0.2,0.5,0.5,0.5h25c0.3,0,0.5-0.2,0.5-0.5v-1.8
					C573.6-267.7,573.3-268,573.1-268z M548.1-294.9h10.5c0.3,0,0.5-0.2,0.5-0.5v-1.8c0-0.3-0.2-0.5-0.5-0.5h-10.5
					c-0.3,0-0.5,0.2-0.5,0.5v1.8C547.6-295.1,547.8-294.9,548.1-294.9z M548.1-304.5h10.5c0.3,0,0.5-0.2,0.5-0.5v-1.8
					c0-0.3-0.2-0.5-0.5-0.5h-10.5c-0.3,0-0.5,0.2-0.5,0.5v1.8C547.6-304.7,547.8-304.5,548.1-304.5z M573.1-278.5h-25
					c-0.3,0-0.5,0.2-0.5,0.5v1.8c0,0.3,0.2,0.5,0.5,0.5h25c0.3,0,0.5-0.2,0.5-0.5v-1.8C573.6-278.3,573.3-278.5,573.1-278.5z
					 M573.1-288.1h-25c-0.3,0-0.5,0.2-0.5,0.5v1.8c0,0.3,0.2,0.5,0.5,0.5h25c0.3,0,0.5-0.2,0.5-0.5v-1.8
					C573.6-287.9,573.3-288.1,573.1-288.1z"/>
			</g>
		</g>
	</g>
	<g>
		<path fill="#DC7676" d="M545.6-246.6h1.2v0.3c0,1.2,0.7,1.5,1.3,1.5c0.7,0,1.3-0.4,1.3-1.5v-4.7c0-0.2-0.1-0.3-0.3-0.3h-2.1v-1
			h2.8c0.5,0,0.8,0.2,0.8,0.8v5.3c0,1.8-1.3,2.6-2.5,2.6c-1.2,0-2.5-0.8-2.5-2.6V-246.6z"/>
		<path fill="#DC7676" d="M552.8-245.8c0,0,0.9,1,2.1,1c0.8,0,1.5-0.5,1.5-1.3c0-1.8-4.1-1.5-4.1-4.1c0-1.3,1.1-2.3,2.7-2.3
			c0.9,0,2.4,0.4,2.4,1.6v0.7h-1.1v-0.4c0-0.4-0.6-0.8-1.3-0.8c-0.9,0-1.5,0.5-1.5,1.1c0,1.7,4.1,1.3,4.1,4.1c0,1.3-1,2.4-2.7,2.4
			c-1.8,0-2.8-1.3-2.8-1.3L552.8-245.8z"/>
		<path fill="#DC7676" d="M562.8-252.4c2.4,0,4.4,1.9,4.4,4.3c0,2.5-1.9,4.4-4.4,4.4c-2.4,0-4.3-1.9-4.3-4.4
			C558.4-250.5,560.3-252.4,562.8-252.4z M562.8-244.8c1.7,0,3.1-1.4,3.1-3.3c0-1.8-1.4-3.2-3.1-3.2c-1.7,0-3.1,1.4-3.1,3.2
			C559.7-246.2,561.1-244.8,562.8-244.8z"/>
		<path fill="#DC7676" d="M568-244.8h0.5c0.2,0,0.3-0.1,0.3-0.3v-7.2h1.1l3.8,5.4c0.3,0.5,0.7,1.2,0.7,1.2h0c0,0-0.1-0.7-0.1-1.2
			v-4.6c0-0.5,0.2-0.8,0.8-0.8h1.2v1h-0.5c-0.2,0-0.3,0.1-0.3,0.3v7.2h-1.1l-3.8-5.4c-0.3-0.5-0.7-1.2-0.7-1.2h0
			c0,0,0.1,0.7,0.1,1.2v4.6c0,0.5-0.2,0.8-0.8,0.8H568V-244.8z"/>
		<path fill="#DC7676" d="M533.2-238.1h0.8c-0.9,1.5-1.3,3-1.3,4.7c0,1.8,0.5,3.6,1.4,5.2h-0.8c-0.9-1.4-1.4-3.3-1.4-5.1
			C531.9-235.1,532.4-236.7,533.2-238.1z"/>
		<path fill="#DC7676" d="M535.7-234.7H535v-0.7h0.8v-1.7h0.8v1.7h1.5v0.7h-1.5v3.1c0,1.4,0.9,1.6,1.4,1.6c0.2,0,0.3,0,0.3,0v0.7
			c0,0-0.1,0-0.3,0c-0.7,0-2.1-0.2-2.1-2.2V-234.7z"/>
		<path fill="#DC7676" d="M542-235.6c1.7,0,2.5,1.3,2.5,2.8c0,0.1,0,0.4,0,0.4h-4.6c0,1.5,1.1,2.4,2.3,2.4c1.1,0,1.8-0.7,1.8-0.7
			l0.4,0.6c0,0-0.9,0.9-2.2,0.9c-1.8,0-3.2-1.3-3.2-3.2C539-234.4,540.4-235.6,542-235.6z M543.7-233c0-1.2-0.8-1.9-1.7-1.9
			c-1,0-1.9,0.6-2.1,1.9H543.7z"/>
		<path fill="#DC7676" d="M545.9-230.9c0,0,0.7,0.9,1.9,0.9c0.7,0,1.3-0.3,1.3-1c0-1.3-3.4-1.1-3.4-3c0-1.1,0.9-1.6,2.1-1.6
			c0.6,0,1.8,0.2,1.8,1.1v0.5h-0.8v-0.3c0-0.4-0.6-0.6-1-0.6c-0.8,0-1.3,0.3-1.3,0.9c0,1.4,3.4,1,3.4,3c0,1-0.9,1.7-2.1,1.7
			c-1.6,0-2.3-1.1-2.3-1.1L545.9-230.9z"/>
		<path fill="#DC7676" d="M551.5-234.7h-0.8v-0.7h0.8v-1.7h0.8v1.7h1.5v0.7h-1.5v3.1c0,1.4,0.9,1.6,1.4,1.6c0.2,0,0.3,0,0.3,0v0.7
			c0,0-0.1,0-0.3,0c-0.7,0-2.1-0.2-2.1-2.2V-234.7z"/>
		<path fill="#DC7676" d="M561.3-235.6c0.7,0,2.1,0.3,2.1,1.3v0.5h-0.8v-0.3c0-0.5-0.9-0.7-1.4-0.7c-1.3,0-2.3,1-2.3,2.4
			c0,1.5,1.1,2.4,2.4,2.4c1.2,0,1.9-0.9,1.9-0.9l0.4,0.6c0,0-0.8,1-2.4,1c-1.8,0-3.2-1.3-3.2-3.2
			C558.1-234.2,559.5-235.6,561.3-235.6z"/>
		<path fill="#DC7676" d="M568.2-233.1h0.3v-0.1c0-1.3-0.5-1.7-1.6-1.7c-0.3,0-1.2,0.1-1.2,0.5v0.4H565v-0.6c0-0.8,1.4-1,2-1
			c1.9,0,2.4,1,2.4,2.3v2.9c0,0.2,0.1,0.3,0.3,0.3h0.5v0.7h-0.8c-0.5,0-0.7-0.2-0.7-0.7c0-0.3,0-0.4,0-0.4h0c0,0-0.5,1.3-2,1.3
			c-1,0-2.1-0.6-2.1-1.8C564.5-233,567.1-233.1,568.2-233.1z M566.7-229.9c1.2,0,1.8-1.2,1.8-2.2v-0.3h-0.3c-0.9,0-2.8,0-2.8,1.4
			C565.3-230.5,565.8-229.9,566.7-229.9z"/>
		<path fill="#DC7676" d="M571.2-230.9c0,0,0.7,0.9,1.9,0.9c0.7,0,1.3-0.3,1.3-1c0-1.3-3.4-1.1-3.4-3c0-1.1,0.9-1.6,2.1-1.6
			c0.6,0,1.8,0.2,1.8,1.1v0.5h-0.8v-0.3c0-0.4-0.6-0.6-1-0.6c-0.8,0-1.3,0.3-1.3,0.9c0,1.4,3.4,1,3.4,3c0,1-0.9,1.7-2.1,1.7
			c-1.6,0-2.3-1.1-2.3-1.1L571.2-230.9z"/>
		<path fill="#DC7676" d="M579.1-235.6c1.7,0,2.5,1.3,2.5,2.8c0,0.1,0,0.4,0,0.4H577c0,1.5,1.1,2.4,2.3,2.4c1.1,0,1.8-0.7,1.8-0.7
			l0.4,0.6c0,0-0.9,0.9-2.2,0.9c-1.8,0-3.2-1.3-3.2-3.2C576.1-234.4,577.5-235.6,579.1-235.6z M580.8-233c0-1.2-0.8-1.9-1.7-1.9
			c-1,0-1.9,0.6-2.1,1.9H580.8z"/>
		<path fill="#DC7676" d="M583-230.9c0,0,0.7,0.9,1.9,0.9c0.7,0,1.3-0.3,1.3-1c0-1.3-3.4-1.1-3.4-3c0-1.1,0.9-1.6,2.1-1.6
			c0.6,0,1.8,0.2,1.8,1.1v0.5H586v-0.3c0-0.4-0.6-0.6-1-0.6c-0.8,0-1.3,0.3-1.3,0.9c0,1.4,3.4,1,3.4,3c0,1-0.9,1.7-2.1,1.7
			c-1.6,0-2.3-1.1-2.3-1.1L583-230.9z"/>
		<path fill="#DC7676" d="M589.4-233.4c0-1.7-0.4-3.2-1.3-4.7h0.8c0.9,1.4,1.3,3,1.3,4.8c0,1.9-0.5,3.7-1.4,5.1H588
			C588.9-229.8,589.4-231.6,589.4-233.4z"/>
	</g>
	<g id="document_2_">
		<g>
			<g>
				<path fill="#DC7676" d="M581.8-191.7l-16-15.6c0.4,0-0.5-1.7-0.7-1.7h-0.5h-22.3c-1.4,0-2.4,1.1-2.4,2.4v51.9
					c0,1.3,1.1,2.4,2.4,2.4h37.4c1.4,0,2.4-1.1,2.4-2.4c0,0,0-35.7,0-36.1C582.2-191.1,582.1-191.4,581.8-191.7z"/>
			</g>
			<g>
				<path fill="#F8E2D2" d="M565.2-209.1v12.7c0,2.9,3.1,5,6,5h10.9L565.2-209.1z"/>
			</g>
			<g>
				<path fill="#F8E2D2" d="M573.1-162h-25c-0.3,0-0.5,0.2-0.5,0.5v1.8c0,0.3,0.2,0.5,0.5,0.5h25c0.3,0,0.5-0.2,0.5-0.5v-1.8
					C573.6-161.7,573.3-162,573.1-162z M548.1-188.9h10.5c0.3,0,0.5-0.2,0.5-0.5v-1.8c0-0.3-0.2-0.5-0.5-0.5h-10.5
					c-0.3,0-0.5,0.2-0.5,0.5v1.8C547.6-189.1,547.8-188.9,548.1-188.9z M548.1-198.5h10.5c0.3,0,0.5-0.2,0.5-0.5v-1.8
					c0-0.3-0.2-0.5-0.5-0.5h-10.5c-0.3,0-0.5,0.2-0.5,0.5v1.8C547.6-198.7,547.8-198.5,548.1-198.5z M573.1-172.5h-25
					c-0.3,0-0.5,0.2-0.5,0.5v1.8c0,0.3,0.2,0.5,0.5,0.5h25c0.3,0,0.5-0.2,0.5-0.5v-1.8C573.6-172.3,573.3-172.5,573.1-172.5z
					 M573.1-182.1h-25c-0.3,0-0.5,0.2-0.5,0.5v1.8c0,0.3,0.2,0.5,0.5,0.5h25c0.3,0,0.5-0.2,0.5-0.5v-1.8
					C573.6-181.9,573.3-182.1,573.1-182.1z"/>
			</g>
		</g>
	</g>
	<g>
		<path fill="#DC7676" d="M552.1-138.8h0.8v-6.4h-0.8v-1h2.8v1h-0.8v6.4h0.8v1h-2.8V-138.8z"/>
		<path fill="#DC7676" d="M556.6-145.2h-0.8v-1h3.4c2.6,0,4.3,1.5,4.3,4.2c0,2.7-1.7,4.2-4.3,4.2h-1.9c-0.5,0-0.8-0.2-0.8-0.8
			V-145.2z M558.1-138.8h1.1c1.9,0,3.1-1.1,3.1-3.2c0-2.1-1.2-3.2-3.1-3.2h-1.4v6.1C557.8-138.9,557.9-138.8,558.1-138.8z"/>
		<path fill="#DC7676" d="M565.2-145c0-0.2-0.1-0.3-0.3-0.3h-0.5v-1h1.2c0.5,0,0.8,0.2,0.8,0.8v6.4c0,0.2,0.1,0.3,0.3,0.3h2.3
			c0.2,0,0.3-0.1,0.3-0.3v-0.5h1.1v1.1c0,0.5-0.2,0.8-0.8,0.8H566c-0.5,0-0.8-0.2-0.8-0.8V-145z"/>
		<path fill="#DC7676" d="M538.2-132.1h0.8c-0.9,1.5-1.3,3-1.3,4.7c0,1.8,0.5,3.6,1.4,5.2h-0.8c-0.9-1.4-1.4-3.3-1.4-5.1
			C536.9-129.1,537.3-130.7,538.2-132.1z"/>
		<path fill="#DC7676" d="M540.4-124.9c0,0,0.7,0.9,1.9,0.9c0.7,0,1.3-0.3,1.3-1c0-1.3-3.4-1.1-3.4-3c0-1.1,0.9-1.6,2.1-1.6
			c0.6,0,1.8,0.2,1.8,1.1v0.5h-0.8v-0.3c0-0.4-0.6-0.6-1-0.6c-0.8,0-1.3,0.3-1.3,0.9c0,1.4,3.4,1,3.4,3c0,1-0.9,1.7-2.1,1.7
			c-1.6,0-2.3-1.1-2.3-1.1L540.4-124.9z"/>
		<path fill="#DC7676" d="M548.5-129.6c0.7,0,2.1,0.3,2.1,1.3v0.5h-0.8v-0.3c0-0.5-0.9-0.7-1.4-0.7c-1.3,0-2.3,1-2.3,2.4
			c0,1.5,1.1,2.4,2.4,2.4c1.2,0,1.9-0.9,1.9-0.9l0.4,0.6c0,0-0.8,1-2.4,1c-1.8,0-3.2-1.3-3.2-3.2
			C545.3-128.2,546.7-129.6,548.5-129.6z"/>
		<path fill="#DC7676" d="M552.2-130.8c0-0.2-0.1-0.3-0.3-0.3h-0.5v-0.7h0.9c0.5,0,0.7,0.2,0.7,0.7v2.6c0,0.3,0,0.5,0,0.5h0
			c0.2-0.6,1-1.5,2.4-1.5c1.5,0,2,0.9,2,2.3v2.9c0,0.2,0.1,0.3,0.3,0.3h0.5v0.7h-0.9c-0.5,0-0.7-0.2-0.7-0.7v-2.9
			c0-0.9-0.1-1.8-1.3-1.8c-1,0-1.9,0.7-2.2,1.7c-0.1,0.2-0.1,0.5-0.1,0.8v2.9h-0.8V-130.8z"/>
		<path fill="#DC7676" d="M561.9-129.6c1.7,0,2.5,1.3,2.5,2.8c0,0.1,0,0.4,0,0.4h-4.6c0,1.5,1.1,2.4,2.3,2.4c1.1,0,1.8-0.7,1.8-0.7
			l0.4,0.6c0,0-0.9,0.9-2.2,0.9c-1.8,0-3.2-1.3-3.2-3.2C558.9-128.4,560.3-129.6,561.9-129.6z M563.6-127c0-1.2-0.8-1.9-1.7-1.9
			c-1,0-1.9,0.6-2.1,1.9H563.6z"/>
		<path fill="#DC7676" d="M566-128.5c0-0.2-0.1-0.3-0.3-0.3h-0.5v-0.7h0.8c0.5,0,0.7,0.2,0.7,0.7v0.3c0,0.2,0,0.4,0,0.4h0
			c0.3-0.8,1.2-1.5,2.2-1.5c1.1,0,1.7,0.5,1.9,1.5h0c0.3-0.8,1.2-1.5,2.2-1.5c1.5,0,2,0.9,2,2.3v2.9c0,0.2,0.1,0.3,0.3,0.3h0.5v0.7
			h-0.9c-0.5,0-0.7-0.2-0.7-0.7v-2.9c0-1-0.2-1.8-1.3-1.8c-0.9,0-1.7,0.8-1.9,1.7c-0.1,0.3-0.1,0.6-0.1,0.9v2.9h-0.8v-3.6
			c0-0.9-0.1-1.8-1.3-1.8c-1,0-1.7,0.9-2,1.8c-0.1,0.3-0.1,0.5-0.1,0.8v2.9H566V-128.5z"/>
		<path fill="#DC7676" d="M580.4-127.1h0.3v-0.1c0-1.3-0.5-1.7-1.6-1.7c-0.3,0-1.2,0.1-1.2,0.5v0.4h-0.8v-0.6c0-0.8,1.4-1,2-1
			c1.9,0,2.4,1,2.4,2.3v2.9c0,0.2,0.1,0.3,0.3,0.3h0.5v0.7h-0.8c-0.5,0-0.7-0.2-0.7-0.7c0-0.3,0-0.4,0-0.4h0c0,0-0.5,1.3-2,1.3
			c-1,0-2.1-0.6-2.1-1.8C576.7-127,579.3-127.1,580.4-127.1z M578.8-123.9c1.2,0,1.8-1.2,1.8-2.2v-0.3h-0.3c-0.9,0-2.8,0-2.8,1.4
			C577.5-124.5,577.9-123.9,578.8-123.9z"/>
		<path fill="#DC7676" d="M584.5-127.4c0-1.7-0.4-3.2-1.3-4.7h0.8c0.9,1.4,1.3,3,1.3,4.8c0,1.9-0.5,3.7-1.4,5.1h-0.8
			C584-123.8,584.5-125.6,584.5-127.4z"/>
	</g>
	<g>
		
			<linearGradient id="polygon3282_1_" gradientUnits="userSpaceOnUse" x1="826.9694" y1="-1258.2953" x2="818.2576" y2="-1242.9142" gradientTransform="matrix(1 0 0 -1 0 -1414.6666)">
			<stop  offset="0" style="stop-color:#F37657"/>
			<stop  offset="0" style="stop-color:#F37657"/>
			<stop  offset="0.41" style="stop-color:#E32F26"/>
			<stop  offset="0.99" style="stop-color:#991B1E"/>
			<stop  offset="1" style="stop-color:#991B1E"/>
		</linearGradient>
		<polygon id="polygon3282" fill="url(#polygon3282_1_)" points="822.7,-174.1 799.1,-160.1 829.6,-162.2 832,-193 		"/>
		
			<linearGradient id="polygon3293_1_" gradientUnits="userSpaceOnUse" x1="831.3093" y1="-1245.3744" x2="820.0818" y2="-1237.8401" gradientTransform="matrix(1 0 0 -1 0 -1414.6666)">
			<stop  offset="0" style="stop-color:#861719"/>
			<stop  offset="0" style="stop-color:#861719"/>
			<stop  offset="0.99" style="stop-color:#911A1D"/>
			<stop  offset="1" style="stop-color:#911A1D"/>
		</linearGradient>
		<polygon id="polygon3293" fill="url(#polygon3293_1_)" points="829.7,-162.2 827.1,-180.3 819.9,-170.9 		"/>
		
			<linearGradient id="polygon3304_1_" gradientUnits="userSpaceOnUse" x1="822.3261" y1="-1258.7614" x2="811.099" y2="-1251.2272" gradientTransform="matrix(1 0 0 -1 0 -1414.6666)">
			<stop  offset="0" style="stop-color:#861719"/>
			<stop  offset="0" style="stop-color:#861719"/>
			<stop  offset="0.99" style="stop-color:#911A1D"/>
			<stop  offset="1" style="stop-color:#911A1D"/>
		</linearGradient>
		<polygon id="polygon3304" fill="url(#polygon3304_1_)" points="829.7,-162.2 810.5,-163.7 799.2,-160.2 		"/>
		
			<linearGradient id="polygon3319_1_" gradientUnits="userSpaceOnUse" x1="798.7531" y1="-1239.9205" x2="800.4935" y2="-1251.2321" gradientTransform="matrix(1 0 0 -1 0 -1414.6666)">
			<stop  offset="0" style="stop-color:#FFFFFF"/>
			<stop  offset="0" style="stop-color:#FFFFFF"/>
			<stop  offset="0.23" style="stop-color:#E57353"/>
			<stop  offset="0.46" style="stop-color:#DE3E26"/>
			<stop  offset="0.99" style="stop-color:#A51E22"/>
			<stop  offset="1" style="stop-color:#A51E22"/>
		</linearGradient>
		<polygon id="polygon3319" fill="url(#polygon3319_1_)" points="799.2,-160.2 804,-175.9 793.5,-173.6 		"/>
		
			<linearGradient id="polygon3334_1_" gradientUnits="userSpaceOnUse" x1="810.7245" y1="-1229.3584" x2="811.3658" y2="-1240.9025" gradientTransform="matrix(1 0 0 -1 0 -1414.6666)">
			<stop  offset="0" style="stop-color:#FFFFFF"/>
			<stop  offset="0" style="stop-color:#FFFFFF"/>
			<stop  offset="0.23" style="stop-color:#E3714E"/>
			<stop  offset="0.56" style="stop-color:#BD2026"/>
			<stop  offset="0.99" style="stop-color:#A71E22"/>
			<stop  offset="1" style="stop-color:#A71E22"/>
		</linearGradient>
		<polygon id="polygon3334" fill="url(#polygon3334_1_)" points="819.9,-170.8 815.5,-188.1 802.8,-176.3 		"/>
		
			<linearGradient id="polygon3349_1_" gradientUnits="userSpaceOnUse" x1="821.3482" y1="-1218.688" x2="823.2681" y2="-1226.9615" gradientTransform="matrix(1 0 0 -1 0 -1414.6666)">
			<stop  offset="0" style="stop-color:#FFFFFF"/>
			<stop  offset="0" style="stop-color:#FFFFFF"/>
			<stop  offset="0.18" style="stop-color:#E46342"/>
			<stop  offset="0.4" style="stop-color:#C72A27"/>
			<stop  offset="0.99" style="stop-color:#A71E22"/>
			<stop  offset="1" style="stop-color:#A71E22"/>
		</linearGradient>
		<polygon id="polygon3349" fill="url(#polygon3349_1_)" points="831,-187.9 819,-197.7 815.7,-186.9 		"/>
		
			<linearGradient id="polygon3362_1_" gradientUnits="userSpaceOnUse" x1="815.4857" y1="-1215.7743" x2="823.7587" y2="-1211.6378" gradientTransform="matrix(1 0 0 -1 0 -1414.6666)">
			<stop  offset="0" style="stop-color:#FFFFFF"/>
			<stop  offset="0" style="stop-color:#FFFFFF"/>
			<stop  offset="0.54" style="stop-color:#C82527"/>
			<stop  offset="0.99" style="stop-color:#BE2026"/>
			<stop  offset="1" style="stop-color:#BE2026"/>
		</linearGradient>
		<polygon id="polygon3362" fill="url(#polygon3362_1_)" points="825.4,-201.1 818.4,-197.3 813.9,-201.2 		"/>
		
			<linearGradient id="polygon3375_1_" gradientUnits="userSpaceOnUse" x1="791.5013" y1="-1237.0367" x2="792.1822" y2="-1243.854" gradientTransform="matrix(1 0 0 -1 0 -1414.6666)">
			<stop  offset="0" style="stop-color:#FFFFFF"/>
			<stop  offset="0" style="stop-color:#FFFFFF"/>
			<stop  offset="0.31" style="stop-color:#DD4326"/>
			<stop  offset="0.99" style="stop-color:#BE2026"/>
			<stop  offset="1" style="stop-color:#BE2026"/>
		</linearGradient>
		<polygon id="polygon3375" fill="url(#polygon3375_1_)" points="790.7,-168.3 793.6,-173.7 791.3,-180.1 		"/>
		<path id="path3377"  fill="#FFFFFF" d="M791.1-180.3l2.4,6.8l10.4-2.3l11.9-11.1l3.4-10.7
			l-5.3-3.7l-9,3.4c-2.8,2.6-8.3,7.8-8.5,7.9C796.2-189.9,792.7-183.4,791.1-180.3z"/>
		
			<linearGradient id="path3400_1_" gradientUnits="userSpaceOnUse" x1="786.82" y1="-1245.6968" x2="818.8286" y2="-1212.7831" gradientTransform="matrix(1 0 0 -1 0 -1414.6666)">
			<stop  offset="0" style="stop-color:#BD2025"/>
			<stop  offset="0" style="stop-color:#BD2025"/>
			<stop  offset="7.000000e-002" style="stop-color:#FFFFFF"/>
			<stop  offset="0.17" style="stop-color:#FFFFFF"/>
			<stop  offset="0.27" style="stop-color:#C83227"/>
			<stop  offset="0.33" style="stop-color:#811517"/>
			<stop  offset="0.46" style="stop-color:#A21D21"/>
			<stop  offset="0.72" style="stop-color:#B21F24"/>
			<stop  offset="0.99" style="stop-color:#E62C25"/>
			<stop  offset="1" style="stop-color:#E62C25"/>
		</linearGradient>
		<path id="path3400"  fill="url(#path3400_1_)" d="M799.5-192.5c6.1-6.1,14-9.7,17.1-6.6
			c3,3.1-0.2,10.5-6.3,16.6c-6.1,6.1-13.9,9.9-17,6.8C790.3-178.8,793.4-186.5,799.5-192.5z"/>
		
			<linearGradient id="path3413_1_" gradientUnits="userSpaceOnUse" x1="811.3377" y1="-1249.0167" x2="801.6964" y2="-1246.6372" gradientTransform="matrix(1 0 0 -1 0 -1414.6666)">
			<stop  offset="0" style="stop-color:#8B181B"/>
			<stop  offset="0" style="stop-color:#8B181B"/>
			<stop  offset="0.54" style="stop-color:#991B1F"/>
			<stop  offset="0.99" style="stop-color:#A71E22"/>
			<stop  offset="1" style="stop-color:#A71E22"/>
		</linearGradient>
		<path id="path3413"  fill="url(#path3413_1_)" d="M799.2-160.2l4.8-15.8l15.8,5.1
			C814.1-165.5,807.7-161,799.2-160.2z"/>
		
			<linearGradient id="path3424_1_" gradientUnits="userSpaceOnUse" x1="827.8975" y1="-1237.4452" x2="819.3325" y2="-1229.7687" gradientTransform="matrix(1 0 0 -1 0 -1414.6666)">
			<stop  offset="0" style="stop-color:#7E1416"/>
			<stop  offset="0" style="stop-color:#7E1416"/>
			<stop  offset="0.99" style="stop-color:#9E1C20"/>
			<stop  offset="1" style="stop-color:#9E1C20"/>
		</linearGradient>
		<path id="path3424"  fill="url(#path3424_1_)" d="M815.8-186.9l4.1,16.1
			c4.8-5,9.1-10.4,11.2-17.1C831-188,815.8-186.9,815.8-186.9z"/>
		
			<linearGradient id="path3435_1_" gradientUnits="userSpaceOnUse" x1="831.0442" y1="-1223.3602" x2="826.7778" y2="-1218.7992" gradientTransform="matrix(1 0 0 -1 0 -1414.6666)">
			<stop  offset="0" style="stop-color:#791715"/>
			<stop  offset="0" style="stop-color:#791715"/>
			<stop  offset="0.99" style="stop-color:#9E1D20"/>
			<stop  offset="1" style="stop-color:#9E1D20"/>
		</linearGradient>
		<path id="path3435"  fill="url(#path3435_1_)" d="M831-187.9c1.6-4.9,2-11.9-5.7-13.3l-6.3,3.5
			L831-187.9z"/>
		<path id="path3437"  fill="#9E1D20" d="M790.7-168.4c0.2,8.1,6.1,8.2,8.6,8.3l-5.7-13.4
			L790.7-168.4z"/>
		
			<radialGradient id="path3448_1_" cx="820.6662" cy="-1229.9154" r="10.496" gradientTransform="matrix(1 0 0 -1 0 -1414.6666)" gradientUnits="userSpaceOnUse">
			<stop  offset="0" style="stop-color:#A71E22"/>
			<stop  offset="0" style="stop-color:#A71E22"/>
			<stop  offset="0.99" style="stop-color:#7E1416"/>
			<stop  offset="1" style="stop-color:#7E1416"/>
		</radialGradient>
		<path id="path3448"  fill="url(#path3448_1_)" d="M815.8-186.9c3.7,2.3,11.1,6.8,11.2,6.9
			c0.2,0.1,3.2-5,3.9-7.9C830.9-187.9,815.8-186.9,815.8-186.9z"/>
		
			<radialGradient id="path3459_1_" cx="806.1306" cy="-1243.7473" r="13.953" gradientTransform="matrix(1 0 0 -1 0 -1414.6666)" gradientUnits="userSpaceOnUse">
			<stop  offset="0" style="stop-color:#A21D21"/>
			<stop  offset="0" style="stop-color:#A21D21"/>
			<stop  offset="0.99" style="stop-color:#811517"/>
			<stop  offset="1" style="stop-color:#811517"/>
		</radialGradient>
		<path id="path3459"  fill="url(#path3459_1_)" d="M804-175.9l6.4,12.3c3.8-2,6.7-4.5,9.4-7.2
			L804-175.9z"/>
		
			<linearGradient id="path3472_1_" gradientUnits="userSpaceOnUse" x1="796.2465" y1="-1254.4991" x2="792.7697" y2="-1242.7034" gradientTransform="matrix(1 0 0 -1 0 -1414.6666)">
			<stop  offset="0" style="stop-color:#8C231C"/>
			<stop  offset="0" style="stop-color:#8C231C"/>
			<stop  offset="0.43" style="stop-color:#9E1D20"/>
			<stop  offset="0.99" style="stop-color:#B22024"/>
			<stop  offset="1" style="stop-color:#B22024"/>
		</linearGradient>
		<path id="path3472"  fill="url(#path3472_1_)" d="M793.5-173.5l-0.9,10.7c1.7,2.3,4,2.5,6.5,2.3
			C797.3-164.9,793.7-173.7,793.5-173.5z"/>
		
			<linearGradient id="path3485_1_" gradientUnits="userSpaceOnUse" x1="822.9193" y1="-1215.4109" x2="830.7141" y2="-1218.8516" gradientTransform="matrix(1 0 0 -1 0 -1414.6666)">
			<stop  offset="0" style="stop-color:#B21F24"/>
			<stop  offset="0" style="stop-color:#B21F24"/>
			<stop  offset="0.44" style="stop-color:#911A1D"/>
			<stop  offset="0.99" style="stop-color:#791E15"/>
			<stop  offset="1" style="stop-color:#791E15"/>
		</linearGradient>
		<path id="path3485"  fill="url(#path3485_1_)" d="M819-197.6l12.7,1.8c-0.7-2.9-2.7-4.7-6.3-5.3
			L819-197.6z"/>
	</g>
	<g>
		<rect x="790.7" y="-351.3" fill="#F6DF1B" width="45.3" height="45.3"/>
		<path fill="#010101" d="M821.1-315.9c0.9,1.5,2.1,2.6,4.2,2.6c1.8,0,2.9-0.9,2.9-2.1c0-1.5-1.2-2-3.1-2.8l-1.1-0.5
			c-3.1-1.3-5.1-2.9-5.1-6.4c0-3.2,2.4-5.6,6.2-5.6c2.7,0,4.7,0.9,6.1,3.4l-3.3,2.1c-0.7-1.3-1.5-1.8-2.7-1.8c-1.2,0-2,0.8-2,1.8
			c0,1.3,0.8,1.8,2.6,2.6l1.1,0.5c3.6,1.6,5.7,3.1,5.7,6.7c0,3.8-3,5.9-7.1,5.9c-4,0-6.5-1.9-7.8-4.4L821.1-315.9z M806.1-315.5
			c0.7,1.2,1.3,2.2,2.7,2.2c1.4,0,2.3-0.5,2.3-2.7v-14.5h4.3v14.5c0,4.4-2.6,6.4-6.4,6.4c-3.4,0-5.4-1.8-6.4-3.9L806.1-315.5z"/>
	</g>
	<g>
		<path id="path46" fill="#656565" d="M836-109.8c0-3.7-1-5.6-3.1-5.7c-0.8,0-1.7,0.1-2.4,0.4c-0.6,0.2-1.1,0.5-1.3,0.7v8.8
			c1.3,0.8,2.5,1.2,3.6,1.2C834.8-104.6,836-106.4,836-109.8z M838.5-109.7c0,1.9-0.4,3.4-1.3,4.7c-1,1.4-2.3,2.1-4.1,2.2
			c-1.3,0-2.7-0.4-4.1-1.2v8l-2.3-0.8v-17.7c0.4-0.5,0.8-0.8,1.4-1.2c1.3-0.8,3-1.2,4.9-1.2l0,0c1.8,0,3.1,0.7,4.1,2.2
			C838.1-113.5,838.5-111.8,838.5-109.7z"/>
		<path id="path48" fill="#656565" d="M852.3-104.4c0,2.5-0.3,4.2-0.8,5.2c-0.5,1-1.5,1.7-2.9,2.3c-1.2,0.5-2.4,0.7-3.7,0.7
			l-0.4-1.4c1.4-0.2,2.3-0.4,2.9-0.6c1.1-0.4,1.8-0.9,2.3-1.7c0.3-0.6,0.5-1.8,0.5-3.5v-0.6c-1.5,0.7-3.2,1-4.8,1
			c-1.1,0-2.1-0.3-2.9-1c-0.9-0.8-1.4-1.7-1.4-2.9v-9.4l2.3-0.8v9.4c0,1,0.3,1.8,1,2.3c0.7,0.5,1.5,0.8,2.5,0.8c1,0,2.1-0.4,3.3-1.2
			v-11h2.3V-104.4z"/>
		<path id="path50" fill="#656565" d="M861.1-103c-0.3,0-0.5,0-0.7,0c-1.3,0-2.3-0.3-3-0.9c-0.7-0.6-1.1-1.4-1.1-2.5v-8.9h-1.5v-1.4
			h1.5v-3.8l2.3-0.8v4.6h2.5v1.4h-2.5v8.8c0,0.8,0.2,1.4,0.7,1.8c0.4,0.3,1,0.5,1.9,0.5V-103z"/>
		<path id="path52" fill="#656565" d="M874.7-103.2h-2.3v-8.7c0-0.9-0.2-1.6-0.6-2.3c-0.5-0.7-1.1-1.1-2-1.1c-1,0-2.3,0.5-3.9,1.6
			v10.4h-2.3v-20.8l2.3-0.7v9.5c1.4-1,3-1.6,4.7-1.6c1.2,0,2.2,0.4,2.9,1.2c0.7,0.8,1.1,1.8,1.1,3V-103.2L874.7-103.2z"/>
		<path id="path54" fill="#656565" d="M886.7-110.2c0-1.4-0.3-2.6-0.8-3.5c-0.6-1.1-1.6-1.7-3-1.8c-2.5,0.1-3.7,1.9-3.7,5.3
			c0,1.6,0.3,2.9,0.8,3.9c0.7,1.3,1.7,2,3,2C885.5-104.3,886.7-106.3,886.7-110.2z M889.2-110.2c0,2-0.5,3.7-1.5,5
			c-1.1,1.5-2.7,2.3-4.7,2.3c-2,0-3.5-0.8-4.6-2.3c-1-1.3-1.5-3-1.5-5c0-1.9,0.5-3.5,1.6-4.8c1.2-1.4,2.7-2.1,4.5-2.1
			s3.4,0.7,4.6,2.1C888.6-113.6,889.2-112.1,889.2-110.2z"/>
		<path id="path56" fill="#656565" d="M902.1-103.2h-2.3v-9.2c0-1-0.3-1.8-0.9-2.4c-0.6-0.6-1.4-0.8-2.4-0.8c-1.1,0-2.1,0.4-3.1,1
			v11.3h-2.3v-11.6c1.3-0.9,2.5-1.6,3.6-1.8c1-0.3,1.9-0.4,2.7-0.4c0.5,0,1,0.1,1.5,0.2c0.9,0.2,1.6,0.6,2.2,1.1
			c0.6,0.6,0.9,1.4,0.9,2.2V-103.2z"/>
		
			<linearGradient id="path1948_1_" gradientUnits="userSpaceOnUse" x1="2207.718" y1="-2046.6027" x2="2235.2813" y2="-2070.3174" gradientTransform="matrix(0.5625 0 0 -0.568 -451.9337 -1285.4673)">
			<stop  offset="0" style="stop-color:#5C9FD3"/>
			<stop  offset="1" style="stop-color:#316A99"/>
		</linearGradient>
		<path id="path1948" fill="url(#path1948_1_)" d="M804.6-123.9c-1.2,0-2.3,0.1-3.2,0.3c-2.9,0.5-3.4,1.6-3.4,3.5v2.6h6.8v0.9h-6.8
			h-2.5c-2,0-3.7,1.2-4.2,3.4c-0.6,2.6-0.7,4.2,0,6.9c0.5,2,1.6,3.4,3.6,3.4h2.3v-3.1c0-2.2,1.9-4.2,4.2-4.2h6.8
			c1.9,0,3.4-1.6,3.4-3.4v-6.5c0-1.8-1.5-3.2-3.4-3.5C806.9-123.8,805.7-123.9,804.6-123.9z M800.9-121.8c0.7,0,1.3,0.6,1.3,1.3
			c0,0.7-0.6,1.3-1.3,1.3c-0.7,0-1.3-0.6-1.3-1.3C799.6-121.2,800.2-121.8,800.9-121.8z"/>
		
			<linearGradient id="path1950_1_" gradientUnits="userSpaceOnUse" x1="2245.9375" y1="-2084.6704" x2="2236.0947" y2="-2070.7444" gradientTransform="matrix(0.5625 0 0 -0.568 -451.9337 -1285.4673)">
			<stop  offset="0" style="stop-color:#FFD43D"/>
			<stop  offset="1" style="stop-color:#FEE875"/>
		</linearGradient>
		<path id="path1950" fill="url(#path1950_1_)" d="M812.3-116.6v3c0,2.3-2,4.3-4.2,4.3h-6.8c-1.9,0-3.4,1.6-3.4,3.4v6.5
			c0,1.8,1.6,2.9,3.4,3.4c2.1,0.6,4.2,0.7,6.8,0c1.7-0.5,3.4-1.5,3.4-3.4v-2.6h-6.8v-0.9h6.8h3.4c2,0,2.7-1.4,3.4-3.4
			c0.7-2.1,0.7-4.2,0-6.9c-0.5-2-1.4-3.4-3.4-3.4H812.3z M808.5-100.3c0.7,0,1.3,0.6,1.3,1.3c0,0.7-0.6,1.3-1.3,1.3
			c-0.7,0-1.3-0.6-1.3-1.3C807.3-99.7,807.8-100.3,808.5-100.3z"/>
		<path id="text3004" fill="#656565" d="M906.5-118.7h0.4v-2.5h0.9v-0.3h-2.3v0.3h0.9
			V-118.7 M908.2-118.7h0.3v-2.3l0.7,2.3h0.4l0.8-2.3v2.3h0.4v-2.8h-0.5l-0.8,2.4l-0.7-2.4h-0.5V-118.7"/>
		
			<radialGradient id="path1894_1_" cx="-4607.8032" cy="-2107.6436" r="7.3416" gradientTransform="matrix(1.749057e-008 -0.2399 -1.0547 -3.791546e-007 -1418.0638 -1197.205)" gradientUnits="userSpaceOnUse">
			<stop  offset="0" style="stop-color:#B9B9B9;stop-opacity:0.498"/>
			<stop  offset="1" style="stop-color:#808080;stop-opacity:0"/>
		</radialGradient>
		
			<path id="path1894" opacity="0.4438" fill="url(#path1894_1_)" enable-background="new    " d="
			M813.9-91.6c0,1-4.1,1.8-9.1,1.8s-9.1-0.8-9.1-1.8s4.1-1.8,9.1-1.8S813.9-92.5,813.9-91.6z"/>
	</g>
	<g>
		<g>
			
				<line fill="none" stroke="#FAAE24" stroke-width="4" stroke-linecap="round" stroke-miterlimit="10" x1="594.5" y1="-107.2" x2="760" y2="-107.2"/>
			<g>
				<polygon fill="#FAAE24" points="757.1,-97.3 774.4,-107.2 757.1,-117.2 				"/>
			</g>
		</g>
	</g>
	<g>
		<g>
			
				<line fill="none" stroke="#FAAE24" stroke-width="4" stroke-linecap="round" stroke-miterlimit="10" x1="650.1" y1="-180.7" x2="760" y2="-180.7"/>
			<g>
				<polygon fill="#FAAE24" points="757.1,-170.7 774.4,-180.7 757.1,-190.7 				"/>
			</g>
		</g>
	</g>
	<g>
		<g>
			
				<line fill="none" stroke="#FAAE24" stroke-width="4" stroke-linecap="round" stroke-miterlimit="10" x1="648.1" y1="-263.9" x2="760" y2="-263.9"/>
			<g>
				<polygon fill="#FAAE24" points="757.1,-253.9 774.4,-263.9 757.1,-273.8 				"/>
			</g>
		</g>
	</g>
	<g>
		<g>
			
				<line fill="none" stroke="#FAAE24" stroke-width="4" stroke-linecap="round" stroke-miterlimit="10" x1="599.9" y1="-328.6" x2="760" y2="-328.6"/>
			<g>
				<polygon fill="#FAAE24" points="757.1,-318.6 774.4,-328.6 757.1,-338.6 				"/>
			</g>
		</g>
	</g>
</g>
<g id="Layer_4">
	<g>
		<line fill="#FAAE24" x1="253.9" y1="-288.9" x2="190" y2="-288.9"/>
		<g>
			
				<line fill="none" stroke="#FAAE24" stroke-width="7" stroke-linecap="round" stroke-miterlimit="10" x1="253.9" y1="-288.9" x2="215.1" y2="-288.9"/>
			<g>
				<polygon fill="#FAAE24" points="220.2,-306.3 190,-288.9 220.2,-271.4 				"/>
			</g>
		</g>
	</g>
	<g>
		<line fill="#FAAE24" x1="103.1" y1="-289.1" x2="39.2" y2="-289.1"/>
		<g>
			
				<line fill="none" stroke="#FAAE24" stroke-width="7" stroke-linecap="round" stroke-miterlimit="10" x1="103.1" y1="-289.1" x2="64.3" y2="-289.1"/>
			<g>
				<polygon fill="#FAAE24" points="69.4,-306.6 39.2,-289.1 69.4,-271.7 				"/>
			</g>
		</g>
	</g>
</g>
<g id="Layer_5">
	<g>
		<path fill="#FAAE24" d="M299.7-158.7h-25.2c-4.4,0-7.9-3.5-7.9-7.9v-181.6c0-4.4,3.5-7.9,7.9-7.9h25.2c4.4,0,7.9,3.5,7.9,7.9
			v181.6C307.6-162.2,304-158.7,299.7-158.7z"/>
		<g>
			<path fill="#FFFFFF" d="M275.3-208.4c0-4.9,2.5-7.2,2.5-7.2l2.1,1.6c0,0-2,2.2-2,5.5c0,4,3.2,7.3,7.8,7.3c4.7,0,7.9-3.2,7.9-7.3
				c0-3.6-2.5-5.8-2.5-5.8h-2c-0.4,0-0.6,0.2-0.6,0.6v1.2h-2.5v-2.7c0-1.3,0.5-1.8,1.8-1.8h8.2v2.5h-1.3c-0.4,0-0.9,0-0.9,0v0.1
				c0,0,2.5,2.3,2.5,6.3c0,5.4-4.2,9.9-10.6,9.9C279.8-198.2,275.3-202.6,275.3-208.4z"/>
			<path fill="#FFFFFF" d="M284.4-221c-0.4,0-0.6,0.2-0.6,0.6v1.2h-2.4v-2.6c0-1.3,0.5-1.9,1.7-1.9h0.9c0.6,0,1,0.1,1,0.1v-0.1
				c-2.1-0.7-3.8-2.4-3.8-4.6c0-0.4,0.1-0.7,0.1-0.7h2.8c0,0-0.1,0.4-0.1,0.8c0,1.8,1.3,3.4,3.4,4.1c0.8,0.3,1.7,0.3,2.6,0.3h5.9
				v2.8H284.4z"/>
			<path fill="#FFFFFF" d="M286.8-238.6v-0.6h-0.1c-2.6,0-3.5,0.9-3.5,3.2c0,0.7,0.2,2.4,1.1,2.4h0.8v2.6h-1.4c-2.4,0-2.7-3.6-2.7-5
				c0-4.7,2.5-6,5.7-6h6.2c0.4,0,0.6-0.2,0.6-0.6v-1.2h2.4v2.6c0,1.3-0.6,1.8-1.7,1.8c-0.5,0-0.9-0.1-0.9-0.1v0.1
				c0,0,2.9,1.1,2.9,4.6c0,2.5-1.5,4.9-4.4,4.9C287.1-229.8,286.8-236.1,286.8-238.6z M294-235.4c0-2.4-2.5-3.9-4.6-3.9h-0.5v0.7
				c0,2.1,0.1,5.9,2.8,5.9C292.8-232.6,294-233.5,294-235.4z"/>
			<path fill="#FFFFFF" d="M284.4-246.8c-0.4,0-0.6,0.2-0.6,0.6v1.2h-2.4v-2.6c0-1.3,0.5-1.8,1.5-1.8c0.4,0,0.8,0,0.8,0v-0.1
				c0,0-2.6-1.2-2.6-4.8c0-3.9,3.1-6.4,7.6-6.4c4.6,0,7.6,2.8,7.6,6.6c0,3.2-2.3,4.4-2.3,4.4v0.1c0,0,0.5-0.1,1.3-0.1h6.5v2.8H284.4
				z M293.8-253.6c0-2.3-1.9-4.2-5.2-4.2c-3.2,0-5.2,1.7-5.2,4.1c0,2.2,1.5,4.2,5.2,4.2C291.2-249.5,293.8-250.9,293.8-253.6z"/>
			<path fill="#FFFFFF" d="M278.6-263.8c-0.4,0-0.6,0.2-0.6,0.6v1.2h-2.4v-2.8c0-1.3,0.5-1.8,1.8-1.8h5.7c0.7,0,1.2,0.1,1.2,0.1
				v-0.1c-1.4-0.6-3.2-2.5-3.2-5.4c0-3.4,1.9-5,5.6-5h6.3c0.4,0,0.6-0.2,0.6-0.6v-1.2h2.4v2.7c0,1.3-0.5,1.8-1.8,1.8h-6.8
				c-2,0-3.6,0.4-3.6,2.8c0,2.2,1.5,4,3.6,4.6c0.6,0.2,1.2,0.3,1.9,0.3h6.8v2.8H278.6z"/>
			<path fill="#FFFFFF" d="M275.3-290.6c0-5.9,4.5-10.4,10.4-10.4c2.5,0,4.9,0.9,6.7,2.4l2.3-2.3l1.8,1.7l-2.3,2.3
				c1.4,1.8,2.2,4,2.2,6.3c0,5.9-4.7,10.4-10.6,10.4C279.8-280.3,275.3-284.8,275.3-290.6z M293.5-290.6c0-2.7-1.4-4.3-1.4-4.3
				l-2.2,2.2l-1.9-1.7l2.3-2.2c-1.3-0.9-3-1.5-4.7-1.5c-4.4,0-7.7,3.3-7.7,7.5c0,4.1,3.3,7.4,7.7,7.4
				C290.1-283.2,293.5-286.5,293.5-290.6z"/>
			<path fill="#FFFFFF" d="M278.7-305c-0.4,0-0.6,0.2-0.6,0.6v1.2h-2.5v-2.9c0-1.3,0.5-1.8,1.8-1.8h15.3c0.4,0,0.6-0.2,0.6-0.6v-5.6
				c0-0.4-0.2-0.6-0.6-0.6h-1.3v-2.6h2.6c1.3,0,1.8,0.5,1.8,1.8v8.7c0,1.3-0.5,1.8-1.8,1.8H278.7z"/>
		</g>
	</g>
	<g>
		<path fill="#F8E2D2" d="M171.7-265.8h-47.7c-4.4,0-7.9-3.5-7.9-7.9v-34.6c0-4.4,3.5-7.9,7.9-7.9h47.7c4.4,0,7.9,3.5,7.9,7.9v34.6
			C179.7-269.4,176.1-265.8,171.7-265.8z"/>
		<g>
			<path fill="#F8E2D2" d="M107.9-336.3c-0.1-0.4-0.4-0.5-0.7-0.5h-0.3v-1.9h1.2c1.1,0,1.5,0.2,1.8,1.3l3.4,9.6
				c0.3,0.8,0.6,2.1,0.6,2.1h0c0,0,0.3-1.3,0.6-2.1l3.4-9.6c0.4-1,0.7-1.3,1.8-1.3h1.2v1.9h-0.3c-0.4,0-0.6,0.1-0.7,0.5l-4.9,13.1
				h-2.3L107.9-336.3z"/>
			<path fill="#F8E2D2" d="M127.8-330h0.5v-0.1c0-2-0.7-2.7-2.5-2.7c-0.5,0-1.8,0.1-1.8,0.9v0.6h-2v-1.1c0-1.8,2.8-2.1,3.8-2.1
				c3.6,0,4.6,1.9,4.6,4.4v4.7c0,0.3,0.2,0.5,0.5,0.5h0.9v1.8h-2c-1,0-1.4-0.5-1.4-1.3c0-0.4,0-0.7,0-0.7h0c0,0-0.9,2.2-3.5,2.2
				c-1.9,0-3.8-1.2-3.8-3.4C121.1-329.8,126-330,127.8-330z M125.4-324.6c1.8,0,3-1.9,3-3.5v-0.4h-0.5c-1.6,0-4.5,0.1-4.5,2.1
				C123.3-325.4,124-324.6,125.4-324.6z"/>
			<path fill="#F8E2D2" d="M134.1-336.3c0-0.3-0.2-0.5-0.5-0.5h-0.9v-1.8h2.1c1,0,1.4,0.4,1.4,1.4v11.8c0,0.3,0.2,0.5,0.5,0.5h0.9
				v1.8h-2.1c-1,0-1.4-0.4-1.4-1.4V-336.3z"/>
			<path fill="#F8E2D2" d="M140.1-331.9c0-0.3-0.2-0.5-0.5-0.5h-0.9v-1.8h2.1c1,0,1.4,0.4,1.4,1.4v7.4c0,0.3,0.2,0.5,0.5,0.5h0.9
				v1.8h-2.1c-1,0-1.4-0.4-1.4-1.4V-331.9z M140.2-338.6h1.9v2.2h-1.9V-338.6z"/>
			<path fill="#F8E2D2" d="M150.1-334.5c2.6,0,3.4,1.7,3.4,1.7h0c0,0,0-0.3,0-0.7v-2.8c0-0.3-0.2-0.5-0.5-0.5h-0.9v-1.8h2.1
				c1,0,1.4,0.4,1.4,1.4v11.8c0,0.3,0.2,0.5,0.5,0.5h0.9v1.8h-2c-1,0-1.4-0.4-1.4-1.2c0-0.3,0-0.6,0-0.6h0c0,0-0.9,2-3.7,2
				c-3,0-4.9-2.4-4.9-5.8C145-332.2,147.1-334.5,150.1-334.5z M153.6-328.7c0-2-1-4-3.2-4c-1.7,0-3.2,1.5-3.2,4c0,2.4,1.3,4,3.1,4
				C152-324.7,153.6-325.9,153.6-328.7z"/>
			<path fill="#F8E2D2" d="M165-330h0.5v-0.1c0-2-0.7-2.7-2.5-2.7c-0.5,0-1.8,0.1-1.8,0.9v0.6h-2v-1.1c0-1.8,2.8-2.1,3.8-2.1
				c3.6,0,4.6,1.9,4.6,4.4v4.7c0,0.3,0.2,0.5,0.5,0.5h0.9v1.8h-2c-1,0-1.4-0.5-1.4-1.3c0-0.4,0-0.7,0-0.7h0c0,0-0.9,2.2-3.5,2.2
				c-1.9,0-3.8-1.2-3.8-3.4C158.3-329.8,163.2-330,165-330z M162.6-324.6c1.8,0,3-1.9,3-3.5v-0.4H165c-1.6,0-4.5,0.1-4.5,2.1
				C160.5-325.4,161.2-324.6,162.6-324.6z"/>
			<path fill="#F8E2D2" d="M171.4-332.5H170v-1.7h1.5v-3.1h2.1v3.1h2.7v1.7h-2.7v5.1c0,2.2,1.5,2.5,2.4,2.5c0.3,0,0.5,0,0.5,0v1.9
				c0,0-0.3,0-0.7,0c-1.4,0-4.2-0.4-4.2-4.2V-332.5z"/>
			<path fill="#F8E2D2" d="M183.4-334.5c3.1,0,4.8,2.3,4.8,5.2c0,0.3-0.1,0.9-0.1,0.9H180c0.1,2.4,1.8,3.7,3.8,3.7
				c1.9,0,3.3-1.3,3.3-1.3l0.9,1.5c0,0-1.6,1.6-4.3,1.6c-3.5,0-5.9-2.5-5.9-5.8C177.8-332.2,180.2-334.5,183.4-334.5z M186-330
				c-0.1-1.8-1.2-2.8-2.6-2.8c-1.6,0-2.9,1-3.3,2.8H186z"/>
		</g>
	</g>
	<g>
		<path fill="#F8E2D2" d="M23.8-265.8h-47.7c-4.4,0-7.9-3.5-7.9-7.9v-34.6c0-4.4,3.5-7.9,7.9-7.9h47.7c4.4,0,7.9,3.5,7.9,7.9v34.6
			C31.8-269.4,28.2-265.8,23.8-265.8z"/>
		<g>
			<path fill="#F8E2D2" d="M-38-336.7h-1.4v-1.9h9.1c1,0,1.4,0.4,1.4,1.4v2h-2v-1c0-0.3-0.2-0.5-0.5-0.5h-4.4v4.9h5.4v1.9h-5.4v4.5
				c0,0.3,0.2,0.5,0.5,0.5h4.5c0.3,0,0.5-0.2,0.5-0.5v-1h2v2c0,1-0.4,1.4-1.4,1.4h-6.9c-1,0-1.4-0.4-1.4-1.4V-336.7z"/>
			<path fill="#F8E2D2" d="M-23.7-328.8l-2.1-3.2c-0.2-0.4-0.5-0.4-0.9-0.4h-0.6v-1.8h1.4c1,0,1.3,0.2,1.9,1.1l1.4,2.2
				c0.2,0.3,0.4,0.7,0.4,0.7h0c0,0,0.2-0.4,0.4-0.7l1.3-2.2c0.6-0.9,0.9-1.1,1.9-1.1h1.4v1.8h-0.6c-0.4,0-0.7,0.1-0.9,0.4l-2.1,3.2
				l3.8,5.7h-2.4l-2.4-3.6c-0.2-0.3-0.3-0.6-0.3-0.6h0c0,0-0.2,0.3-0.4,0.6l-2.3,3.6h-2.4L-23.7-328.8z"/>
			<path fill="#F8E2D2" d="M-10.5-334.5c3.1,0,4.8,2.3,4.8,5.2c0,0.3-0.1,0.9-0.1,0.9h-8.1c0.1,2.4,1.8,3.7,3.8,3.7
				c1.9,0,3.3-1.3,3.3-1.3l0.9,1.5c0,0-1.6,1.6-4.3,1.6c-3.5,0-5.9-2.5-5.9-5.8C-16.1-332.2-13.7-334.5-10.5-334.5z M-8-330
				c-0.1-1.8-1.2-2.8-2.6-2.8c-1.6,0-2.9,1-3.3,2.8H-8z"/>
			<path fill="#F8E2D2" d="M2-334.5c1.3,0,4,0.5,4,2.4v1.1H4.1v-0.6c0-0.8-1.3-1.1-2.1-1.1c-2.2,0-3.8,1.6-3.8,4c0,2.5,1.8,4,3.9,4
				c2.1,0,3.5-1.5,3.5-1.5l0.9,1.5c0,0-1.6,1.9-4.5,1.9c-3.5,0-5.9-2.5-5.9-5.8C-4-331.9-1.6-334.5,2-334.5z"/>
			<path fill="#F8E2D2" d="M8.8-331.9c0-0.3-0.2-0.5-0.5-0.5H7.4v-1.8h2.1c1,0,1.4,0.4,1.4,1.4v5.3c0,1.5,0.3,2.8,2.1,2.8
				c2.3,0,3.6-2,3.6-4.2v-5.2h2.1v8.8c0,0.3,0.2,0.5,0.5,0.5h0.9v1.8h-2c-0.9,0-1.4-0.4-1.4-1.2v-0.4c0-0.4,0-0.6,0-0.6h0
				c-0.5,1.1-1.9,2.6-4.1,2.6c-2.5,0-3.8-1.3-3.8-4.3V-331.9z"/>
			<path fill="#F8E2D2" d="M22.6-332.5h-1.5v-1.7h1.5v-3.1h2.1v3.1h2.7v1.7h-2.7v5.1c0,2.2,1.5,2.5,2.4,2.5c0.3,0,0.5,0,0.5,0v1.9
				c0,0-0.3,0-0.7,0c-1.4,0-4.2-0.4-4.2-4.2V-332.5z"/>
			<path fill="#F8E2D2" d="M34.5-334.5c3.1,0,4.8,2.3,4.8,5.2c0,0.3-0.1,0.9-0.1,0.9h-8.1c0.1,2.4,1.8,3.7,3.8,3.7
				c1.9,0,3.3-1.3,3.3-1.3l0.9,1.5c0,0-1.6,1.6-4.3,1.6c-3.5,0-5.9-2.5-5.9-5.8C28.9-332.2,31.4-334.5,34.5-334.5z M37.1-330
				c-0.1-1.8-1.2-2.8-2.6-2.8c-1.6,0-2.9,1-3.3,2.8H37.1z"/>
		</g>
	</g>
</g>
<g id="Layer_6">
</g>
<g id="Layer_7">
</g>
</svg>
