<?xml version="1.0" encoding="utf-8"?>
<!-- Generator: Adobe Illustrator 19.2.0, SVG Export Plug-In . SVG Version: 6.00 Build 0)  -->
<!DOCTYPE svg PUBLIC "-//W3C//DTD SVG 1.1//EN" "http://www.w3.org/Graphics/SVG/1.1/DTD/svg11.dtd">
<svg version="1.1" id="Layer_1" xmlns="http://www.w3.org/2000/svg" xmlns:xlink="http://www.w3.org/1999/xlink" x="0px" y="0px"
	 viewBox="0 0 229.4 227.4" enable-background="new 0 0 229.4 227.4" xml:space="preserve">
<g>
	<path fill="#E535AB" d="M134.2,99.8c-1.1-0.7-2.3-1.1-3.5-1.4l0-35.4c1.2-0.3,2.4-0.8,3.5-1.4c6.4-3.7,8.5-11.8,4.9-18.1
		c-3.7-6.4-11.8-8.5-18.1-4.9c-1.1,0.7-2.1,1.4-3,2.4L87.2,23.2c0.4-1.2,0.5-2.5,0.5-3.8c0-7.3-5.9-13.3-13.3-13.3
		c-7.3,0-13.3,5.9-13.3,13.3c0,1.3,0.2,2.6,0.5,3.8L31.1,40.9c-0.9-0.9-1.9-1.7-3-2.4c-6.4-3.7-14.5-1.5-18.1,4.9
		c-3.7,6.4-1.5,14.5,4.9,18.1c1.1,0.7,2.3,1.1,3.5,1.4l0,35.4c-1.2,0.3-2.4,0.8-3.5,1.4c-6.4,3.7-8.5,11.8-4.9,18.1
		c3.7,6.4,11.8,8.5,18.1,4.9c1.1-0.7,2.1-1.4,3-2.3l30.7,17.7c-0.4,1.2-0.5,2.5-0.5,3.8c0,7.3,5.9,13.3,13.3,13.3
		c7.3,0,13.3-5.9,13.3-13.3c0-1.5-0.2-2.9-0.7-4.2l30.5-17.6c0.9,1,2,1.9,3.3,2.7c6.4,3.7,14.5,1.5,18.1-4.9
		C142.7,111.6,140.5,103.5,134.2,99.8z M34.4,108.2c-0.3-1.2-0.8-2.4-1.4-3.5c-0.6-1.1-1.4-2.1-2.3-2.9l40.1-69.5
		c1.2,0.3,2.4,0.5,3.7,0.5c1.3,0,2.5-0.2,3.7-0.5l40.1,69.5c-0.9,0.8-1.7,1.8-2.3,2.9c-0.6,1.1-1.1,2.3-1.4,3.5L34.4,108.2z
		 M114.8,46.4c-1,3.3-0.6,7,1.3,10.3c1.9,3.2,4.9,5.4,8.3,6.2l0,35.5c-0.2,0-0.3,0.1-0.5,0.1L83.7,29c0.1-0.1,0.2-0.2,0.4-0.4
		L114.8,46.4z M65,28.7c0.1,0.1,0.2,0.2,0.4,0.4L25.2,98.5c-0.2,0-0.3-0.1-0.5-0.1l0-35.5c3.4-0.8,6.4-3,8.3-6.2
		c1.9-3.2,2.2-7,1.3-10.3L65,28.7z M84.3,133c-2.4-2.7-5.9-4.4-9.8-4.4c-3.7,0-7.1,1.6-9.5,4.1l-30.7-17.7c0-0.2,0.1-0.3,0.1-0.5
		l80.3,0c0.1,0.3,0.2,0.6,0.2,0.9L84.3,133z"/>
	<g>
		<g>
			<g>
				<g>
					<g>
						<g>
							<circle fill="#6DAA6D" cx="170.4" cy="170.5" r="43.6"/>
							<circle fill="#DDE897" cx="170.4" cy="170.5" r="38.4"/>
						</g>
						<path fill="#D1E0F2" d="M206.3,134.5c-5-5-10.7-8.7-17.1-11.3v-47h5.8c1.3,0,2.4-1.1,2.4-2.4V73c0-1.3-1.1-2.4-2.4-2.4h-49
							c-1.3,0-2.4,1.1-2.4,2.4v0.8c0,1.3,1.1,2.4,2.4,2.4h5.4v47c-6.3,2.5-12.1,6.3-17.1,11.3c-9.6,9.6-14.9,22.4-14.9,35.9
							c0,13.6,5.3,26.3,14.9,35.9c9.6,9.6,22.4,14.9,35.9,14.9c13.6,0,26.3-5.3,35.9-14.9c9.6-9.6,14.9-22.4,14.9-35.9
							C221.2,156.9,215.9,144.1,206.3,134.5z"/>
						<g>
							<path fill="#6DAA6D" d="M182,118.4h-9c-0.3,0-0.6-0.3-0.6-0.6V116c0-0.3,0.3-0.6,0.6-0.6h9c0.3,0,0.6,0.3,0.6,0.6v1.8
								C182.6,118.1,182.3,118.4,182,118.4z"/>
							<path fill="#6DAA6D" d="M182,87.1h-10.4c-0.3,0-0.6-0.3-0.6-0.6v-1.8c0-0.3,0.3-0.6,0.6-0.6H182c0.3,0,0.6,0.3,0.6,0.6v1.8
								C182.6,86.8,182.3,87.1,182,87.1z"/>
							<path fill="#6DAA6D" d="M182.2,94.3h-5.8c-0.2,0-0.4-0.2-0.4-0.4v-1.1c0-0.2,0.2-0.4,0.4-0.4h5.8c0.2,0,0.4,0.2,0.4,0.4v1.1
								C182.6,94.1,182.4,94.3,182.2,94.3z"/>
							<path fill="#6DAA6D" d="M182.2,102.3h-5.8c-0.2,0-0.4-0.2-0.4-0.4v-1.1c0-0.2,0.2-0.4,0.4-0.4h5.8c0.2,0,0.4,0.2,0.4,0.4v1.1
								C182.6,102.1,182.4,102.3,182.2,102.3z"/>
							<path fill="#6DAA6D" d="M182.2,110h-5.8c-0.2,0-0.4-0.2-0.4-0.4v-1.1c0-0.2,0.2-0.4,0.4-0.4h5.8c0.2,0,0.4,0.2,0.4,0.4v1.1
								C182.6,109.8,182.4,110,182.2,110z"/>
						</g>
						<path id="rect4005_8_" display="none" fill="#6DAA6D" d="M184.2,187.4c0.6-0.9,0.8-2.1,0.3-3.2c-0.4-0.9-0.9-1.5-1.4-2.2
							c-1.8-2.3-4.6-3.2-7.2-2.7c-0.7,2.6-0.2,5.4,1.6,7.7c0.5,0.7,1.3,1.3,2,1.7C181.2,189.8,183.2,188.9,184.2,187.4L184.2,187.4z
							 M186.6,162.5c1.2-2.7-1.5-5.7-4.4-4.4c-0.9,0.4-1.6,0.9-2.3,1.4c-2.2,1.8-3.3,4.8-3,7.5c2.5,0.6,5.4,0,7.6-1.9
							c0.8-0.7,1.3-1.3,1.8-2.1C186.4,162.8,186.5,162.7,186.6,162.5L186.6,162.5z M162.7,183.2c0.8-1.5,1.2-3.3,1-5.1
							c-2.5-0.6-5.4,0-7.6,1.9c-0.8,0.7-1.3,1.3-1.8,2.1c-1.8,3,1.3,6.4,4.2,4.9c0.9-0.4,1.5-0.9,2.2-1.4
							C161.6,185,162.2,184.1,162.7,183.2L162.7,183.2z M174.6,160c0.5-0.9,0.8-2,0.8-3.1c0.1-1,0.1-1.9-0.2-2.6
							c-0.7-3.2-5-3.5-6.5-0.4c-0.4,0.8-0.7,1.8-0.7,2.7c-0.2,2.9,0.9,5.6,3,7.1C172.6,162.9,173.8,161.6,174.6,160L174.6,160z
							 M164.9,165.9c0.7-2.6,0.2-5.4-1.6-7.7c-0.5-0.7-1.2-1.3-1.9-1.7c-2.8-1.7-6.4,1.5-5.1,4.3c0.4,0.9,0.9,1.5,1.4,2.2
							C159.5,165.2,162.2,166.2,164.9,165.9L164.9,165.9z"/>
						<path fill="#6DAA6D" d="M192.6,176.1c-13.7,0-30.1-7.1-44.5-7.1c-14.3,0-21.1,3.4-21.3,3.5c1.1,23.1,20.2,41.5,43.5,41.5
							c23.4,0,42.4-18.4,43.5-41.4C213.3,172.9,205.8,176.1,192.6,176.1z"/>
						<circle fill="#6DAA6D" cx="163.7" cy="102.3" r="5"/>
						<circle fill="#6DAA6D" cx="144.8" cy="165.8" r="4.7"/>
						<circle fill="#6DAA6D" cx="173.1" cy="144.6" r="6.3"/>
						<g>
							<circle fill="#D1E0F2" cx="155.8" cy="204.5" r="3.5"/>
							<circle fill="#D1E0F2" cx="169.4" cy="195.5" r="4.7"/>
							<circle fill="#D1E0F2" cx="181.2" cy="202.5" r="3.3"/>
							<circle fill="#D1E0F2" cx="191.6" cy="182.7" r="4.5"/>
						</g>
						<circle fill="#6DAA6D" cx="167.6" cy="161" r="3.9"/>
					</g>
				</g>
			</g>
			<path opacity="0.15" d="M206.3,134.5c-5-5-10.7-8.7-17.1-11.3v-47h5.8c1.3,0,2.4-1.1,2.4-2.4V73c0-1.3-1.1-2.4-2.4-2.4h-24.7
				v150.6c0,0,0,0,0,0c13.6,0,26.3-5.3,35.9-14.9c9.6-9.6,14.9-22.4,14.9-35.9C221.2,156.9,215.9,144.1,206.3,134.5z"/>
		</g>
		<g>
			<circle fill="#6DAA6D" cx="169.4" cy="63.7" r="4.5"/>
			<circle fill="#6DAA6D" cx="179.3" cy="51" r="6.9"/>
			<circle fill="#6DAA6D" cx="165.9" cy="34" r="10.9"/>
		</g>
		<g>
			<g>
				<g>
					<g>
						<g>
							<circle fill="#6DAA6D" cx="170.4" cy="170.5" r="43.6"/>
							<circle fill="#DDE897" cx="170.4" cy="170.5" r="38.4"/>
						</g>
						<path fill="#D1E0F2" d="M206.3,134.5c-5-5-10.7-8.7-17.1-11.3v-47h5.8c1.3,0,2.4-1.1,2.4-2.4V73c0-1.3-1.1-2.4-2.4-2.4h-49
							c-1.3,0-2.4,1.1-2.4,2.4v0.8c0,1.3,1.1,2.4,2.4,2.4h5.4v47c-6.3,2.5-12.1,6.3-17.1,11.3c-9.6,9.6-14.9,22.4-14.9,35.9
							c0,13.6,5.3,26.3,14.9,35.9c9.6,9.6,22.4,14.9,35.9,14.9c13.6,0,26.3-5.3,35.9-14.9c9.6-9.6,14.9-22.4,14.9-35.9
							C221.2,156.9,215.9,144.1,206.3,134.5z"/>
						<g>
							<path fill="#E535AB" d="M182,118.4h-9c-0.3,0-0.6-0.3-0.6-0.6V116c0-0.3,0.3-0.6,0.6-0.6h9c0.3,0,0.6,0.3,0.6,0.6v1.8
								C182.6,118.1,182.3,118.4,182,118.4z"/>
							<path fill="#E535AB" d="M182,87.1h-10.4c-0.3,0-0.6-0.3-0.6-0.6v-1.8c0-0.3,0.3-0.6,0.6-0.6H182c0.3,0,0.6,0.3,0.6,0.6v1.8
								C182.6,86.8,182.3,87.1,182,87.1z"/>
							<path fill="#E535AB" d="M182.2,94.3h-5.8c-0.2,0-0.4-0.2-0.4-0.4v-1.1c0-0.2,0.2-0.4,0.4-0.4h5.8c0.2,0,0.4,0.2,0.4,0.4v1.1
								C182.6,94.1,182.4,94.3,182.2,94.3z"/>
							<path fill="#E535AB" d="M182.2,102.3h-5.8c-0.2,0-0.4-0.2-0.4-0.4v-1.1c0-0.2,0.2-0.4,0.4-0.4h5.8c0.2,0,0.4,0.2,0.4,0.4v1.1
								C182.6,102.1,182.4,102.3,182.2,102.3z"/>
							<path fill="#E535AB" d="M182.2,110h-5.8c-0.2,0-0.4-0.2-0.4-0.4v-1.1c0-0.2,0.2-0.4,0.4-0.4h5.8c0.2,0,0.4,0.2,0.4,0.4v1.1
								C182.6,109.8,182.4,110,182.2,110z"/>
						</g>
						<path id="rect4005_7_" display="none" fill="#6DAA6D" d="M184.2,187.4c0.6-0.9,0.8-2.1,0.3-3.2c-0.4-0.9-0.9-1.5-1.4-2.2
							c-1.8-2.3-4.6-3.2-7.2-2.7c-0.7,2.6-0.2,5.4,1.6,7.7c0.5,0.7,1.3,1.3,2,1.7C181.2,189.8,183.2,188.9,184.2,187.4L184.2,187.4z
							 M186.6,162.5c1.2-2.7-1.5-5.7-4.4-4.4c-0.9,0.4-1.6,0.9-2.3,1.4c-2.2,1.8-3.3,4.8-3,7.5c2.5,0.6,5.4,0,7.6-1.9
							c0.8-0.7,1.3-1.3,1.8-2.1C186.4,162.8,186.5,162.7,186.6,162.5L186.6,162.5z M162.7,183.2c0.8-1.5,1.2-3.3,1-5.1
							c-2.5-0.6-5.4,0-7.6,1.9c-0.8,0.7-1.3,1.3-1.8,2.1c-1.8,3,1.3,6.4,4.2,4.9c0.9-0.4,1.5-0.9,2.2-1.4
							C161.6,185,162.2,184.1,162.7,183.2L162.7,183.2z M174.6,160c0.5-0.9,0.8-2,0.8-3.1c0.1-1,0.1-1.9-0.2-2.6
							c-0.7-3.2-5-3.5-6.5-0.4c-0.4,0.8-0.7,1.8-0.7,2.7c-0.2,2.9,0.9,5.6,3,7.1C172.6,162.9,173.8,161.6,174.6,160L174.6,160z
							 M164.9,165.9c0.7-2.6,0.2-5.4-1.6-7.7c-0.5-0.7-1.2-1.3-1.9-1.7c-2.8-1.7-6.4,1.5-5.1,4.3c0.4,0.9,0.9,1.5,1.4,2.2
							C159.5,165.2,162.2,166.2,164.9,165.9L164.9,165.9z"/>
						<path fill="#E535AB" d="M192.6,176.1c-13.7,0-30.1-7.1-44.5-7.1c-14.3,0-21.1,3.4-21.3,3.5c1.1,23.1,20.2,41.5,43.5,41.5
							c23.4,0,42.4-18.4,43.5-41.4C213.3,172.9,205.8,176.1,192.6,176.1z"/>
						<circle fill="#E535AB" cx="163.7" cy="102.3" r="5"/>
						<circle fill="#E535AB" cx="144.8" cy="165.8" r="4.7"/>
						<circle fill="#E535AB" cx="173.1" cy="144.6" r="6.3"/>
						<g>
							<circle fill="#D1E0F2" cx="155.8" cy="204.5" r="3.5"/>
							<circle fill="#D1E0F2" cx="169.4" cy="195.5" r="4.7"/>
							<circle fill="#D1E0F2" cx="181.2" cy="202.5" r="3.3"/>
							<circle fill="#D1E0F2" cx="191.6" cy="182.7" r="4.5"/>
						</g>
						<circle fill="#E535AB" cx="167.6" cy="161" r="3.9"/>
					</g>
				</g>
			</g>
			<path opacity="0.15" d="M206.3,134.5c-5-5-10.7-8.7-17.1-11.3v-47h5.8c1.3,0,2.4-1.1,2.4-2.4V73c0-1.3-1.1-2.4-2.4-2.4h-24.7
				v150.6c0,0,0,0,0,0c13.6,0,26.3-5.3,35.9-14.9c9.6-9.6,14.9-22.4,14.9-35.9C221.2,156.9,215.9,144.1,206.3,134.5z"/>
		</g>
		<g>
			<circle fill="#E535AB" cx="169.4" cy="63.7" r="4.5"/>
			<circle fill="#E535AB" cx="179.3" cy="51" r="6.9"/>
			<circle fill="#E535AB" cx="165.9" cy="34" r="10.9"/>
		</g>
	</g>
</g>
</svg>
