<?xml version="1.0" encoding="utf-8"?>
<!-- Generator: Adobe Illustrator 19.2.0, SVG Export Plug-In . SVG Version: 6.00 Build 0)  -->
<!DOCTYPE svg PUBLIC "-//W3C//DTD SVG 1.1//EN" "http://www.w3.org/Graphics/SVG/1.1/DTD/svg11.dtd">
<svg version="1.1" id="Layer_1" xmlns="http://www.w3.org/2000/svg" xmlns:xlink="http://www.w3.org/1999/xlink" x="0px" y="0px"
	 viewBox="0 0 214.5 243" enable-background="new 0 0 214.5 243" xml:space="preserve">
<g id="XMLID_3_">
	<path id="XMLID_60_" fill="#F9E3D2" d="M128.1,35.1c15.4-8,26.7-17.8,36.5-14.9c11.2,3.3,10.2,11.5,3,20.2
		c-6.2,7.4-4.3,29.1-2.5,39.1c2.5,13.9,3.6,15.8,15.3,28c7.2,7.5,15.3,20.9,18.8,45.5c2.2,15.7-2.2,32.5-15.5,52.2
		c-6.4,9.5-18.9,16.5-29.6,17.6c-16,1.6-32.9,0-49.2,0c-17.9,0-30.8-6.2-38.7-23.5c-9.5-20.9-15-43.7-5.7-67.1
		c8.3-21,11.2-22.1,18.2-31.4c4.5-5.9,10.5-13.6,10.4-21.1c-0.3-18.1-9-19.6,2.3-29.8C101.5,40.4,116.4,41.2,128.1,35.1z"/>
	<path id="XMLID_59_" fill="#F9E3D2" d="M89,95.6c1.5-8.3-17.1-18.9-24.5-21.2c-12.6-3.8-25.2,0.5-35.8,7.8
		c-9.6,6.6-14.1,17.4-13.9,28.7c0.2,12.2,10.8,20.9,19.9,27.9c9.6,7.3,20,13.6,30,20.3c3.1-4.6,3.5-10.8,3-16.2
		c-15.4-1.3-43.3-22.9-39.7-40.5c1.8-8.8,13.6-15.3,21.9-16.4c10.9-1.4,19.2,5,27.2,11.9c2.9,2.6,6.8,7.2,8.6,9.1L89,95.6z"/>
	<path id="XMLID_58_" fill="#DC7676" d="M162,92c0,0,8.6,19,13.9,27.3c6.1,9.6,10.3,18.5,12.1,29.6c3.3,20.4-4.7,50.3-23.9,61.7
		c-9.9,5.9-20.3,0.6-31.8,0c-12.2-0.6-16.6,0.4-28.5,2.3c-12.6,2.1-23.1-6.1-28.6-16.7c-4.9-9.4-6.3-14.7-7.7-25.4
		c-2.2-15.8,0.3-30.1,3.6-39.7c2.2-6.4,8.6-16.7,12-22.6c4.8-8.4,10.8-17.6,10.8-17.6c5.5-3.4,14.4-0.2,20.1,1c8,1.7,16,4,24.2,4.6
		C140.9,96.7,151.3,98.4,162,92z"/>
	<g id="XMLID_47_">
		<path id="XMLID_57_" fill="#F79029" d="M89.8,156.1c1.9-1.4,4-2.5,6.1-3.3c2.2-0.8,4.5-1.3,6.7-1.6c2.3-0.2,4.6-0.1,6.9,0.2
			c2.3,0.4,4.5,1,6.6,1.9c2.1,0.9,4,2.3,5.8,3.8c1.7,1.4,3.3,3.1,4.7,5c1.4,1.9,2.5,3.9,3.3,6c0.8,2.2,1.3,4.4,1.5,6.7
			c0.2,2.3,0.2,4.6-0.1,6.9c-0.4,2.3-1.1,4.4-2,6.6c-0.9,2.1-2.1,4.1-3.6,5.9c-1.4,1.7-3,3.5-4.9,4.8c-1.9,1.4-4,2.5-6.1,3.3
			c-2.2,0.8-4.5,1.2-6.7,1.4c-2.3,0.2-4.6,0.3-6.9-0.1c-2.3-0.4-4.5-1.1-6.6-2c-2.1-0.9-4.1-2-6-3.5c-1.8-1.4-3.3-3.1-4.7-5.1
			c-1.4-1.9-2.6-3.9-3.4-6c-0.8-2.2-1.2-4.5-1.5-6.7c-0.2-2.3-0.1-4.6,0.3-6.9c0.4-2.3,0.8-4.6,1.7-6.7c0.9-2.1,2.3-4,3.7-5.8
			C86.3,159.2,87.9,157.5,89.8,156.1z"/>
		<path id="XMLID_56_" fill="#FFEFD5" d="M91.1,158c2.1-1.5,4.5-2.4,6.9-3.2c2.4-0.8,4.9-1.1,7.4-1.1c2.5,0,5.1,0,7.5,0.7
			c2.4,0.8,4.9,1.7,6.9,3.2c2,1.5,3.6,3.6,5.1,5.7c1.5,2.1,2.6,4.4,3.4,6.8c0.8,2.4,0.8,4.9,0.7,7.5c0,2.5,0.4,5.2-0.4,7.6
			c-0.8,2.4-1.9,4.8-3.4,6.9c-1.5,2-3.6,3.6-5.7,5.1c-2.1,1.5-4.5,2.4-6.8,3.1c-2.4,0.8-4.9,1.4-7.4,1.4c-2.5,0-5.1-0.2-7.5-1
			c-2.4-0.8-4.9-1.7-6.9-3.2c-2-1.5-4-3.3-5.5-5.4c-1.5-2.1-2-4.8-2.8-7.1c-0.8-2.4-1.3-4.9-1.3-7.4c0-2.5,0.2-5.1,1-7.5
			c0.8-2.4,2.3-4.5,3.8-6.5C87.4,161.5,89,159.5,91.1,158z"/>
		<path id="XMLID_55_" fill="#FBAE25" d="M87.8,188.7c1.8-0.3,14.7-8.9,14.6-10.6c0,0-15.8-2.8-17.5-2.4
			C83.1,176,85.9,189,87.8,188.7z"/>
		<path id="XMLID_54_" fill="#FBAE25" d="M103.4,177c-1.5-2.8-8.3-15.6-10-16.1c-1.7-0.6-9.9,10.5-8.5,11.8
			C86.3,173.9,104.2,178.6,103.4,177z"/>
		<path id="XMLID_53_" fill="#FBAE25" d="M115.6,194.8c-0.1-3-8.2-14.8-10.2-14.4c-2,0.3-2.8,15.3-1.6,17.9
			C104.7,200,115.7,197.9,115.6,194.8z"/>
		<path id="XMLID_52_" fill="#FBAE25" d="M100.2,196.9c1.4-1.2,4.2-15.7,3.2-16.3c-1-0.6-13.6,8.7-14.3,10.5
			C88.5,192.9,97.8,198.9,100.2,196.9z"/>
		<path id="XMLID_51_" fill="#FBAE25" d="M123.5,168.8c-6.2,2.7-16.1,7.4-15.8,8.6c0.2,0.7,14.5,2.7,17.3,3.6
			C128.2,182.1,125.9,167.8,123.5,168.8z"/>
		<path id="XMLID_50_" fill="#FBAE25" d="M107.3,179c-0.9,1.5,7.9,10.3,11.2,14.2c1.2,1.4,8.5-6.5,6.9-9
			C123.6,181.3,108.2,177.5,107.3,179z"/>
		<path id="XMLID_49_" fill="#FBAE25" d="M95.8,159.4c2.1,4.7,7.1,16.8,9.1,17.2c2,0.4,4.4-16.7,2.6-19
			C105.7,155.2,94.5,156.6,95.8,159.4z"/>
		<path id="XMLID_48_" fill="#FBAE25" d="M107.5,174.4c-0.3,1.2-0.7,1.8,0.6,1c1.4-0.8,9.4-5.1,11.2-6c1.8-0.9,5.2-3,1.9-6.7
			c-3.2-3.7-6.8-4.8-9.1-5.1c-2.3-0.3-2.4,2.3-2.6,4.2C109.4,163.6,108.1,172.1,107.5,174.4z"/>
	</g>
	<g id="XMLID_36_">
		<path id="XMLID_46_" fill="#F79029" d="M169.5,122.8c0.8,2,1.4,4,1.6,6c0.3,2.1,0.2,4.2,0,6.2c-0.3,2.1-0.9,4.1-1.7,6
			c-0.8,1.9-1.8,3.8-3.1,5.4c-1.3,1.6-2.9,3-4.5,4.3c-1.6,1.2-3.4,2.2-5.4,3c-2,0.8-4,1.4-6,1.7c-2.1,0.3-4.2,0.2-6.2-0.1
			c-2.1-0.3-4.1-0.8-6-1.6c-1.9-0.8-3.7-1.9-5.3-3.2c-1.6-1.3-3.1-2.7-4.4-4.4c-1.2-1.6-2.4-3.4-3.2-5.3c-0.8-2-1.3-4-1.6-6
			c-0.3-2.1-0.1-4.2,0.2-6.2c0.3-2.1,0.7-4.1,1.5-6c0.8-1.9,1.9-3.7,3.2-5.3c1.3-1.6,2.6-3.2,4.3-4.5c1.6-1.2,3.5-2.2,5.4-3
			c2-0.8,4-1.4,6-1.7c2.1-0.3,4.2-0.1,6.2,0.1c2.1,0.3,4,0.9,6,1.7c1.9,0.8,3.8,1.7,5.5,2.9c1.6,1.3,3,2.8,4.3,4.5
			C167.5,119.1,168.7,120.8,169.5,122.8z"/>
		<path id="XMLID_45_" fill="#FFEFD5" d="M167.6,123.5c0.9,2.2,1.2,4.5,1.3,6.7c0.2,2.3-0.1,4.5-0.6,6.7c-0.5,2.2-1,4.5-2.2,6.4
			c-1.2,1.9-2.5,3.9-4.3,5.4c-1.7,1.4-3.9,2.4-6.1,3.3c-2.2,0.9-4.4,1.4-6.6,1.6c-2.3,0.2-4.5-0.4-6.7-0.9c-2.2-0.5-4.6-0.8-6.6-2
			c-1.9-1.2-3.8-2.7-5.3-4.5c-1.4-1.7-2.4-3.9-3.3-6.1c-0.9-2.2-1.1-4.4-1.3-6.7c-0.2-2.3-0.2-4.6,0.3-6.8c0.5-2.2,1.3-4.4,2.5-6.4
			c1.2-1.9,2.5-3.9,4.3-5.4c1.7-1.4,3.7-2.8,5.9-3.7c2.2-0.9,4.6-0.8,6.8-0.9c2.3-0.2,4.6-0.1,6.8,0.4c2.2,0.5,4.4,1.3,6.4,2.5
			c1.9,1.2,3.4,3,4.9,4.7C165.3,119.5,166.7,121.3,167.6,123.5z"/>
		<path id="XMLID_44_" fill="#FBAE25" d="M141.3,114c-0.1,1.7,4.7,14.8,6.2,15.1c0,0,5.8-13.3,5.9-14.9
			C153.5,112.7,141.4,112.4,141.3,114z"/>
		<path id="XMLID_43_" fill="#FBAE25" d="M148.3,130.2c2.8-0.7,15.4-4,16.3-5.4c0.9-1.4-7.2-10.9-8.6-9.9
			C154.6,115.9,146.8,130.6,148.3,130.2z"/>
		<path id="XMLID_42_" fill="#FBAE25" d="M130.1,137.2c2.7,0.6,14.7-4.1,14.8-5.9c0.2-1.8-12.9-5.7-15.4-5.2
			C127.8,126.5,127.3,136.6,130.1,137.2z"/>
		<path id="XMLID_41_" fill="#FBAE25" d="M131.5,123.2c0.7,1.4,12.9,7,13.6,6.3c0.7-0.7-4.7-13.8-6.2-14.7
			C137.5,113.8,130.2,120.7,131.5,123.2z"/>
		<path id="XMLID_40_" fill="#FBAE25" d="M151.2,149.6c-1.1-6-3.1-15.7-4.2-15.7c-0.6,0-5.5,12.2-6.8,14.4
			C138.6,150.9,151.6,152,151.2,149.6z"/>
		<path id="XMLID_39_" fill="#FBAE25" d="M145.7,133.3c-1.1-1.1-10.7,4.8-14.8,6.8c-1.5,0.8,3.9,8.9,6.4,8
			C140.2,147.1,146.9,134.4,145.7,133.3z"/>
		<path id="XMLID_38_" fill="#FBAE25" d="M165.3,127.3c-4.5,0.9-16.2,2.7-17,4.4c-0.8,1.7,13.7,7.4,16.1,6.3
			C166.9,136.9,168.1,126.8,165.3,127.3z"/>
		<path id="XMLID_37_" fill="#FBAE25" d="M149.7,134.4c-1-0.5-1.4-1-1,0.4c0.4,1.4,2.5,9.3,2.9,11.1c0.4,1.7,1.5,5.2,5.4,3.1
			c3.9-2.1,5.7-5,6.4-6.9c0.7-1.9-1.6-2.6-3.1-3.1C158.8,138.4,151.6,135.4,149.7,134.4z"/>
	</g>
	<g id="XMLID_11_">
		<path id="XMLID_35_" fill="#EEBC7F" d="M96.3,112.8c-2.9,2.2-4.7,6-5.2,9.6c-0.8,5.2,1.2,11.8,4.3,16c1.3,1.7,1.7,2.4,3.8,2.4
			c2.7,0,5.2-0.7,7.8-1.2c1.2-0.2,4.4-0.3,5.3-1.2c0.9-0.9,0.8-4.4,1.2-5.8c0.7-2.9,1.5-5,3.4-7.3c1.9-2.3,4.1-3.3,2.2-6.5
			c-2.1-3.5-5.3-7.4-8.7-9.7c-2.5-1.7-5.1-1.4-7.6-0.3C100.1,110,98.7,111,96.3,112.8z"/>
		<path id="XMLID_34_" fill="#E0845F" d="M99.8,136.1c0.2-5.3,0.8-11.2,3.2-16c1.3-2.7,3.1-5.2,4.7-7.7c0.6-1,1.6-2.2,2.1-3.5
			c-2.3-1.3-4.8-1.1-7.1-0.1c-2.7,1.2-4.1,2.1-6.5,3.9c-2.9,2.2-4.7,6-5.2,9.6c-0.8,5.2,1.2,11.8,4.3,16c1.3,1.7,1.7,2.4,3.8,2.4
			c0.2,0,0.3,0,0.5,0C99.8,139.2,99.7,137.6,99.8,136.1z"/>
	</g>
	<g id="XMLID_4_">
		<path id="XMLID_9_" fill="#EEBC7F" d="M151.2,187.7c3,0.8,6.2-0.1,8.6-1.8c3.4-2.4,6-7.6,6.6-12.1c0.2-1.9,0.3-2.6-0.9-4
			c-1.6-1.9-3.6-3.3-5.4-4.8c-0.8-0.7-2.8-3-3.9-3.1c-1.1-0.1-3,1.9-4,2.4c-2.1,1.1-3.8,1.7-6.2,1.7c-2.5,0-4.4-1-5,2.1
			c-0.7,3.5-1.1,8-0.3,11.7c0.5,2.7,2.3,4.4,4.4,5.6C147.3,186.6,148.7,187.1,151.2,187.7z"/>
		<path id="XMLID_8_" fill="#E0845F" d="M162.4,172c-3.2,2.8-6.9,5.8-11.1,6.8c-2.3,0.6-4.8,0.8-7.2,1c-0.9,0.1-2.2,0.1-3.3,0.5
			c0.6,2.4,2.3,4,4.3,5.1c2.3,1.2,3.7,1.7,6.1,2.4c3,0.8,6.2-0.1,8.6-1.8c3.4-2.4,6-7.6,6.6-12.1c0.2-1.9,0.3-2.6-0.9-4
			c-0.1-0.1-0.2-0.2-0.3-0.3C164.2,170.2,163.3,171.2,162.4,172z"/>
	</g>
</g>
</svg>
