<?xml version="1.0" encoding="utf-8"?>
<!-- Generator: Adobe Illustrator 19.2.0, SVG Export Plug-In . SVG Version: 6.00 Build 0)  -->
<!DOCTYPE svg PUBLIC "-//W3C//DTD SVG 1.1//EN" "http://www.w3.org/Graphics/SVG/1.1/DTD/svg11.dtd">
<svg version="1.1" id="Layer_1" xmlns="http://www.w3.org/2000/svg" xmlns:xlink="http://www.w3.org/1999/xlink" x="0px" y="0px"
	 viewBox="0 0 798 357" enable-background="new 0 0 798 357" xml:space="preserve">
<g id="XMLID_1_">
	<g>
		<path fill="#DC7676" d="M784,56.8v273.5c0,6.1-5,11.1-11.1,11.1H455.4c-6.1,0-11.1-5-11.1-11.1v-20.9h242.6
			c6.2,0,11.1-5,11.1-11.1V45.6h74.9C779,45.6,784,50.6,784,56.8z"/>
		<path fill="#DC7676" d="M686.9,13.6H369.4c-6.1,0-11.1,5-11.1,11.1v273.5c0,6.1,5,11.1,11.1,11.1h74.9h242.6
			c6.2,0,11.1-5,11.1-11.1V45.6V24.8C698,18.6,693,13.6,686.9,13.6z"/>
	</g>
	<g>
		<path fill="none" stroke="#FFFFFF" stroke-width="3" stroke-miterlimit="10" d="M444.3,309.4h-74.9c-6.1,0-11.1-5-11.1-11.1V24.8
			c0-6.1,5-11.1,11.1-11.1h317.4c6.2,0,11.1,5,11.1,11.1v20.9"/>
		<path fill="none" stroke="#F8E2D2" stroke-width="3" stroke-miterlimit="10" d="M698,45.6v252.6c0,6.1-5,11.1-11.1,11.1H444.3"/>
	</g>
</g>
<path fill="#F8E2D2" d="M674.4,296.3c-6.3,3.7-15,4-23.8,0.3c-7.1-3-13-8.3-16.8-14.3c1.8,1.5,3.9,2.7,6.2,3.8
	c9,4.2,18.1,3.9,24.5,0c0,0,0,0,0,0c-9.1-6.9-16.8-16-22.5-23.4c-1.2-1.2-2.1-2.7-3-4.1c6.9,6.3,18,14.3,21.9,16.6
	c-8.3-8.8-15.7-19.6-15.4-19.3c13.1,13.3,25.4,20.8,25.4,20.8c0.4,0.2,0.7,0.4,1,0.6c0.3-0.7,0.5-1.4,0.7-2.1
	c2.1-7.7-0.3-16.4-5.6-23.7c12.2,7.4,19.5,21.3,16.4,32.9c-0.1,0.3-0.2,0.6-0.3,0.9c0,0,0.1,0.1,0.1,0.1c6,7.5,4.4,15.5,3.6,14
	C683.6,293.1,677.5,295.1,674.4,296.3L674.4,296.3z"/>
<g id="layer1" transform="translate(3824.556,782.8939)"  >
	<g id="Ebene_x0020_1" transform="translate(-3826.724,-785.8793)">
		<g id="_198302696">
			<path id="_227268128" fill="#F8E2D2" d="M742.3,321.5c0,0-2.1,1.3,1.5,1.7c4.3,0.6,6.6,0.5,11.4-0.5c0,0,1.3,0.8,3,1.5
				C747.5,328.8,733.8,323.9,742.3,321.5L742.3,321.5z M740.9,315.5c0,0-2.3,1.7,1.3,2.1c4.7,0.5,8.4,0.6,14.7-0.7
				c0,0,0.8,0.9,2.2,1.4C746.2,322.1,731.6,318.6,740.9,315.5L740.9,315.5z M766.3,326c0,0,1.6,1.3-1.7,2.3
				c-6.2,1.8-25.9,2.4-31.4,0c-1.9-0.8,1.7-2,2.9-2.2c1.2-0.3,1.8-0.3,1.8-0.3c-2.1-1.5-14.1,3-6.1,4.3
				C753.9,333.7,772,328.6,766.3,326L766.3,326z M743.3,309.3c0,0-10,2.4-3.6,3.2c2.8,0.4,8.2,0.3,13.3-0.1c4.1-0.4,8.3-1.1,8.3-1.1
				s-1.5,0.6-2.5,1.3c-10.2,2.7-29.8,1.5-24.2-1.3C739.4,309,743.3,309.3,743.3,309.3L743.3,309.3z M761.3,319.3
				c10.3-5.3,5.5-10.5,2.2-9.8c-0.8,0.2-1.2,0.4-1.2,0.4s0.3-0.6,0.9-0.7c6.5-2.3,11.7,6.9-2.1,10.5
				C761.1,319.6,761.2,319.5,761.3,319.3L761.3,319.3z M744.3,333.8c9.9,0.6,25.1-0.4,25.5-5.1c0,0-0.7,1.8-8.2,3.2
				c-8.5,1.6-19,1.4-25.1,0.4C736.5,332.4,737.8,333.5,744.3,333.8L744.3,333.8z"/>
			<path id="_230367536" fill="#F8E2D2" d="M755,278.9c0,0,5.7,5.8-5.4,14.5c-8.9,7.1-2,11.1,0,15.7c-5.2-4.7-9-8.8-6.4-12.7
				C746.9,290.8,757.3,288,755,278.9L755,278.9z M752.1,305.3c2.7,3-0.7,5.8-0.7,5.8s6.8-3.5,3.7-7.8c-2.9-4.1-5.1-6.2,6.9-13.1
				C761.9,290.2,743,294.9,752.1,305.3L752.1,305.3z"/>
		</g>
	</g>
</g>
<g>
	<g id="document_1_">
		<g>
			<g>
				<path fill="#DC7676" d="M279,148.9l-16-15.6c0.4,0-0.5-1.7-0.7-1.7h-0.5h-22.3c-1.4,0-2.4,1.1-2.4,2.4v51.9
					c0,1.3,1.1,2.4,2.4,2.4h37.4c1.4,0,2.4-1.1,2.4-2.4c0,0,0-35.7,0-36.1C279.4,149.5,279.3,149.2,279,148.9z"/>
			</g>
			<g>
				<path fill="#F8E2D2" d="M262.3,131.5v12.7c0,2.9,3.1,5,6,5h10.9L262.3,131.5z"/>
			</g>
			<g>
				<path fill="#F8E2D2" d="M270.3,178.7h-25c-0.3,0-0.5,0.2-0.5,0.5v1.8c0,0.3,0.2,0.5,0.5,0.5h25c0.3,0,0.5-0.2,0.5-0.5v-1.8
					C270.7,178.9,270.5,178.7,270.3,178.7z M245.3,151.8h10.5c0.3,0,0.5-0.2,0.5-0.5v-1.8c0-0.3-0.2-0.5-0.5-0.5h-10.5
					c-0.3,0-0.5,0.2-0.5,0.5v1.8C244.8,151.5,245,151.8,245.3,151.8z M245.3,142.1h10.5c0.3,0,0.5-0.2,0.5-0.5v-1.8
					c0-0.3-0.2-0.5-0.5-0.5h-10.5c-0.3,0-0.5,0.2-0.5,0.5v1.8C244.8,141.9,245,142.1,245.3,142.1z M270.3,168.1h-25
					c-0.3,0-0.5,0.2-0.5,0.5v1.8c0,0.3,0.2,0.5,0.5,0.5h25c0.3,0,0.5-0.2,0.5-0.5v-1.8C270.7,168.4,270.5,168.1,270.3,168.1z
					 M270.3,158.5h-25c-0.3,0-0.5,0.2-0.5,0.5v1.8c0,0.3,0.2,0.5,0.5,0.5h25c0.3,0,0.5-0.2,0.5-0.5V159
					C270.7,158.8,270.5,158.5,270.3,158.5z"/>
			</g>
		</g>
	</g>
	<g>
		<path fill="#DC7676" d="M224,204.4c0,0,0.7,0.9,1.8,0.9c0.6,0,1.1-0.3,1.1-0.8c0-1.1-3.3-1-3.3-2.9c0-1.2,1-1.7,2.3-1.7
			c0.7,0,2,0.3,2,1.2v0.6h-1v-0.3c0-0.4-0.5-0.5-0.9-0.5c-0.7,0-1.1,0.2-1.1,0.7c0,1.2,3.3,0.9,3.3,2.9c0,1.1-1,1.8-2.2,1.8
			c-1.6,0-2.4-1.1-2.4-1.1L224,204.4z"/>
		<path fill="#DC7676" d="M232.2,199.9c0.7,0,2.2,0.3,2.2,1.3v0.6h-1.1v-0.3c0-0.4-0.7-0.6-1.1-0.6c-1.2,0-2.1,0.9-2.1,2.2
			c0,1.4,1,2.2,2.1,2.2c1.1,0,1.9-0.8,1.9-0.8l0.5,0.8c0,0-0.9,1-2.5,1c-1.9,0-3.2-1.4-3.2-3.2C228.9,201.3,230.2,199.9,232.2,199.9
			z"/>
		<path fill="#DC7676" d="M235.8,198.9c0-0.2-0.1-0.3-0.3-0.3h-0.5v-1h1.2c0.5,0,0.8,0.2,0.8,0.7v2.4c0,0.3,0,0.5,0,0.5h0
			c0.3-0.6,1-1.4,2.3-1.4c1.4,0,2.1,0.8,2.1,2.3v2.6c0,0.2,0.1,0.3,0.3,0.3h0.5v1h-1.1c-0.5,0-0.8-0.2-0.8-0.8v-2.9
			c0-0.9-0.2-1.5-1.2-1.5c-0.9,0-1.7,0.6-1.9,1.5c-0.1,0.2-0.1,0.5-0.1,0.8v2.8h-1.2V198.9z"/>
		<path fill="#DC7676" d="M245.8,199.9c1.7,0,2.6,1.3,2.6,2.8c0,0.2,0,0.5,0,0.5h-4.4c0.1,1.3,1,2,2.1,2c1,0,1.8-0.7,1.8-0.7
			l0.5,0.8c0,0-0.9,0.9-2.3,0.9c-1.9,0-3.2-1.4-3.2-3.2C242.7,201.1,244.1,199.9,245.8,199.9z M247.2,202.4c0-1-0.7-1.5-1.4-1.5
			c-0.9,0-1.6,0.5-1.8,1.5H247.2z"/>
		<path fill="#DC7676" d="M250,201.3c0-0.2-0.1-0.3-0.3-0.3h-0.5v-1h1.1c0.5,0,0.8,0.2,0.8,0.7v0.2c0,0.2,0,0.3,0,0.3h0
			c0.3-0.7,1.1-1.4,2.1-1.4c1,0,1.6,0.5,1.8,1.4h0c0.3-0.7,1.2-1.4,2.2-1.4c1.4,0,2,0.8,2,2.3v2.6c0,0.2,0.1,0.3,0.3,0.3h0.5v1h-1.2
			c-0.5,0-0.8-0.2-0.8-0.8v-2.9c0-0.9-0.2-1.5-1.1-1.5c-0.8,0-1.5,0.7-1.7,1.6c-0.1,0.3-0.1,0.5-0.1,0.8v2.8H254v-3.6
			c0-0.8-0.1-1.5-1-1.5c-0.9,0-1.5,0.7-1.7,1.6c-0.1,0.2-0.1,0.5-0.1,0.8v2.8H250V201.3z"/>
		<path fill="#DC7676" d="M264.3,202.3h0.3v-0.1c0-1.1-0.4-1.5-1.3-1.5c-0.3,0-1,0.1-1,0.5v0.3h-1.1V201c0-1,1.5-1.1,2.1-1.1
			c2,0,2.5,1,2.5,2.4v2.6c0,0.2,0.1,0.3,0.3,0.3h0.5v1h-1.1c-0.5,0-0.8-0.3-0.8-0.7c0-0.2,0-0.4,0-0.4h0c0,0-0.5,1.2-1.9,1.2
			c-1,0-2.1-0.6-2.1-1.8C260.6,202.5,263.3,202.3,264.3,202.3z M262.9,205.3c1,0,1.6-1,1.6-1.9v-0.2h-0.3c-0.9,0-2.5,0-2.5,1.2
			C261.8,204.8,262.2,205.3,262.9,205.3z"/>
		<path fill="#DC7676" d="M267.5,204.9h1.2v1.2h-1.2V204.9z"/>
		<path fill="#DC7676" d="M269.6,207.6c0.4,0,1.3-0.1,1.3-1.3v-4.9c0-0.2-0.1-0.3-0.3-0.3h-0.5v-1h1.2c0.5,0,0.8,0.2,0.8,0.8v5.5
			c0,2-1.6,2.3-2.3,2.3c-0.2,0-0.4,0-0.4,0v-1C269.3,207.6,269.5,207.6,269.6,207.6z M270.9,197.6h1.1v1.2h-1.1V197.6z"/>
		<path fill="#DC7676" d="M273.9,204.4c0,0,0.7,0.9,1.8,0.9c0.6,0,1.1-0.3,1.1-0.8c0-1.1-3.3-1-3.3-2.9c0-1.2,1-1.7,2.3-1.7
			c0.7,0,2,0.3,2,1.2v0.6h-1v-0.3c0-0.4-0.5-0.5-0.9-0.5c-0.7,0-1.1,0.2-1.1,0.7c0,1.2,3.3,0.9,3.3,2.9c0,1.1-1,1.8-2.2,1.8
			c-1.6,0-2.4-1.1-2.4-1.1L273.9,204.4z"/>
		<path fill="#DC7676" d="M282.2,199.9c1.8,0,3.3,1.3,3.3,3.2c0,1.8-1.5,3.2-3.3,3.2c-1.8,0-3.3-1.3-3.3-3.2
			C278.9,201.2,280.3,199.9,282.2,199.9z M282.2,205.3c1.2,0,2.1-0.9,2.1-2.2c0-1.3-0.9-2.2-2.1-2.2c-1.1,0-2.1,0.9-2.1,2.2
			C280.1,204.3,281,205.3,282.2,205.3z"/>
		<path fill="#DC7676" d="M286.9,201.3c0-0.2-0.1-0.3-0.3-0.3h-0.5v-1h1.1c0.5,0,0.8,0.2,0.8,0.7v0.2c0,0.2,0,0.3,0,0.3h0
			c0.2-0.5,1-1.4,2.3-1.4c1.4,0,2.1,0.8,2.1,2.3v2.6c0,0.2,0.1,0.3,0.3,0.3h0.5v1H292c-0.5,0-0.8-0.2-0.8-0.8v-2.9
			c0-0.9-0.2-1.5-1.1-1.5c-0.9,0-1.7,0.6-1.9,1.5c-0.1,0.2-0.1,0.5-0.1,0.8v2.8h-1.2V201.3z"/>
		<path fill="#DC7676" d="M220.5,211.8h0.8c-0.9,1.5-1.3,3-1.3,4.7c0,1.8,0.5,3.6,1.4,5.2h-0.8c-0.9-1.4-1.4-3.3-1.4-5.1
			C219.2,214.8,219.6,213.2,220.5,211.8z"/>
		<path fill="#DC7676" d="M223,215.5c0-0.2-0.1-0.3-0.3-0.3h-0.5v-0.7h0.9c0.5,0,0.7,0.2,0.7,0.7v4.3c0,0.2,0.1,0.3,0.3,0.3h0.5v0.7
			h-0.9c-0.5,0-0.7-0.2-0.7-0.7V215.5z M223,212.1h0.8v1H223V212.1z"/>
		<path fill="#DC7676" d="M225.9,215.5c0-0.2-0.1-0.3-0.3-0.3h-0.5v-0.7h0.8c0.5,0,0.7,0.2,0.7,0.7v0.3c0,0.2,0,0.4,0,0.4h0
			c0.2-0.6,1-1.5,2.4-1.5c1.5,0,2,0.9,2,2.3v2.9c0,0.2,0.1,0.3,0.3,0.3h0.5v0.7h-0.9c-0.5,0-0.7-0.2-0.7-0.7v-2.9
			c0-0.9-0.1-1.8-1.3-1.8c-1,0-1.9,0.7-2.2,1.7c-0.1,0.3-0.1,0.5-0.1,0.8v2.9h-0.8V215.5z"/>
		<path fill="#DC7676" d="M233.3,215.2h-0.8v-0.7h0.8v-1.7h0.8v1.7h1.5v0.7h-1.5v3.1c0,1.4,0.9,1.6,1.4,1.6c0.2,0,0.3,0,0.3,0v0.7
			c0,0-0.1,0-0.3,0c-0.7,0-2.1-0.2-2.1-2.2V215.2z"/>
		<path fill="#DC7676" d="M237.3,215.5c0-0.2-0.1-0.3-0.3-0.3h-0.5v-0.7h0.8c0.5,0,0.7,0.2,0.7,0.7v0.4c0,0.3,0,0.5,0,0.5h0
			c0.3-0.9,1-1.6,1.9-1.6c0.2,0,0.3,0,0.3,0v0.8c0,0-0.1,0-0.3,0c-0.9,0-1.5,0.7-1.8,1.6c-0.1,0.4-0.2,0.8-0.2,1.2v2.5h-0.8V215.5z"
			/>
		<path fill="#DC7676" d="M244,214.3c1.8,0,3.2,1.3,3.2,3.1c0,1.8-1.4,3.2-3.2,3.2c-1.8,0-3.2-1.4-3.2-3.2
			C240.8,215.7,242.2,214.3,244,214.3z M244,219.9c1.3,0,2.3-1.1,2.3-2.5c0-1.4-1.1-2.4-2.3-2.4c-1.3,0-2.4,1-2.4,2.4
			C241.6,218.9,242.7,219.9,244,219.9z"/>
		<path fill="#DC7676" d="M248.5,219c0,0,0.7,0.9,1.9,0.9c0.7,0,1.3-0.3,1.3-1c0-1.3-3.4-1.1-3.4-3c0-1.1,0.9-1.6,2.1-1.6
			c0.6,0,1.8,0.2,1.8,1.1v0.5h-0.8v-0.3c0-0.4-0.6-0.6-1-0.6c-0.8,0-1.3,0.3-1.3,0.9c0,1.4,3.4,1,3.4,3c0,1-0.9,1.7-2.1,1.7
			c-1.6,0-2.3-1.1-2.3-1.1L248.5,219z"/>
		<path fill="#DC7676" d="M254,215.5c0-0.2-0.1-0.3-0.3-0.3h-0.5v-0.7h0.8c0.5,0,0.7,0.2,0.7,0.6c0,0.2,0,0.4,0,0.4h0
			c0,0,0.5-1.2,2.1-1.2c1.6,0,2.6,1.3,2.6,3.2c0,1.9-1.1,3.2-2.7,3.2c-1.5,0-2-1.1-2-1.1h0c0,0,0,0.2,0,0.5v2.9H254V215.5z
			 M256.7,219.9c1.1,0,1.9-0.9,1.9-2.4c0-1.5-0.8-2.4-1.9-2.4c-1,0-2,0.7-2,2.4C254.8,218.7,255.4,219.9,256.7,219.9z"/>
		<path fill="#DC7676" d="M263.4,214.3c1.7,0,2.5,1.3,2.5,2.8c0,0.1,0,0.4,0,0.4h-4.6c0,1.5,1.1,2.4,2.3,2.4c1.1,0,1.8-0.7,1.8-0.7
			l0.4,0.6c0,0-0.9,0.9-2.2,0.9c-1.8,0-3.2-1.3-3.2-3.2C260.4,215.5,261.8,214.3,263.4,214.3z M265.1,216.9c0-1.2-0.8-1.9-1.7-1.9
			c-1,0-1.9,0.6-2.1,1.9H265.1z"/>
		<path fill="#DC7676" d="M270.2,214.3c0.7,0,2.1,0.3,2.1,1.3v0.5h-0.8v-0.3c0-0.5-0.9-0.7-1.4-0.7c-1.3,0-2.3,1-2.3,2.4
			c0,1.5,1.1,2.4,2.4,2.4c1.2,0,1.9-0.9,1.9-0.9l0.4,0.6c0,0-0.8,1-2.4,1c-1.8,0-3.2-1.3-3.2-3.2C267,215.7,268.4,214.3,270.2,214.3
			z"/>
		<path fill="#DC7676" d="M274,215.2h-0.8v-0.7h0.8v-1.7h0.8v1.7h1.5v0.7h-1.5v3.1c0,1.4,0.9,1.6,1.4,1.6c0.2,0,0.3,0,0.3,0v0.7
			c0,0-0.1,0-0.3,0c-0.7,0-2.1-0.2-2.1-2.2V215.2z"/>
		<path fill="#DC7676" d="M278,215.5c0-0.2-0.1-0.3-0.3-0.3h-0.5v-0.7h0.9c0.5,0,0.7,0.2,0.7,0.7v4.3c0,0.2,0.1,0.3,0.3,0.3h0.5v0.7
			h-0.9c-0.5,0-0.7-0.2-0.7-0.7V215.5z M278,212.1h0.8v1H278V212.1z"/>
		<path fill="#DC7676" d="M283.6,214.3c1.8,0,3.2,1.3,3.2,3.1c0,1.8-1.4,3.2-3.2,3.2c-1.8,0-3.2-1.4-3.2-3.2
			C280.4,215.7,281.8,214.3,283.6,214.3z M283.6,219.9c1.3,0,2.3-1.1,2.3-2.5c0-1.4-1.1-2.4-2.3-2.4c-1.3,0-2.4,1-2.4,2.4
			C281.2,218.9,282.3,219.9,283.6,219.9z"/>
		<path fill="#DC7676" d="M288.3,215.5c0-0.2-0.1-0.3-0.3-0.3h-0.5v-0.7h0.8c0.5,0,0.7,0.2,0.7,0.7v0.3c0,0.2,0,0.4,0,0.4h0
			c0.2-0.6,1-1.5,2.4-1.5c1.5,0,2,0.9,2,2.3v2.9c0,0.2,0.1,0.3,0.3,0.3h0.5v0.7h-0.9c-0.5,0-0.7-0.2-0.7-0.7v-2.9
			c0-0.9-0.1-1.8-1.3-1.8c-1,0-1.9,0.7-2.2,1.7c-0.1,0.3-0.1,0.5-0.1,0.8v2.9h-0.8V215.5z"/>
		<path fill="#DC7676" d="M296.5,216.5c0-1.7-0.4-3.2-1.3-4.7h0.8c0.9,1.4,1.3,3,1.3,4.8c0,1.9-0.5,3.7-1.4,5.1h-0.8
			C296,220.1,296.5,218.3,296.5,216.5z"/>
	</g>
</g>
<g>
	<g id="document_2_">
		<g>
			<g>
				<path fill="#F8E2D2" d="M468.8,228.3l-16-15.6c0.4,0-0.5-1.7-0.7-1.7h-0.5h-22.3c-1.4,0-2.4,1.1-2.4,2.4v51.9
					c0,1.3,1.1,2.4,2.4,2.4h37.4c1.4,0,2.4-1.1,2.4-2.4c0,0,0-35.7,0-36.1C469.2,228.9,469.1,228.6,468.8,228.3z"/>
			</g>
			<g>
				<path fill="#FAAE24" d="M452.1,210.9v12.7c0,2.9,3.1,5,6,5H469L452.1,210.9z"/>
			</g>
			<g>
				<path fill="#DC7676" d="M460.1,258h-25c-0.3,0-0.5,0.2-0.5,0.5v1.8c0,0.3,0.2,0.5,0.5,0.5h25c0.3,0,0.5-0.2,0.5-0.5v-1.8
					C460.5,258.3,460.3,258,460.1,258z M435.1,231.1h10.5c0.3,0,0.5-0.2,0.5-0.5v-1.8c0-0.3-0.2-0.5-0.5-0.5h-10.5
					c-0.3,0-0.5,0.2-0.5,0.5v1.8C434.6,230.9,434.8,231.1,435.1,231.1z M435.1,221.5h10.5c0.3,0,0.5-0.2,0.5-0.5v-1.8
					c0-0.3-0.2-0.5-0.5-0.5h-10.5c-0.3,0-0.5,0.2-0.5,0.5v1.8C434.6,221.2,434.8,221.5,435.1,221.5z M460.1,247.5h-25
					c-0.3,0-0.5,0.2-0.5,0.5v1.8c0,0.3,0.2,0.5,0.5,0.5h25c0.3,0,0.5-0.2,0.5-0.5V248C460.5,247.7,460.3,247.5,460.1,247.5z
					 M460.1,237.9h-25c-0.3,0-0.5,0.2-0.5,0.5v1.8c0,0.3,0.2,0.5,0.5,0.5h25c0.3,0,0.5-0.2,0.5-0.5v-1.8
					C460.5,238.1,460.3,237.9,460.1,237.9z"/>
			</g>
		</g>
	</g>
	<g>
		<path fill="#F8E2D2" d="M425,279.3c1.4,0,2,1,2,1h0c0,0,0-0.1,0-0.3c0-0.4,0.2-0.6,0.7-0.6h1.1v1h-0.5c-0.2,0-0.3,0.1-0.3,0.3v7.2
			h-1.2v-2.7c0-0.3,0-0.5,0-0.5h0c0,0-0.5,1-2,1c-1.6,0-2.7-1.3-2.7-3.2C422.2,280.5,423.4,279.3,425,279.3z M426.9,282.4
			c0-1.1-0.6-2.2-1.7-2.2c-1,0-1.8,0.8-1.8,2.2c0,1.3,0.7,2.2,1.7,2.2C426,284.6,426.9,284,426.9,282.4z"/>
		<path fill="#F8E2D2" d="M430,280.7c0-0.2-0.1-0.3-0.3-0.3h-0.5v-1h1.1c0.6,0,0.8,0.2,0.8,0.7v2.9c0,0.8,0.2,1.5,1.1,1.5
			c1.2,0,2-1.1,2-2.3v-2.8h1.2v4.8c0,0.2,0.1,0.3,0.3,0.3h0.5v1h-1.1c-0.5,0-0.8-0.2-0.8-0.7v-0.2c0-0.2,0-0.3,0-0.3h0
			c-0.3,0.6-1,1.4-2.2,1.4c-1.4,0-2.1-0.7-2.1-2.3V280.7z"/>
		<path fill="#F8E2D2" d="M440,279.3c1.7,0,2.6,1.3,2.6,2.8c0,0.2,0,0.5,0,0.5h-4.4c0.1,1.3,1,2,2.1,2c1,0,1.8-0.7,1.8-0.7l0.5,0.8
			c0,0-0.9,0.9-2.3,0.9c-1.9,0-3.2-1.4-3.2-3.2C436.9,280.5,438.2,279.3,440,279.3z M441.4,281.7c0-1-0.7-1.5-1.4-1.5
			c-0.9,0-1.6,0.5-1.8,1.5H441.4z"/>
		<path fill="#F8E2D2" d="M444.1,280.7c0-0.2-0.1-0.3-0.3-0.3h-0.5v-1h1.1c0.5,0,0.8,0.2,0.8,0.7v0.4c0,0.2,0,0.4,0,0.4h0
			c0.3-0.9,1-1.6,1.9-1.6c0.2,0,0.3,0,0.3,0v1.2c0,0-0.2,0-0.3,0c-0.7,0-1.4,0.5-1.7,1.4c-0.1,0.3-0.1,0.7-0.1,1.1v2.5h-1.2V280.7z"
			/>
		<path fill="#F8E2D2" d="M449.3,287c0.5,0,0.8-0.3,1.1-0.9l0.3-0.7l-2.1-4.8c-0.1-0.2-0.2-0.2-0.4-0.2h-0.1v-1h0.7
			c0.5,0,0.7,0.1,0.9,0.6l1.4,3.4c0.1,0.3,0.2,0.7,0.2,0.7h0c0,0,0.1-0.4,0.2-0.7l1.3-3.4c0.2-0.5,0.4-0.6,0.9-0.6h0.7v1h-0.2
			c-0.2,0-0.3,0-0.4,0.2l-2.4,5.9c-0.4,0.9-1.1,1.4-2,1.4c-0.9,0-1.4-0.6-1.4-0.6l0.5-0.8C448.4,286.6,448.8,287,449.3,287z"/>
		<path fill="#F8E2D2" d="M454.8,284.2h1.2v1.2h-1.2V284.2z"/>
		<path fill="#F8E2D2" d="M459.7,279.3c1.5,0,1.9,0.9,1.9,0.9h0c0,0,0-0.1,0-0.2c0-0.4,0.2-0.6,0.7-0.6h1.1v1H463
			c-0.2,0-0.3,0.1-0.3,0.2v4.6c0,2-1.5,2.8-3.1,2.8c-0.7,0-1.5-0.2-2.1-0.5l0.4-0.9c0,0,0.7,0.4,1.7,0.4c1.1,0,1.9-0.5,1.9-1.7v-0.4
			c0-0.2,0-0.4,0-0.4h0c-0.4,0.6-0.9,0.9-1.8,0.9c-1.7,0-2.7-1.4-2.7-3.1C457.1,280.5,458.1,279.3,459.7,279.3z M461.6,282.3
			c0-1.6-0.8-2-1.7-2c-1.1,0-1.7,0.8-1.7,2c0,1.3,0.7,2.1,1.8,2.1C460.9,284.4,461.6,283.9,461.6,282.3z"/>
		<path fill="#F8E2D2" d="M467,279.3c1.4,0,2,1,2,1h0c0,0,0-0.1,0-0.3c0-0.4,0.2-0.6,0.7-0.6h1.1v1h-0.5c-0.2,0-0.3,0.1-0.3,0.3v7.2
			h-1.2v-2.7c0-0.3,0-0.5,0-0.5h0c0,0-0.5,1-2,1c-1.6,0-2.7-1.3-2.7-3.2C464.2,280.5,465.4,279.3,467,279.3z M468.9,282.4
			c0-1.1-0.6-2.2-1.7-2.2c-1,0-1.8,0.8-1.8,2.2c0,1.3,0.7,2.2,1.7,2.2C468,284.6,468.9,284,468.9,282.4z"/>
		<path fill="#F8E2D2" d="M472,278.3c0-0.2-0.1-0.3-0.3-0.3h-0.5v-1h1.2c0.5,0,0.8,0.2,0.8,0.8v6.4c0,0.2,0.1,0.3,0.3,0.3h0.5v1
			h-1.2c-0.5,0-0.8-0.2-0.8-0.8V278.3z"/>
	</g>
</g>
<g id="Gears">
	<g>
		<g id="Shape_291">
			<path fill="#F8E2D2" d="M483.9,83.3h-1.9c-0.4,0-0.9-0.4-1-0.8l-1.1-2.7c-0.2-0.4-0.1-1,0.2-1.3l1.4-1.4c0.3-0.3,0.3-0.8,0-1.1
				l-1.6-1.6c-0.3-0.3-0.8-0.3-1.1,0l-1.4,1.4c-0.3,0.3-0.9,0.4-1.3,0.2l-2.7-1.1c-0.4-0.1-0.8-0.6-0.8-1v-1.9
				c0-0.4-0.4-0.8-0.8-0.8h-2.2c-0.4,0-0.8,0.4-0.8,0.8v1.9c0,0.4-0.4,0.9-0.8,1l-2.7,1.1c-0.4,0.2-1,0.1-1.3-0.2l-1.4-1.4
				c-0.3-0.3-0.8-0.3-1.1,0l-1.6,1.6c-0.3,0.3-0.3,0.8,0,1.1l1.4,1.4c0.3,0.3,0.4,0.9,0.2,1.3l-1.1,2.7c-0.1,0.4-0.6,0.8-1,0.8h-1.9
				c-0.4,0-0.8,0.4-0.8,0.8v2.2c0,0.4,0.4,0.8,0.8,0.8h1.9c0.4,0,0.9,0.3,1,0.8l1.1,2.7c0.2,0.4,0.1,1-0.2,1.3l-1.4,1.4
				c-0.3,0.3-0.3,0.8,0,1.1l1.6,1.6c0.3,0.3,0.8,0.3,1.1,0l1.4-1.4c0.3-0.3,0.9-0.4,1.3-0.2l2.7,1.1c0.4,0.1,0.8,0.6,0.8,1v1.9
				c0,0.4,0.4,0.8,0.8,0.8h2.2c0.4,0,0.8-0.4,0.8-0.8v-1.9c0-0.4,0.3-0.9,0.8-1l2.7-1.1c0.4-0.2,1-0.1,1.3,0.2l1.4,1.4
				c0.3,0.3,0.8,0.3,1.1,0l1.6-1.6c0.3-0.3,0.3-0.8,0-1.1l-1.4-1.4c-0.3-0.3-0.4-0.9-0.2-1.3l1.1-2.7c0.1-0.4,0.6-0.8,1-0.8h1.9
				c0.4,0,0.8-0.4,0.8-0.8v-2.2C484.7,83.6,484.3,83.3,483.9,83.3z M470.6,88.7c-1.9,0-3.5-1.6-3.5-3.5c0-1.9,1.6-3.5,3.5-3.5
				c1.9,0,3.5,1.6,3.5,3.5C474.1,87.1,472.5,88.7,470.6,88.7z"/>
		</g>
		<g id="Shape_293_1_">
			<path fill="#F8E2D2" d="M457.9,102h-3c-0.7,0-1.4-0.5-1.6-1.2l-1.7-4.2c-0.3-0.6-0.2-1.5,0.3-2l2.1-2.1c0.5-0.5,0.5-1.3,0-1.8
				l-2.5-2.5c-0.5-0.5-1.3-0.5-1.8,0l-2.1,2.1c-0.5,0.5-1.4,0.6-2,0.3l-4.2-1.7c-0.7-0.2-1.2-0.9-1.2-1.6v-3c0-0.7-0.6-1.3-1.3-1.3
				h-3.5c-0.7,0-1.3,0.6-1.3,1.3v3c0,0.7-0.6,1.4-1.2,1.6l-4.2,1.7c-0.6,0.3-1.5,0.2-2-0.3l-2.1-2.1c-0.5-0.5-1.3-0.5-1.8,0
				l-2.5,2.5c-0.5,0.5-0.5,1.3,0,1.8l2.1,2.1c0.5,0.5,0.6,1.4,0.3,2l-1.7,4.2c-0.2,0.7-0.9,1.2-1.6,1.2h-3c-0.7,0-1.3,0.6-1.3,1.3
				v3.5c0,0.7,0.6,1.3,1.3,1.3h3c0.7,0,1.4,0.5,1.6,1.2l1.7,4.2c0.3,0.6,0.2,1.5-0.3,2l-2.1,2.1c-0.5,0.5-0.5,1.3,0,1.8l2.5,2.5
				c0.5,0.5,1.3,0.5,1.8,0l2.1-2.1c0.5-0.5,1.4-0.6,2-0.3l4.2,1.7c0.7,0.2,1.2,0.9,1.2,1.6v3c0,0.7,0.6,1.3,1.3,1.3h3.5
				c0.7,0,1.3-0.6,1.3-1.3v-3c0-0.7,0.5-1.4,1.2-1.6l4.2-1.7c0.6-0.3,1.5-0.2,2,0.3l2.1,2.1c0.5,0.5,1.3,0.5,1.8,0l2.5-2.5
				c0.5-0.5,0.5-1.3,0-1.8l-2.1-2.1c-0.5-0.5-0.6-1.4-0.3-2l1.7-4.2c0.2-0.7,0.9-1.2,1.6-1.2h3c0.7,0,1.3-0.6,1.3-1.3v-3.5
				C459.2,102.6,458.6,102,457.9,102z M437,110.5c-3.1,0-5.5-2.5-5.5-5.5c0-3.1,2.5-5.5,5.5-5.5c3.1,0,5.5,2.5,5.5,5.5
				C442.6,108,440.1,110.5,437,110.5z"/>
		</g>
		<g id="Shape_336">
			<path fill="#F8E2D2" d="M483.9,83.3h-1.9c-0.4,0-0.9-0.4-1-0.8l-1.1-2.7c-0.2-0.4-0.1-1,0.2-1.3l1.4-1.4c0.3-0.3,0.3-0.8,0-1.1
				l-1.6-1.6c-0.3-0.3-0.8-0.3-1.1,0l-1.4,1.4c-0.3,0.3-0.9,0.4-1.3,0.2l-2.7-1.1c-0.4-0.1-0.8-0.6-0.8-1v-1.9
				c0-0.4-0.4-0.8-0.8-0.8h-1.3v10.6c0.1,0,0.1,0,0.2,0c1.9,0,3.5,1.6,3.5,3.5c0,1.9-1.6,3.5-3.5,3.5c-0.1,0-0.1,0-0.2,0v10.6h1.3
				c0.4,0,0.8-0.4,0.8-0.8v-1.9c0-0.4,0.3-0.9,0.8-1l2.7-1.1c0.4-0.2,1-0.1,1.3,0.2l1.4,1.4c0.3,0.3,0.8,0.3,1.1,0l1.6-1.6
				c0.3-0.3,0.3-0.8,0-1.1l-1.4-1.4c-0.3-0.3-0.4-0.9-0.2-1.3l1.1-2.7c0.1-0.4,0.6-0.8,1-0.8h1.9c0.4,0,0.8-0.4,0.8-0.8v-2.2
				C484.7,83.6,484.3,83.3,483.9,83.3z"/>
		</g>
		<g id="Shape_336_copy">
			<path fill="#F8E2D2" d="M457.9,102h-3c-0.7,0-1.4-0.5-1.6-1.2l-1.7-4.2c-0.3-0.6-0.2-1.5,0.3-2l2.1-2.1c0.5-0.5,0.5-1.3,0-1.8
				l-2.5-2.5c-0.5-0.5-1.3-0.5-1.8,0l-2.1,2.1c-0.5,0.5-1.4,0.6-2,0.3l-4.2-1.7c-0.7-0.2-1.2-0.9-1.2-1.6v-3c0-0.7-0.6-1.3-1.3-1.3
				h-1.9v16.6c0.1,0,0.1,0,0.2,0c3.1,0,5.5,2.5,5.5,5.5c0,3-2.5,5.5-5.5,5.5c-0.1,0-0.1,0-0.2,0v16.6h1.9c0.7,0,1.3-0.6,1.3-1.3v-3
				c0-0.7,0.5-1.4,1.2-1.6l4.2-1.7c0.6-0.3,1.5-0.2,2,0.3l2.1,2.1c0.5,0.5,1.3,0.5,1.8,0l2.5-2.5c0.5-0.5,0.5-1.3,0-1.8l-2.1-2.1
				c-0.5-0.5-0.6-1.4-0.3-2l1.7-4.2c0.2-0.7,0.9-1.2,1.6-1.2h3c0.7,0,1.3-0.6,1.3-1.3v-3.5C459.2,102.6,458.6,102,457.9,102z"/>
		</g>
	</g>
</g>
<g>
	<line fill="#FAAE24" x1="171.4" y1="106.8" x2="402.3" y2="106.8"/>
	<g>
		
			<line fill="none" stroke="#FAAE24" stroke-width="7" stroke-linecap="round" stroke-miterlimit="10" x1="171.4" y1="106.8" x2="377.2" y2="106.8"/>
		<g>
			<polygon fill="#FAAE24" points="372.1,124.3 402.3,106.8 372.1,89.4 			"/>
		</g>
	</g>
</g>
<g>
	<line fill="#FAAE24" x1="484.7" y1="110.5" x2="544.5" y2="110.5"/>
	<g>
		
			<line fill="none" stroke="#FAAE24" stroke-width="7" stroke-linecap="round" stroke-miterlimit="10" x1="484.7" y1="110.5" x2="519.4" y2="110.5"/>
		<g>
			<polygon fill="#FAAE24" points="514.3,128 544.5,110.5 514.3,93.1 			"/>
		</g>
	</g>
</g>
<g>
	<line fill="#FAAE24" x1="445.3" y1="196.2" x2="445.3" y2="137.3"/>
	<g>
		
			<line fill="none" stroke="#FAAE24" stroke-width="7" stroke-linecap="round" stroke-miterlimit="10" x1="445.3" y1="196.2" x2="445.3" y2="162.4"/>
		<g>
			<polygon fill="#FAAE24" points="462.7,167.5 445.3,137.3 427.8,167.5 			"/>
		</g>
	</g>
</g>
<g>
	<g id="document_3_">
		<g>
			<g>
				<path fill="#FAAE24" d="M609.4,49l-16-15.6c0.4,0-0.5-1.7-0.7-1.7h-0.5h-22.3c-1.4,0-2.4,1.1-2.4,2.4v51.9
					c0,1.3,1.1,2.4,2.4,2.4h37.4c1.4,0,2.4-1.1,2.4-2.4c0,0,0-35.7,0-36.1C609.8,49.6,609.7,49.3,609.4,49z"/>
			</g>
			<g>
				<path fill="#F8E2D2" d="M592.7,31.5v12.7c0,2.9,3.1,5,6,5h10.9L592.7,31.5z"/>
			</g>
			<g>
				<path fill="#DC7676" d="M600.7,78.7h-25c-0.3,0-0.5,0.2-0.5,0.5v1.8c0,0.3,0.2,0.5,0.5,0.5h25c0.3,0,0.5-0.2,0.5-0.5v-1.8
					C601.1,79,600.9,78.7,600.7,78.7z M575.7,51.8h10.5c0.3,0,0.5-0.2,0.5-0.5v-1.8c0-0.3-0.2-0.5-0.5-0.5h-10.5
					c-0.3,0-0.5,0.2-0.5,0.5v1.8C575.2,51.6,575.4,51.8,575.7,51.8z M575.7,42.2h10.5c0.3,0,0.5-0.2,0.5-0.5v-1.8
					c0-0.3-0.2-0.5-0.5-0.5h-10.5c-0.3,0-0.5,0.2-0.5,0.5v1.8C575.2,41.9,575.4,42.2,575.7,42.2z M600.7,68.2h-25
					c-0.3,0-0.5,0.2-0.5,0.5v1.8c0,0.3,0.2,0.5,0.5,0.5h25c0.3,0,0.5-0.2,0.5-0.5v-1.8C601.1,68.4,600.9,68.2,600.7,68.2z
					 M600.7,58.6h-25c-0.3,0-0.5,0.2-0.5,0.5v1.8c0,0.3,0.2,0.5,0.5,0.5h25c0.3,0,0.5-0.2,0.5-0.5v-1.8
					C601.1,58.8,600.9,58.6,600.7,58.6z"/>
			</g>
		</g>
	</g>
	<g>
		<path fill="#F8E2D2" d="M555.7,98.7H555v-1h3.7c1.5,0,2.7,1,2.7,2.7c0,1.6-1.1,2.7-2.7,2.7h-1.8v3.1h-1.2V98.7z M558.5,102
			c1,0,1.6-0.6,1.6-1.7s-0.6-1.6-1.6-1.6h-1.6v3.3H558.5z"/>
		<path fill="#F8E2D2" d="M564.8,100c1.7,0,2.6,1.3,2.6,2.8c0,0.2,0,0.5,0,0.5H563c0.1,1.3,1,2,2.1,2c1,0,1.8-0.7,1.8-0.7l0.5,0.8
			c0,0-0.9,0.9-2.3,0.9c-1.9,0-3.2-1.4-3.2-3.2C561.8,101.2,563.1,100,564.8,100z M566.3,102.4c0-1-0.7-1.5-1.4-1.5
			c-0.9,0-1.6,0.5-1.8,1.5H566.3z"/>
		<path fill="#F8E2D2" d="M569,101.4c0-0.2-0.1-0.3-0.3-0.3h-0.5v-1h1.1c0.5,0,0.8,0.2,0.8,0.7v0.4c0,0.2,0,0.4,0,0.4h0
			c0.3-0.9,1-1.6,1.9-1.6c0.2,0,0.3,0,0.3,0v1.2c0,0-0.2,0-0.3,0c-0.7,0-1.4,0.5-1.7,1.4c-0.1,0.3-0.1,0.7-0.1,1.1v2.5H569V101.4z"
			/>
		<path fill="#F8E2D2" d="M573.6,104.5c0,0,0.7,0.9,1.8,0.9c0.6,0,1.1-0.3,1.1-0.8c0-1.1-3.3-1-3.3-2.9c0-1.2,1-1.7,2.3-1.7
			c0.7,0,2,0.3,2,1.2v0.6h-1v-0.3c0-0.4-0.5-0.5-0.9-0.5c-0.7,0-1.1,0.2-1.1,0.7c0,1.2,3.3,0.9,3.3,2.9c0,1.1-1,1.8-2.2,1.8
			c-1.6,0-2.4-1.1-2.4-1.1L573.6,104.5z"/>
		<path fill="#F8E2D2" d="M581.8,100c1.8,0,3.3,1.3,3.3,3.2c0,1.8-1.5,3.2-3.3,3.2c-1.8,0-3.3-1.3-3.3-3.2
			C578.5,101.3,580,100,581.8,100z M581.8,105.3c1.2,0,2.1-0.9,2.1-2.2c0-1.3-0.9-2.2-2.1-2.2c-1.1,0-2.1,0.9-2.1,2.2
			C579.7,104.4,580.6,105.3,581.8,105.3z"/>
		<path fill="#F8E2D2" d="M586.5,101.4c0-0.2-0.1-0.3-0.3-0.3h-0.5v-1h1.1c0.5,0,0.8,0.2,0.8,0.7v0.2c0,0.2,0,0.3,0,0.3h0
			c0.2-0.5,1-1.4,2.3-1.4c1.4,0,2.1,0.8,2.1,2.3v2.6c0,0.2,0.1,0.3,0.3,0.3h0.5v1h-1.2c-0.5,0-0.8-0.2-0.8-0.8v-2.9
			c0-0.9-0.2-1.5-1.1-1.5c-0.9,0-1.7,0.6-1.9,1.5c-0.1,0.2-0.1,0.5-0.1,0.8v2.8h-1.2V101.4z"/>
		<path fill="#F8E2D2" d="M593.8,104.9h1.2v1.2h-1.2V104.9z"/>
		<path fill="#F8E2D2" d="M596.8,104.5c0,0,0.7,0.9,1.8,0.9c0.6,0,1.1-0.3,1.1-0.8c0-1.1-3.3-1-3.3-2.9c0-1.2,1-1.7,2.3-1.7
			c0.7,0,2,0.3,2,1.2v0.6h-1v-0.3c0-0.4-0.5-0.5-0.9-0.5c-0.7,0-1.1,0.2-1.1,0.7c0,1.2,3.3,0.9,3.3,2.9c0,1.1-1,1.8-2.2,1.8
			c-1.6,0-2.4-1.1-2.4-1.1L596.8,104.5z"/>
		<path fill="#F8E2D2" d="M602,101.3c-0.1-0.2-0.2-0.2-0.4-0.2h-0.2v-1h0.7c0.5,0,0.7,0.1,0.9,0.6l1.1,3.6c0.1,0.3,0.1,0.6,0.1,0.6
			h0c0,0,0.1-0.3,0.2-0.6l1.3-4.2h1.1l1.3,4.2c0.1,0.3,0.2,0.6,0.2,0.6h0c0,0,0-0.3,0.1-0.6l1.1-3.6c0.2-0.5,0.4-0.6,0.9-0.6h0.7v1
			H611c-0.2,0-0.3,0-0.4,0.2l-1.6,4.8h-1.3l-1.3-3.9c-0.1-0.3-0.2-0.7-0.2-0.7h0c0,0-0.1,0.3-0.2,0.7l-1.2,3.9h-1.3L602,101.3z"/>
		<path fill="#F8E2D2" d="M612.4,101.4c0-0.2-0.1-0.3-0.3-0.3h-0.5v-1h1.1c0.5,0,0.8,0.2,0.8,0.8v4c0,0.2,0.1,0.3,0.3,0.3h0.5v1
			h-1.1c-0.5,0-0.8-0.2-0.8-0.8V101.4z M612.4,97.7h1v1.2h-1V97.7z"/>
		<path fill="#F8E2D2" d="M615.7,101h-0.8v-0.9h0.8v-0.2c0-2,1.5-2.3,2.3-2.3c0.3,0,0.4,0,0.4,0v1c0,0-0.1,0-0.3,0
			c-0.5,0-1.3,0.1-1.3,1.3v0.2h1.4v0.9h-1.4v5.1h-1.2V101z"/>
		<path fill="#F8E2D2" d="M619.6,101h-0.8v-0.9h0.8v-1.7h1.1v1.7h1.5v0.9h-1.5v2.8c0,1.2,0.8,1.4,1.3,1.4c0.2,0,0.3,0,0.3,0v1
			c0,0-0.2,0-0.4,0c-0.8,0-2.3-0.2-2.3-2.3V101z"/>
	</g>
</g>
<g>
	<path fill="#DC7676" d="M132.3,341.4h-108c-6.1,0-11.1-5-11.1-11.1V24.8c0-6.1,5-11.1,11.1-11.1h108c6.1,0,11.1,5,11.1,11.1v305.5
		C143.5,336.4,138.5,341.4,132.3,341.4z"/>
	<g>
		<path fill="#FAAE24" d="M150.2,272.9H125c-4.4,0-7.9-3.5-7.9-7.9V83.4c0-4.4,3.5-7.9,7.9-7.9h25.2c4.4,0,7.9,3.5,7.9,7.9V265
			C158.1,269.4,154.6,272.9,150.2,272.9z"/>
		<g>
			<path fill="#FFFFFF" d="M125.8,223.2c0-4.9,2.5-7.2,2.5-7.2l2.1,1.6c0,0-2,2.2-2,5.5c0,4,3.2,7.3,7.8,7.3c4.7,0,7.9-3.2,7.9-7.3
				c0-3.6-2.5-5.8-2.5-5.8h-2c-0.4,0-0.6,0.2-0.6,0.6v1.2h-2.5v-2.7c0-1.3,0.5-1.8,1.8-1.8h8.2v2.5h-1.3c-0.4,0-0.9,0-0.9,0v0.1
				c0,0,2.5,2.3,2.5,6.3c0,5.4-4.2,9.9-10.6,9.9C130.4,233.4,125.8,229,125.8,223.2z"/>
			<path fill="#FFFFFF" d="M134.9,210.6c-0.4,0-0.6,0.2-0.6,0.6v1.2h-2.4v-2.6c0-1.3,0.5-1.9,1.7-1.9h0.9c0.6,0,1,0.1,1,0.1v-0.1
				c-2.1-0.7-3.8-2.4-3.8-4.6c0-0.4,0.1-0.7,0.1-0.7h2.8c0,0-0.1,0.4-0.1,0.8c0,1.8,1.3,3.4,3.4,4.1c0.8,0.3,1.7,0.3,2.6,0.3h5.9
				v2.8H134.9z"/>
			<path fill="#FFFFFF" d="M137.4,193v-0.6h-0.1c-2.6,0-3.5,0.9-3.5,3.2c0,0.7,0.2,2.4,1.1,2.4h0.8v2.6h-1.4c-2.4,0-2.7-3.6-2.7-5
				c0-4.7,2.5-6,5.7-6h6.2c0.4,0,0.6-0.2,0.6-0.6v-1.2h2.4v2.6c0,1.3-0.6,1.8-1.7,1.8c-0.5,0-0.9-0.1-0.9-0.1v0.1
				c0,0,2.9,1.1,2.9,4.6c0,2.5-1.5,4.9-4.4,4.9C137.7,201.8,137.4,195.5,137.4,193z M144.5,196.2c0-2.4-2.5-3.9-4.6-3.9h-0.5v0.7
				c0,2.1,0.1,5.9,2.8,5.9C143.4,199,144.5,198.1,144.5,196.2z"/>
			<path fill="#FFFFFF" d="M134.9,184.8c-0.4,0-0.6,0.2-0.6,0.6v1.2h-2.4V184c0-1.3,0.5-1.8,1.5-1.8c0.4,0,0.8,0,0.8,0v-0.1
				c0,0-2.6-1.2-2.6-4.8c0-3.9,3.1-6.4,7.6-6.4c4.6,0,7.6,2.8,7.6,6.6c0,3.2-2.3,4.4-2.3,4.4v0.1c0,0,0.5-0.1,1.3-0.1h6.5v2.8H134.9
				z M144.4,178c0-2.3-1.9-4.2-5.2-4.2c-3.2,0-5.2,1.7-5.2,4.1c0,2.2,1.5,4.2,5.2,4.2C141.8,182.1,144.4,180.7,144.4,178z"/>
			<path fill="#FFFFFF" d="M129.2,167.8c-0.4,0-0.6,0.2-0.6,0.6v1.2h-2.4v-2.8c0-1.3,0.5-1.8,1.8-1.8h5.7c0.7,0,1.2,0.1,1.2,0.1V165
				c-1.4-0.6-3.2-2.5-3.2-5.4c0-3.4,1.9-5,5.6-5h6.3c0.4,0,0.6-0.2,0.6-0.6v-1.2h2.4v2.7c0,1.3-0.5,1.8-1.8,1.8h-6.8
				c-2,0-3.6,0.4-3.6,2.8c0,2.2,1.5,4,3.6,4.6c0.6,0.2,1.2,0.3,1.9,0.3h6.8v2.8H129.2z"/>
			<path fill="#FFFFFF" d="M125.8,141c0-5.9,4.5-10.4,10.4-10.4c2.5,0,4.9,0.9,6.7,2.4l2.3-2.3l1.8,1.7l-2.3,2.3
				c1.4,1.8,2.2,4,2.2,6.3c0,5.9-4.7,10.4-10.6,10.4C130.3,151.3,125.8,146.8,125.8,141z M144.1,141c0-2.7-1.4-4.3-1.4-4.3l-2.2,2.2
				l-1.9-1.7l2.3-2.2c-1.3-0.9-3-1.5-4.7-1.5c-4.4,0-7.7,3.3-7.7,7.5c0,4.1,3.3,7.4,7.7,7.4C140.6,148.3,144.1,145.1,144.1,141z"/>
			<path fill="#FFFFFF" d="M129.3,126.6c-0.4,0-0.6,0.2-0.6,0.6v1.2h-2.5v-2.9c0-1.3,0.5-1.8,1.8-1.8h15.3c0.4,0,0.6-0.2,0.6-0.6
				v-5.6c0-0.4-0.2-0.6-0.6-0.6H142v-2.6h2.6c1.3,0,1.8,0.5,1.8,1.8v8.7c0,1.3-0.5,1.8-1.8,1.8H129.3z"/>
		</g>
	</g>
	<g>
		<path fill="#F8E2D2" d="M28.9,43.9c0,0,2.6,3.1,6.4,3.1c2.4,0,4.3-1.4,4.3-3.8c0-5.3-12.2-4.5-12.2-12.4c0-3.8,3.3-6.8,8.1-6.8
			c2.7,0,7.2,1.2,7.2,4.7v2.1h-3.3v-1.2c0-1.3-1.9-2.3-3.9-2.3c-2.7,0-4.5,1.5-4.5,3.4c0,5.1,12.2,4,12.2,12.3c0,3.9-3,7.2-8,7.2
			c-5.4,0-8.4-3.8-8.4-3.8L28.9,43.9z"/>
		<path fill="#F8E2D2" d="M55.3,31.2c5.1,0,7.8,3.8,7.8,8.5c0,0.5-0.1,1.4-0.1,1.4H49.8c0.2,3.9,3,6.1,6.2,6.1
			c3.1,0,5.3-2.1,5.3-2.1l1.5,2.5c0,0-2.7,2.7-7,2.7c-5.7,0-9.7-4.1-9.7-9.5C46.2,34.9,50.2,31.2,55.3,31.2z M59.6,38.6
			c-0.1-3-2-4.6-4.3-4.6c-2.7,0-4.8,1.6-5.4,4.6H59.6z"/>
		<path fill="#F8E2D2" d="M67.8,35.4c0-0.5-0.3-0.8-0.8-0.8h-1.5v-3h3.3c1.6,0,2.3,0.6,2.3,2.1v1.1c0,0.7-0.1,1.3-0.1,1.3h0.1
			c0.9-2.7,2.9-4.7,5.7-4.7c0.5,0,0.9,0.1,0.9,0.1v3.4c0,0-0.5-0.1-1-0.1c-2.2,0-4.3,1.6-5.1,4.3c-0.3,1-0.4,2.2-0.4,3.3v7.4h-3.5
			V35.4z"/>
		<path fill="#F8E2D2" d="M81,35.3c-0.2-0.5-0.5-0.7-1.1-0.7h-0.4v-3h1.8c1.6,0,2.2,0.4,2.8,1.8L88,43.9c0.4,1,0.6,2.4,0.6,2.4h0.1
			c0,0,0.3-1.4,0.6-2.4l3.9-10.4c0.5-1.4,1.2-1.8,2.8-1.8h1.7v3h-0.4c-0.6,0-1,0.2-1.2,0.7l-5.5,14.5h-4L81,35.3z"/>
		<path fill="#F8E2D2" d="M108.3,31.2c5.1,0,7.8,3.8,7.8,8.5c0,0.5-0.1,1.4-0.1,1.4h-13.2c0.2,3.9,3,6.1,6.2,6.1
			c3.1,0,5.3-2.1,5.3-2.1l1.5,2.5c0,0-2.7,2.7-7,2.7c-5.7,0-9.7-4.1-9.7-9.5C99.1,34.9,103.1,31.2,108.3,31.2z M112.5,38.6
			c-0.1-3-2-4.6-4.3-4.6c-2.7,0-4.8,1.6-5.4,4.6H112.5z"/>
		<path fill="#F8E2D2" d="M120.7,35.4c0-0.5-0.3-0.8-0.8-0.8h-1.5v-3h3.3c1.6,0,2.3,0.6,2.3,2.1v1.1c0,0.7-0.1,1.3-0.1,1.3h0.1
			c0.9-2.7,2.9-4.7,5.7-4.7c0.5,0,0.9,0.1,0.9,0.1v3.4c0,0-0.5-0.1-1-0.1c-2.2,0-4.3,1.6-5.1,4.3c-0.3,1-0.4,2.2-0.4,3.3v7.4h-3.5
			V35.4z"/>
	</g>
</g>
<g>
	<g id="document_4_">
		<g>
			<g>
				<path fill="#FAAE24" d="M672.4,116.1l-16-15.6c0.4,0-0.5-1.7-0.7-1.7h-0.5h-22.3c-1.4,0-2.4,1.1-2.4,2.4V153
					c0,1.3,1.1,2.4,2.4,2.4h37.4c1.4,0,2.4-1.1,2.4-2.4c0,0,0-35.7,0-36.1C672.8,116.6,672.7,116.4,672.4,116.1z"/>
			</g>
			<g>
				<path fill="#F8E2D2" d="M655.7,98.6v12.7c0,2.9,3.1,5,6,5h10.9L655.7,98.6z"/>
			</g>
			<g>
				<path fill="#DC7676" d="M663.7,145.8h-25c-0.3,0-0.5,0.2-0.5,0.5v1.8c0,0.3,0.2,0.5,0.5,0.5h25c0.3,0,0.5-0.2,0.5-0.5v-1.8
					C664.2,146.1,663.9,145.8,663.7,145.8z M638.7,118.9h10.5c0.3,0,0.5-0.2,0.5-0.5v-1.8c0-0.3-0.2-0.5-0.5-0.5h-10.5
					c-0.3,0-0.5,0.2-0.5,0.5v1.8C638.2,118.6,638.4,118.9,638.7,118.9z M638.7,109.3h10.5c0.3,0,0.5-0.2,0.5-0.5v-1.8
					c0-0.3-0.2-0.5-0.5-0.5h-10.5c-0.3,0-0.5,0.2-0.5,0.5v1.8C638.2,109,638.4,109.3,638.7,109.3z M663.7,135.3h-25
					c-0.3,0-0.5,0.2-0.5,0.5v1.8c0,0.3,0.2,0.5,0.5,0.5h25c0.3,0,0.5-0.2,0.5-0.5v-1.8C664.2,135.5,663.9,135.3,663.7,135.3z
					 M663.7,125.6h-25c-0.3,0-0.5,0.2-0.5,0.5v1.8c0,0.3,0.2,0.5,0.5,0.5h25c0.3,0,0.5-0.2,0.5-0.5v-1.8
					C664.2,125.9,663.9,125.6,663.7,125.6z"/>
			</g>
		</g>
	</g>
	<g>
		<path fill="#F8E2D2" d="M625.6,164.6c2.4,0,4.4,1.9,4.4,4.3c0,2.5-1.9,4.4-4.4,4.4c-2.4,0-4.3-1.9-4.3-4.4
			C621.2,166.5,623.1,164.6,625.6,164.6z M625.6,172.3c1.7,0,3.1-1.4,3.1-3.3c0-1.8-1.4-3.2-3.1-3.2s-3.1,1.4-3.1,3.2
			C622.5,170.8,623.9,172.3,625.6,172.3z"/>
		<path fill="#F8E2D2" d="M631.4,168.4c0-0.2-0.1-0.3-0.3-0.3h-0.5v-1h1.1c0.5,0,0.8,0.2,0.8,0.7v0.4c0,0.2,0,0.4,0,0.4h0
			c0.3-0.9,1-1.6,1.9-1.6c0.2,0,0.3,0,0.3,0v1.2c0,0-0.2,0-0.3,0c-0.7,0-1.4,0.5-1.7,1.4c-0.1,0.3-0.1,0.7-0.1,1.1v2.5h-1.2V168.4z"
			/>
		<path fill="#F8E2D2" d="M638,167c1.4,0,1.9,0.9,1.9,0.9h0c0,0,0-0.2,0-0.4V166c0-0.2-0.1-0.3-0.3-0.3h-0.5v-1h1.2
			c0.5,0,0.8,0.2,0.8,0.8v6.4c0,0.2,0.1,0.3,0.3,0.3h0.5v1h-1.1c-0.5,0-0.7-0.2-0.7-0.6c0-0.2,0-0.3,0-0.3h0c0,0-0.5,1.1-2,1.1
			c-1.6,0-2.7-1.3-2.7-3.2C635.3,168.3,636.4,167,638,167z M639.9,170.2c0-1.1-0.6-2.2-1.7-2.2c-0.9,0-1.7,0.8-1.7,2.2
			c0,1.3,0.7,2.2,1.7,2.2C639.1,172.4,639.9,171.8,639.9,170.2z"/>
		<path fill="#F8E2D2" d="M645.6,167c1.7,0,2.6,1.3,2.6,2.8c0,0.2,0,0.5,0,0.5h-4.4c0.1,1.3,1,2,2.1,2c1,0,1.8-0.7,1.8-0.7l0.5,0.8
			c0,0-0.9,0.9-2.3,0.9c-1.9,0-3.2-1.4-3.2-3.2C642.5,168.3,643.8,167,645.6,167z M647,169.5c0-1-0.7-1.5-1.4-1.5
			c-0.9,0-1.6,0.5-1.8,1.5H647z"/>
		<path fill="#F8E2D2" d="M649.7,168.4c0-0.2-0.1-0.3-0.3-0.3H649v-1h1.1c0.5,0,0.8,0.2,0.8,0.7v0.4c0,0.2,0,0.4,0,0.4h0
			c0.3-0.9,1-1.6,1.9-1.6c0.2,0,0.3,0,0.3,0v1.2c0,0-0.2,0-0.3,0c-0.7,0-1.4,0.5-1.7,1.4c-0.1,0.3-0.1,0.7-0.1,1.1v2.5h-1.2V168.4z"
			/>
		<path fill="#F8E2D2" d="M653.5,172h1.2v1.2h-1.2V172z"/>
		<path fill="#F8E2D2" d="M656.5,171.5c0,0,0.7,0.9,1.8,0.9c0.6,0,1.1-0.3,1.1-0.8c0-1.1-3.3-1-3.3-2.9c0-1.2,1-1.7,2.3-1.7
			c0.7,0,2,0.3,2,1.2v0.6h-1v-0.3c0-0.4-0.5-0.5-0.9-0.5c-0.7,0-1.1,0.2-1.1,0.7c0,1.2,3.3,0.9,3.3,2.9c0,1.1-1,1.8-2.2,1.8
			c-1.6,0-2.4-1.1-2.4-1.1L656.5,171.5z"/>
		<path fill="#F8E2D2" d="M661.7,168.4c-0.1-0.2-0.2-0.2-0.4-0.2h-0.2v-1h0.7c0.5,0,0.7,0.1,0.9,0.6l1.1,3.6
			c0.1,0.3,0.1,0.6,0.1,0.6h0c0,0,0.1-0.3,0.2-0.6l1.3-4.2h1.1l1.3,4.2c0.1,0.3,0.2,0.6,0.2,0.6h0c0,0,0-0.3,0.1-0.6l1.1-3.6
			c0.2-0.5,0.4-0.6,0.9-0.6h0.7v1h-0.2c-0.2,0-0.3,0-0.4,0.2l-1.6,4.8h-1.3l-1.3-3.9c-0.1-0.3-0.2-0.7-0.2-0.7h0
			c0,0-0.1,0.3-0.2,0.7l-1.2,3.9h-1.3L661.7,168.4z"/>
		<path fill="#F8E2D2" d="M672.1,168.4c0-0.2-0.1-0.3-0.3-0.3h-0.5v-1h1.1c0.5,0,0.8,0.2,0.8,0.8v4c0,0.2,0.1,0.3,0.3,0.3h0.5v1
			h-1.1c-0.5,0-0.8-0.2-0.8-0.8V168.4z M672.1,164.8h1v1.2h-1V164.8z"/>
		<path fill="#F8E2D2" d="M675.3,168.1h-0.8v-0.9h0.8V167c0-2,1.5-2.3,2.3-2.3c0.3,0,0.4,0,0.4,0v1c0,0-0.1,0-0.3,0
			c-0.5,0-1.3,0.1-1.3,1.3v0.2h1.4v0.9h-1.4v5.1h-1.2V168.1z"/>
		<path fill="#F8E2D2" d="M679.3,168.1h-0.8v-0.9h0.8v-1.7h1.1v1.7h1.5v0.9h-1.5v2.8c0,1.2,0.8,1.4,1.3,1.4c0.2,0,0.3,0,0.3,0v1
			c0,0-0.2,0-0.4,0c-0.8,0-2.3-0.2-2.3-2.3V168.1z"/>
	</g>
</g>
<g>
	<g id="document_5_">
		<g>
			<g>
				<path fill="#FAAE24" d="M607.5,148.2l-16-15.6c0.4,0-0.5-1.7-0.7-1.7h-0.5H568c-1.4,0-2.4,1.1-2.4,2.4v51.9
					c0,1.3,1.1,2.4,2.4,2.4h37.4c1.4,0,2.4-1.1,2.4-2.4c0,0,0-35.7,0-36.1C607.9,148.8,607.8,148.5,607.5,148.2z"/>
			</g>
			<g>
				<path fill="#F8E2D2" d="M590.8,130.7v12.7c0,2.9,3.1,5,6,5h10.9L590.8,130.7z"/>
			</g>
			<g>
				<path fill="#DC7676" d="M598.8,177.9h-25c-0.3,0-0.5,0.2-0.5,0.5v1.8c0,0.3,0.2,0.5,0.5,0.5h25c0.3,0,0.5-0.2,0.5-0.5v-1.8
					C599.2,178.2,599,177.9,598.8,177.9z M573.8,151h10.5c0.3,0,0.5-0.2,0.5-0.5v-1.8c0-0.3-0.2-0.5-0.5-0.5h-10.5
					c-0.3,0-0.5,0.2-0.5,0.5v1.8C573.3,150.7,573.5,151,573.8,151z M573.8,141.4h10.5c0.3,0,0.5-0.2,0.5-0.5V139
					c0-0.3-0.2-0.5-0.5-0.5h-10.5c-0.3,0-0.5,0.2-0.5,0.5v1.8C573.3,141.1,573.5,141.4,573.8,141.4z M598.8,167.4h-25
					c-0.3,0-0.5,0.2-0.5,0.5v1.8c0,0.3,0.2,0.5,0.5,0.5h25c0.3,0,0.5-0.2,0.5-0.5v-1.8C599.2,167.6,599,167.4,598.8,167.4z
					 M598.8,157.7h-25c-0.3,0-0.5,0.2-0.5,0.5v1.8c0,0.3,0.2,0.5,0.5,0.5h25c0.3,0,0.5-0.2,0.5-0.5v-1.8
					C599.2,158,599,157.7,598.8,157.7z"/>
			</g>
		</g>
	</g>
	<g>
		<path fill="#F8E2D2" d="M551,197.9h-0.8v-1h3.7c1.5,0,2.7,1,2.7,2.7c0,1.6-1.1,2.7-2.7,2.7h-1.8v3.1H551V197.9z M553.7,201.2
			c1,0,1.6-0.6,1.6-1.7s-0.6-1.6-1.6-1.6h-1.6v3.3H553.7z"/>
		<path fill="#F8E2D2" d="M557.9,200.5c0-0.2-0.1-0.3-0.3-0.3h-0.5v-1h1.1c0.5,0,0.8,0.2,0.8,0.7v0.4c0,0.2,0,0.4,0,0.4h0
			c0.3-0.9,1-1.6,1.9-1.6c0.2,0,0.3,0,0.3,0v1.2c0,0-0.2,0-0.3,0c-0.7,0-1.4,0.5-1.7,1.4c-0.1,0.3-0.1,0.7-0.1,1.1v2.5h-1.2V200.5z"
			/>
		<path fill="#F8E2D2" d="M564.9,199.1c1.8,0,3.3,1.3,3.3,3.2c0,1.8-1.5,3.2-3.3,3.2c-1.8,0-3.3-1.3-3.3-3.2
			C561.7,200.5,563.1,199.1,564.9,199.1z M564.9,204.5c1.2,0,2.1-0.9,2.1-2.2c0-1.3-0.9-2.2-2.1-2.2c-1.1,0-2.1,0.9-2.1,2.2
			C562.9,203.6,563.8,204.5,564.9,204.5z"/>
		<path fill="#F8E2D2" d="M571.8,199.1c1.4,0,1.9,0.9,1.9,0.9h0c0,0,0-0.2,0-0.4v-1.5c0-0.2-0.1-0.3-0.3-0.3h-0.5v-1h1.2
			c0.5,0,0.8,0.2,0.8,0.8v6.4c0,0.2,0.1,0.3,0.3,0.3h0.5v1h-1.1c-0.5,0-0.7-0.2-0.7-0.6c0-0.2,0-0.3,0-0.3h0c0,0-0.5,1.1-2,1.1
			c-1.6,0-2.7-1.3-2.7-3.2C569.1,200.4,570.2,199.1,571.8,199.1z M573.7,202.3c0-1.1-0.6-2.2-1.7-2.2c-0.9,0-1.7,0.8-1.7,2.2
			c0,1.3,0.7,2.2,1.7,2.2C572.9,204.5,573.7,203.9,573.7,202.3z"/>
		<path fill="#F8E2D2" d="M576.9,200.5c0-0.2-0.1-0.3-0.3-0.3h-0.5v-1h1.1c0.6,0,0.8,0.2,0.8,0.7v2.9c0,0.8,0.2,1.5,1.1,1.5
			c1.2,0,2-1.1,2-2.3v-2.8h1.2v4.8c0,0.2,0.1,0.3,0.3,0.3h0.5v1H582c-0.5,0-0.8-0.2-0.8-0.7v-0.2c0-0.2,0-0.3,0-0.3h0
			c-0.3,0.6-1,1.4-2.2,1.4c-1.4,0-2.1-0.7-2.1-2.3V200.5z"/>
		<path fill="#F8E2D2" d="M587,199.1c0.7,0,2.2,0.3,2.2,1.3v0.6h-1.1v-0.3c0-0.4-0.7-0.6-1.1-0.6c-1.2,0-2.1,0.9-2.1,2.2
			c0,1.4,1,2.2,2.1,2.2c1.1,0,1.9-0.8,1.9-0.8l0.5,0.8c0,0-0.9,1-2.5,1c-1.9,0-3.2-1.4-3.2-3.2C583.8,200.5,585.1,199.1,587,199.1z"
			/>
		<path fill="#F8E2D2" d="M590.8,200.2H590v-0.9h0.8v-1.7h1.1v1.7h1.5v0.9H592v2.8c0,1.2,0.8,1.4,1.3,1.4c0.2,0,0.3,0,0.3,0v1
			c0,0-0.2,0-0.4,0c-0.8,0-2.3-0.2-2.3-2.3V200.2z"/>
		<path fill="#F8E2D2" d="M594.8,204.1h1.2v1.2h-1.2V204.1z"/>
		<path fill="#F8E2D2" d="M597.8,203.7c0,0,0.7,0.9,1.8,0.9c0.6,0,1.1-0.3,1.1-0.8c0-1.1-3.3-1-3.3-2.9c0-1.2,1-1.7,2.3-1.7
			c0.7,0,2,0.3,2,1.2v0.6h-1v-0.3c0-0.4-0.5-0.5-0.9-0.5c-0.7,0-1.1,0.2-1.1,0.7c0,1.2,3.3,0.9,3.3,2.9c0,1.1-1,1.8-2.2,1.8
			c-1.6,0-2.4-1.1-2.4-1.1L597.8,203.7z"/>
		<path fill="#F8E2D2" d="M603,200.5c-0.1-0.2-0.2-0.2-0.4-0.2h-0.2v-1h0.7c0.5,0,0.7,0.1,0.9,0.6l1.1,3.6c0.1,0.3,0.1,0.6,0.1,0.6
			h0c0,0,0.1-0.3,0.2-0.6l1.3-4.2h1.1l1.3,4.2c0.1,0.3,0.2,0.6,0.2,0.6h0c0,0,0-0.3,0.1-0.6l1.1-3.6c0.2-0.5,0.4-0.6,0.9-0.6h0.7v1
			H612c-0.2,0-0.3,0-0.4,0.2l-1.6,4.8h-1.3l-1.3-3.9c-0.1-0.3-0.2-0.7-0.2-0.7h0c0,0-0.1,0.3-0.2,0.7l-1.2,3.9h-1.3L603,200.5z"/>
		<path fill="#F8E2D2" d="M613.4,200.5c0-0.2-0.1-0.3-0.3-0.3h-0.5v-1h1.1c0.5,0,0.8,0.2,0.8,0.8v4c0,0.2,0.1,0.3,0.3,0.3h0.5v1
			h-1.1c-0.5,0-0.8-0.2-0.8-0.8V200.5z M613.4,196.9h1v1.2h-1V196.9z"/>
		<path fill="#F8E2D2" d="M616.6,200.2h-0.8v-0.9h0.8v-0.2c0-2,1.5-2.3,2.3-2.3c0.3,0,0.4,0,0.4,0v1c0,0-0.1,0-0.3,0
			c-0.5,0-1.3,0.1-1.3,1.3v0.2h1.4v0.9h-1.4v5.1h-1.2V200.2z"/>
		<path fill="#F8E2D2" d="M620.6,200.2h-0.8v-0.9h0.8v-1.7h1.1v1.7h1.5v0.9h-1.5v2.8c0,1.2,0.8,1.4,1.3,1.4c0.2,0,0.3,0,0.3,0v1
			c0,0-0.2,0-0.4,0c-0.8,0-2.3-0.2-2.3-2.3V200.2z"/>
	</g>
</g>
<g>
	<g id="document_6_">
		<g>
			<g>
				<path fill="#FAAE24" d="M761.2,141.6l-16-15.6c0.4,0-0.5-1.7-0.7-1.7H744h-22.3c-1.4,0-2.4,1.1-2.4,2.4v51.9
					c0,1.3,1.1,2.4,2.4,2.4h37.4c1.4,0,2.4-1.1,2.4-2.4c0,0,0-35.7,0-36.1C761.6,142.2,761.5,141.9,761.2,141.6z"/>
			</g>
			<g>
				<path fill="#F8E2D2" d="M744.5,124.2v12.7c0,2.9,3.1,5,6,5h10.9L744.5,124.2z"/>
			</g>
			<g>
				<path fill="#DC7676" d="M752.5,171.4h-25c-0.3,0-0.5,0.2-0.5,0.5v1.8c0,0.3,0.2,0.5,0.5,0.5h25c0.3,0,0.5-0.2,0.5-0.5v-1.8
					C753,171.6,752.7,171.4,752.5,171.4z M727.5,144.5H738c0.3,0,0.5-0.2,0.5-0.5v-1.8c0-0.3-0.2-0.5-0.5-0.5h-10.5
					c-0.3,0-0.5,0.2-0.5,0.5v1.8C727,144.2,727.2,144.5,727.5,144.5z M727.5,134.8H738c0.3,0,0.5-0.2,0.5-0.5v-1.8
					c0-0.3-0.2-0.5-0.5-0.5h-10.5c-0.3,0-0.5,0.2-0.5,0.5v1.8C727,134.6,727.2,134.8,727.5,134.8z M752.5,160.8h-25
					c-0.3,0-0.5,0.2-0.5,0.5v1.8c0,0.3,0.2,0.5,0.5,0.5h25c0.3,0,0.5-0.2,0.5-0.5v-1.8C753,161.1,752.7,160.8,752.5,160.8z
					 M752.5,151.2h-25c-0.3,0-0.5,0.2-0.5,0.5v1.8c0,0.3,0.2,0.5,0.5,0.5h25c0.3,0,0.5-0.2,0.5-0.5v-1.8
					C753,151.5,752.7,151.2,752.5,151.2z"/>
			</g>
		</g>
	</g>
	<g>
		<path fill="#F8E2D2" d="M716.5,190.2c2.4,0,4.4,1.9,4.4,4.3c0,2.5-1.9,4.4-4.4,4.4c-2.4,0-4.3-1.9-4.3-4.4
			C712.1,192.1,714,190.2,716.5,190.2z M716.5,197.8c1.7,0,3.1-1.4,3.1-3.3c0-1.8-1.4-3.2-3.1-3.2c-1.7,0-3.1,1.4-3.1,3.2
			C713.4,196.4,714.8,197.8,716.5,197.8z"/>
		<path fill="#F8E2D2" d="M722.3,194c0-0.2-0.1-0.3-0.3-0.3h-0.5v-1h1.1c0.5,0,0.8,0.2,0.8,0.7v0.4c0,0.2,0,0.4,0,0.4h0
			c0.3-0.9,1-1.6,1.9-1.6c0.2,0,0.3,0,0.3,0v1.2c0,0-0.2,0-0.3,0c-0.7,0-1.4,0.5-1.7,1.4c-0.1,0.3-0.1,0.7-0.1,1.1v2.5h-1.2V194z"/>
		<path fill="#F8E2D2" d="M728.9,192.6c1.4,0,1.9,0.9,1.9,0.9h0c0,0,0-0.2,0-0.4v-1.5c0-0.2-0.1-0.3-0.3-0.3H730v-1h1.2
			c0.5,0,0.8,0.2,0.8,0.8v6.4c0,0.2,0.1,0.3,0.3,0.3h0.5v1h-1.1c-0.5,0-0.7-0.2-0.7-0.6c0-0.2,0-0.3,0-0.3h0c0,0-0.5,1.1-2,1.1
			c-1.6,0-2.7-1.3-2.7-3.2C726.2,193.9,727.3,192.6,728.9,192.6z M730.8,195.8c0-1.1-0.6-2.2-1.7-2.2c-0.9,0-1.7,0.8-1.7,2.2
			c0,1.3,0.7,2.2,1.7,2.2C730,198,730.8,197.3,730.8,195.8z"/>
		<path fill="#F8E2D2" d="M736.5,192.6c1.7,0,2.6,1.3,2.6,2.8c0,0.2,0,0.5,0,0.5h-4.4c0.1,1.3,1,2,2.1,2c1,0,1.8-0.7,1.8-0.7
			l0.5,0.8c0,0-0.9,0.9-2.3,0.9c-1.9,0-3.2-1.4-3.2-3.2C733.4,193.9,734.7,192.6,736.5,192.6z M737.9,195.1c0-1-0.7-1.5-1.4-1.5
			c-0.9,0-1.6,0.5-1.8,1.5H737.9z"/>
		<path fill="#F8E2D2" d="M740.6,194c0-0.2-0.1-0.3-0.3-0.3h-0.5v-1h1.1c0.5,0,0.8,0.2,0.8,0.7v0.4c0,0.2,0,0.4,0,0.4h0
			c0.3-0.9,1-1.6,1.9-1.6c0.2,0,0.3,0,0.3,0v1.2c0,0-0.2,0-0.3,0c-0.7,0-1.4,0.5-1.7,1.4c-0.1,0.3-0.1,0.7-0.1,1.1v2.5h-1.2V194z"/>
		<path fill="#F8E2D2" d="M744.4,197.6h1.2v1.2h-1.2V197.6z"/>
		<path fill="#F8E2D2" d="M746.5,200.3c0.4,0,1.3-0.1,1.3-1.3V194c0-0.2-0.1-0.3-0.3-0.3H747v-1h1.2c0.5,0,0.8,0.2,0.8,0.8v5.5
			c0,2-1.6,2.3-2.3,2.3c-0.2,0-0.4,0-0.4,0v-1C746.2,200.3,746.3,200.3,746.5,200.3z M747.8,190.3h1.1v1.2h-1.1V190.3z"/>
		<path fill="#F8E2D2" d="M754,195h0.3V195c0-1.1-0.4-1.5-1.3-1.5c-0.3,0-1,0.1-1,0.5v0.3h-1.1v-0.6c0-1,1.5-1.1,2.1-1.1
			c2,0,2.5,1,2.5,2.4v2.6c0,0.2,0.1,0.3,0.3,0.3h0.5v1h-1.1c-0.5,0-0.8-0.3-0.8-0.7c0-0.2,0-0.4,0-0.4h0c0,0-0.5,1.2-1.9,1.2
			c-1,0-2.1-0.6-2.1-1.8C750.3,195.2,753,195,754,195z M752.7,198c1,0,1.6-1,1.6-1.9v-0.2H754c-0.9,0-2.5,0-2.5,1.2
			C751.5,197.5,751.9,198,752.7,198z"/>
		<path fill="#F8E2D2" d="M756.9,194c-0.1-0.2-0.2-0.2-0.4-0.2h-0.1v-1h0.6c0.5,0,0.7,0.1,0.9,0.6l1.3,3.5c0.1,0.3,0.2,0.8,0.2,0.8
			h0c0,0,0.1-0.5,0.2-0.8l1.3-3.5c0.2-0.5,0.4-0.6,0.9-0.6h0.6v1h-0.1c-0.2,0-0.3,0.1-0.4,0.2l-1.8,4.8h-1.3L756.9,194z"/>
		<path fill="#F8E2D2" d="M766.7,195h0.3V195c0-1.1-0.4-1.5-1.3-1.5c-0.3,0-1,0.1-1,0.5v0.3h-1.1v-0.6c0-1,1.5-1.1,2.1-1.1
			c2,0,2.5,1,2.5,2.4v2.6c0,0.2,0.1,0.3,0.3,0.3h0.5v1h-1.1c-0.5,0-0.8-0.3-0.8-0.7c0-0.2,0-0.4,0-0.4h0c0,0-0.5,1.2-1.9,1.2
			c-1,0-2.1-0.6-2.1-1.8C763.1,195.2,765.7,195,766.7,195z M765.4,198c1,0,1.6-1,1.6-1.9v-0.2h-0.3c-0.9,0-2.5,0-2.5,1.2
			C764.2,197.5,764.6,198,765.4,198z"/>
	</g>
</g>
</svg>
